<?xml version="1.0" encoding="utf-8"?>
<!-- Generator: Adobe Illustrator 19.0.0, SVG Export Plug-In . SVG Version: 6.00 Build 0)  -->
<svg version="1.1" id="Camada_1" xmlns="http://www.w3.org/2000/svg" xmlns:xlink="http://www.w3.org/1999/xlink" x="0px" y="0px"
	 viewBox="0 0 600 600" style="enable-background:new 0 0 600 600;" xml:space="preserve">
<style type="text/css">
	.st0{fill:#027935;}
	.st1{fill:#FFFFFF;}
</style>
<g id="XMLID_439_">
	<circle id="XMLID_3_" class="st0" cx="300" cy="300" r="295"/>
	<g id="XMLID_15_">
		<path id="XMLID_23_" class="st1" d="M478.9,190.5l-45,45h-52.2l-8.2,8.2L342.2,275l-19.5,19.5l-16.5,16.5
			c-2.5,2.5-5.7,3.7-8.9,3.7c-3.4,0-6.7-1.3-9.2-4c-4.7-5-4.2-13.1,0.6-18l35.3-35.3l31.4-31.4l8.4-8.4v-52.2l15.6-15.6l29.5-29.5
			c0.4-0.4,0.8-0.7,1.2-1.1c0.1-0.1,0.2-0.1,0.3-0.2c0.4-0.3,0.8-0.6,1.3-0.8c0,0,0.1,0,0.1-0.1c0.4-0.2,0.8-0.4,1.3-0.5
			c0.1,0,0.2-0.1,0.3-0.1c0.5-0.1,0.9-0.3,1.4-0.4c0.1,0,0.1,0,0.2,0c0.4-0.1,0.8-0.1,1.2-0.1c0.1,0,0.2,0,0.3,0
			c0.5,0,0.9,0,1.4,0.1c0.1,0,0.1,0,0.2,0c0.4,0.1,0.8,0.1,1.2,0.2c0.1,0,0.2,0.1,0.3,0.1c0.4,0.1,0.9,0.3,1.3,0.4
			c0.1,0,0.1,0.1,0.2,0.1c0.4,0.2,0.7,0.3,1.1,0.5c0.1,0.1,0.2,0.1,0.3,0.2c0.4,0.2,0.8,0.5,1.2,0.8c0,0,0.1,0.1,0.1,0.1
			c0.3,0.3,0.6,0.5,0.9,0.8c0.1,0.1,0.2,0.2,0.3,0.3c0.3,0.3,0.6,0.7,0.9,1.1c0,0,0,0.1,0.1,0.1c0.2,0.4,0.5,0.7,0.7,1.1
			c0.1,0.1,0.1,0.2,0.2,0.3c0.2,0.4,0.4,0.9,0.6,1.4c0,0,0,0,0,0.1c0.2,0.4,0.3,0.9,0.4,1.4c0,0.1,0,0.3,0.1,0.4
			c0.1,0.5,0.1,1,0.2,1.6l0.9,42.3l0.9,0l41.4,0.9c2.2,0,4.2,0.7,5.8,1.8c0.6,0.4,1.2,0.8,1.7,1.4c0.8,0.7,1.4,1.6,1.9,2.5
			c0.5,0.9,0.9,1.9,1.2,2.9C482.8,183.4,482,187.4,478.9,190.5L478.9,190.5z M295,205.6c-55.2,0-100,44.9-100,100
			c0,55.2,44.9,100,100,100c55.2,0,100-44.9,100-100c0-13.6-2.8-26.6-7.7-38.4l-36.2,36.2c0,0.7,0.1,1.5,0.1,2.3
			c0,31-25.2,56.3-56.3,56.3c-31,0-56.3-25.2-56.3-56.3c0-30.9,25.1-56.1,55.9-56.3l36.8-36.9C320.2,208.1,307.9,205.6,295,205.6
			L295,205.6z M452.6,254.2c-5,5-11.7,7.7-18.7,7.7h-20.2c5,13.6,7.8,28.4,7.8,43.7c0,69.7-56.7,126.5-126.5,126.5
			c-69.7,0-126.5-56.7-126.5-126.5c0-69.7,56.7-126.5,126.5-126.5c14.9,0,29.1,2.6,42.4,7.4v-21.1c0-7,2.8-13.7,7.7-18.7l8.4-8.4
			c-18.3-6.4-38-9.9-58.5-9.9c-97.7,0-177.2,79.5-177.2,177.2c0,97.7,79.5,177.2,177.2,177.2c97.7,0,177.2-79.5,177.2-177.2
			c0-21.2-3.8-41.6-10.6-60.5L452.6,254.2z M452.6,254.2"/>
	</g>
</g>
</svg>
