<?xml version="1.0" encoding="utf-8"?>
<!-- Generator: Adobe Illustrator 19.0.0, SVG Export Plug-In . SVG Version: 6.00 Build 0)  -->
<svg version="1.1" id="Camada_1" xmlns="http://www.w3.org/2000/svg" xmlns:xlink="http://www.w3.org/1999/xlink" x="0px" y="0px"
	 viewBox="0 0 600 600" style="enable-background:new 0 0 600 600;" xml:space="preserve">
<style type="text/css">
	.st0{fill:#027935;stroke:#FFFFFF;stroke-miterlimit:10;}
	.st1{fill:#007C35;stroke:#FFFFFF;stroke-width:22.4763;stroke-miterlimit:10;}
	.st2{fill:#007C35;stroke:#FFFFFF;stroke-miterlimit:10;}
	.st3{fill:none;stroke:#FFFFFF;stroke-width:27.7204;stroke-miterlimit:10;}
	.st4{fill:#007C35;}
</style>
<g id="XMLID_4_">
	<g id="XMLID_216_" transform="translate(0.000000,1000.000000) scale(0.100000,-0.100000)">
		<path id="XMLID_704_" class="st0" d="M5963.9,7331.6c-35,279.9-95.8,520.6-192.8,767.3c-115.4,293.4-276.9,564.8-487.5,819.5
			c-65.7,79.2-285.5,299-364.7,364.6c-461.7,381.8-980.5,604-1584,679.6c-57.7,7.4-142.4,10.4-303.9,11.7
			c-123.4,1.2-235.1,0.6-248.6-0.6c-209.4-20.3-334.6-40.5-491.8-79.2c-447.6-110.5-846-311.8-1208.8-611.4
			c-79.2-65.7-299-285.5-364.7-364.6c-382.5-462.9-604.7-981-680.2-1586.9c-16-128.9-16-534.1,0-663
			c35-279.9,95.8-520.6,192.8-767.3c115.4-293.4,276.9-564.8,487.5-819.5c65.7-79.2,285.5-299,364.7-364.6
			c462.9-382.4,981.1-604.7,1587-680.2c128.9-16,534.1-16,663.1,0c280,35,520.6,95.8,767.4,192.8
			c293.5,115.4,564.8,276.9,819.6,487.4c79.2,65.7,299,285.4,364.7,364.6c382.5,462.9,604.7,981,680.2,1586.9
			c8.6,72.4,11.1,134.4,11.1,331.5S5972.5,7259.2,5963.9,7331.6z M5285.2,7337.8l-32.4-64.5l-328.2-322.9l-328.8-323.5l-0.6-653.2
			v-653.2l-16.2-54.6c-61.7-208.1-231.1-353.6-448.4-383.7c-35.5-4.9-400.4-6.1-1292.3-4.9l-1242.4,1.8l-52.9,14.1
			c-208.6,55.2-356.9,211.8-399.8,424.8c-6.2,31.9-8.1,355.4-8.1,1669.7c0,1748.9-1.9,1655.6,31.8,1755.7
			c47.3,144.9,188.7,281.8,333.8,326c99.6,30.1,51.7,28.9,1387.6,28.2l1254.9-1.2l61.7-16.6c160.7-44.2,291.5-157.8,352.5-308.2
			c38.6-93.9,38-89.6,38-422.3c0-168.2,2.5-306.9,5-308.8c3.1-1.2,28,5.5,56,15.3c99,35.6,229.2,36.8,330.1,3.1
			c198-66.3,328.8-229,355.6-442.6C5353.1,7529.3,5333.8,7436.6,5285.2,7337.8z"/>
		<path id="XMLID_715_" class="st1" d="M4110,6177.3c-171.3-173-254.6-253.5-266-255.9c-9.6-1.8-49.1-12.6-88.7-23.4
			c-39.5-11.4-128.2-35.4-197.7-54.1c-68.9-18.6-148.6-40.3-176.7-48.1c-28.2-7.8-85.7-23.4-128.8-35.4
			c-42.5-11.4-108.4-29.4-146.2-40.3c-87.5-24-125.8-22.8-151,4.8c-9,10.2-18,29.4-20.4,43.3l-4.2,24.6h-119.2h-119.2v81.1v81.1
			h143.2h143.2l18.6,70.3c10.2,39,25.2,93.7,33.5,122c7.8,28.2,26.4,97.3,41.3,153.2c15,56.5,32.4,123.2,38.9,148.4
			c7.2,25.8,12.6,49.3,12.6,52.9s-75.5,6.6-213.9,7.2l-214.5,1.8l-1.8,79.9l-1.8,79.3h250.4h250.4l271.4,272.1
			c148.6,149,270.8,273.3,270.8,276.3c0,2.4-234.2,4.2-521.2,4.2h-521.2v81.1v81.1h606.9h606.3l232.4,233.1l231.8,232.5v351.4v351.4
			l-17.4,49.3c-22.8,65.5-43.7,99.7-86.9,143.6c-44.3,43.9-105.4,79.3-162.4,93.7c-39.5,10.2-116.2,10.8-1240.1,10.2
			c-1144.9-0.6-1200-1.2-1240.7-11.4c-60.5-15.6-106-43.3-158.2-95.5c-52.1-52.3-78.5-98.5-95.9-166.4c-12-45.7-12-72.7-12-1630.5
			s0-1584.8,12-1630.5c17.4-67.9,43.7-114.1,95.9-165.8c50.9-51.7,99.4-79.9,164.2-96.7c40.7-10.8,95.9-11.4,1238.3-11.4h1196.4
			l47.9,13.8c48.5,14.4,97.7,40.3,136.6,72.7c34.7,28.2,78.5,91.9,99.4,144.2l19.8,48.7l1.8,554.5c0.6,304.6-0.6,553.9-3.6,553.9
			C4362.2,6429.6,4247.2,6316.1,4110,6177.3z M2697.9,8018.6v81.1H3309h611.7l-1.8-79.3l-1.8-79.9l-609.3-1.8l-609.9-1.2V8018.6z
			 M2044.9,8099.7h227.7v-81.1v-81.1l-225.9,1.2l-226.5,1.8l-1.8,79.9l-1.8,79.3H2044.9z M2272.6,5873.9v-81.1h-227.7h-227.7v81.1
			v81.1h227.7h227.7V5873.9z M2047.9,6507.7h-230.7v81.1v81.1l229.5-1.2l228.9-1.8l1.8-79.3l1.8-79.9H2047.9z M2277.4,7305.5
			l-1.8-79.9l-228.9-1.8l-229.5-1.2v81.1v81.1h230.7h231.2L2277.4,7305.5z"/>
		<path id="XMLID_211_" class="st2" d="M5088.1,7644c-27.4,99.2-94.4,171.1-187.3,200.4c-53.8,17.1-123.7,17.1-171.1,0.5
			c-44-15.6-74.3-33.7-105.6-63.6c-30.8-29.1-47.8-27.3,13.9-92.7c0,0,0.1,0,0.1,0c0,0-0.1,0-0.1,0c12-12.8,27.1-28.1,45.7-46.7
			c24.4,1.1,24.4,1.1,0,0c25.3-25.4,56.9-56.8,96.4-96.2c106.1-106.1,196.1-192.6,200.5-192.6c8.8,0,54.3,50.4,76.8,85.1
			C5093.9,7495.4,5106.2,7577.5,5088.1,7644z"/>
		<path id="XMLID_165_" class="st2" d="M3292.7,6455.6c-1.8-6.1-18.4-70.6-37.5-143c-19-72.4-43.6-165.1-54.6-205.6
			c-31.3-111.7-49.1-187.2-45.4-190.3c3.7-4.3,20.9,0,146.1,33.8c106.2,28.9,187.3,50.3,300.8,79.8c42.4,11,83.5,22.7,91.5,25.8
			c14.7,4.9,4.3,16-186.6,207.5c-111.7,111.7-204.4,202.6-206.9,202.6C3297.6,6466.1,3294.5,6461.1,3292.7,6455.6z"/>
		<path id="XMLID_210_" class="st2" d="M4385.7,7613.3c-1.7,0-223.5-218.2-491.9-485.4l-487.8-485.4l235.2-235.1
			c129.5-129.5,238.1-234.6,241-234c8.2,2.3,973.9,972.6,971,976.1C4822.7,7182.1,4388.6,7613.3,4385.7,7613.3z"/>
		<path id="XMLID_3_" class="st2" d="M5873.1,7437.3"/>
		<path id="XMLID_5_" class="st2" d="M4701.6,7643.7"/>
	</g>
	<path id="XMLID_1_" class="st3" d="M423.4,514.6H155.6c-18.6,0-33.6-15-33.6-33.6V135.1c0-18.6,15-33.6,33.6-33.6h267.8
		c18.6,0,33.6,15,33.6,33.6V481C457.1,499.6,442,514.6,423.4,514.6z"/>
	<path id="XMLID_2_" class="st2" d="M439,239.3c-0.2,0-22.3,21.8-49.2,48.5L341,336.4l23.5,23.5c13,13,23.8,23.5,24.1,23.4
		c0.8-0.2,97.4-97.3,97.1-97.6C482.7,282.4,439.3,239.3,439,239.3z"/>
</g>
<path id="XMLID_6_" class="st4" d="M509,235.6c-2.7-9.9-9.4-17.1-18.7-20c-5.4-1.7-12.4-1.7-17.1,0c-4.4,1.6-7.4,3.4-10.6,6.4
	c-3.1,2.9-4.8,2.7,1.4,9.3c0,0,0,0,0,0c0,0,0,0,0,0c1.2,1.3,2.7,2.8,4.6,4.7c2.4-0.1,2.4-0.1,0,0c2.5,2.5,5.7,5.7,9.6,9.6
	c10.6,10.6,19.6,19.3,20,19.3c0.9,0,5.4-5,7.7-8.5C509.6,250.5,510.8,242.3,509,235.6z"/>
</svg>
