<?xml version="1.0" encoding="UTF-8" standalone="no"?>
<!-- Created with Inkscape (http://www.inkscape.org/) -->

<svg
   xmlns:dc="http://purl.org/dc/elements/1.1/"
   xmlns:cc="http://creativecommons.org/ns#"
   xmlns:rdf="http://www.w3.org/1999/02/22-rdf-syntax-ns#"
   xmlns:svg="http://www.w3.org/2000/svg"
   xmlns="http://www.w3.org/2000/svg"
   xmlns:sodipodi="http://sodipodi.sourceforge.net/DTD/sodipodi-0.dtd"
   xmlns:inkscape="http://www.inkscape.org/namespaces/inkscape"
   version="1.1"
   id="svg2"
   xml:space="preserve"
   width="800"
   height="800"
   viewBox="0 0 800 800"
   sodipodi:docname="icon-app-agua-floral.svg"
   inkscape:version="0.92.4 (5da689c313, 2019-01-14)"><metadata
     id="metadata8"><rdf:RDF><cc:Work
         rdf:about=""><dc:format>image/svg+xml</dc:format><dc:type
           rdf:resource="http://purl.org/dc/dcmitype/StillImage" /><dc:title></dc:title></cc:Work></rdf:RDF></metadata><defs
     id="defs6" /><sodipodi:namedview
     pagecolor="#ffffff"
     bordercolor="#666666"
     borderopacity="1"
     objecttolerance="10"
     gridtolerance="10"
     guidetolerance="10"
     inkscape:pageopacity="0"
     inkscape:pageshadow="2"
     inkscape:window-width="880"
     inkscape:window-height="480"
     id="namedview4"
     showgrid="false"
     inkscape:zoom="0.295"
     inkscape:cx="400"
     inkscape:cy="400"
     inkscape:window-x="54"
     inkscape:window-y="27"
     inkscape:window-maximized="0"
     inkscape:current-layer="g10" /><g
     id="g10"
     inkscape:groupmode="layer"
     inkscape:label="ink_ext_XXXXXX"
     transform="matrix(1.3333333,0,0,-1.3333333,0,800)"><g
       id="g12"
       transform="scale(0.1)"><path
         d="M 5977.09,3000 C 5977.09,1356.95 4645.14,25 3002.09,25 1359.04,25 27.0898,1356.95 27.0898,3000 c 0,1643.05 1331.9502,2975 2975.0002,2975 1643.05,0 2975,-1331.95 2975,-2975"
         style="fill:#257e3a;fill-opacity:1;fill-rule:nonzero;stroke:none"
         id="path14"
         inkscape:connector-curvature="0" /><path
         d="m 1764.73,2093.28 c 0,0 -68.69,-586.59 248.38,-903.67 227.24,-227.239 591.88,-258.95 782.12,-253.669 V 1675.8 c -31.7,58.11 -73.99,116.24 -126.84,169.1 -317.07,317.08 -903.66,248.38 -903.66,248.38"
         style="fill:#ffffff;fill-opacity:1;fill-rule:nonzero;stroke:none"
         id="path16"
         inkscape:connector-curvature="0" /><path
         d="m 3324.44,2046.93 c -58.21,-58.21 -98.97,-116.43 -133.87,-186.26 v -820.71 c 209.53,0 611.15,29.11 861.44,279.4 349.23,349.23 273.57,995.31 273.57,995.31 0,0 -646.08,87.32 -1001.14,-267.74"
         style="fill:#ffffff;fill-opacity:1;fill-rule:nonzero;stroke:none"
         id="path18"
         inkscape:connector-curvature="0" /><path
         d="m 3254.84,3618.74 c -337.58,-139.7 -733.39,23.28 -873.07,360.87 -139.7,337.6 23.28,733.39 360.86,873.09 343.41,139.69 733.41,-23.28 873.1,-360.88 139.68,-343.42 -23.3,-733.39 -360.89,-873.08 z m 1036.05,616.98 c 203.74,128.05 291.05,389.98 197.91,616.98 -93.12,227.01 -343.4,349.23 -576.22,296.84 52.39,232.83 -69.86,483.11 -296.85,576.24 -227,93.13 -488.94,5.81 -616.98,-197.9 -128.07,203.71 -389.99,291.03 -616.98,197.9 -227.01,-93.13 -349.24,-343.41 -296.85,-576.24 -232.84,52.39 -483.1,-69.84 -576.24,-296.84 -93.12,-227 -5.83,-488.93 197.9,-616.98 -203.73,-128.05 -291.02,-389.98 -197.9,-616.98 93.14,-232.82 343.4,-349.24 576.24,-296.85 -52.39,-232.82 69.84,-483.11 296.85,-576.23 128.05,-52.38 267.75,-46.58 384.15,0 29.1,11.63 58.2,29.11 87.31,46.55 V 382.512 c 0,-81.512 64.03,-145.524 145.52,-145.524 81.48,0 145.5,64.012 145.5,145.524 V 2792.21 c 133.88,-93.13 314.32,-116.41 471.48,-46.55 232.82,93.12 349.24,343.41 296.85,576.23 104.77,-23.29 209.53,-11.64 302.65,23.29 116.42,46.56 221.19,145.51 273.57,273.56 98.95,227 5.83,488.93 -197.91,616.98"
         style="fill:#ffffff;fill-opacity:1;fill-rule:nonzero;stroke:none"
         id="path20"
         inkscape:connector-curvature="0" /></g></g></svg>