<?xml version="1.0" encoding="UTF-8" standalone="no"?>
<!-- Created with Inkscape (http://www.inkscape.org/) -->

<svg
   xmlns:dc="http://purl.org/dc/elements/1.1/"
   xmlns:cc="http://creativecommons.org/ns#"
   xmlns:rdf="http://www.w3.org/1999/02/22-rdf-syntax-ns#"
   xmlns:svg="http://www.w3.org/2000/svg"
   xmlns="http://www.w3.org/2000/svg"
   xmlns:sodipodi="http://sodipodi.sourceforge.net/DTD/sodipodi-0.dtd"
   xmlns:inkscape="http://www.inkscape.org/namespaces/inkscape"
   version="1.1"
   id="svg2"
   xml:space="preserve"
   width="800"
   height="800"
   viewBox="0 0 800 800"
   sodipodi:docname="icon-app-argila.svg"
   inkscape:version="0.92.4 (5da689c313, 2019-01-14)"><metadata
     id="metadata8"><rdf:RDF><cc:Work
         rdf:about=""><dc:format>image/svg+xml</dc:format><dc:type
           rdf:resource="http://purl.org/dc/dcmitype/StillImage" /><dc:title></dc:title></cc:Work></rdf:RDF></metadata><defs
     id="defs6" /><sodipodi:namedview
     pagecolor="#ffffff"
     bordercolor="#666666"
     borderopacity="1"
     objecttolerance="10"
     gridtolerance="10"
     guidetolerance="10"
     inkscape:pageopacity="0"
     inkscape:pageshadow="2"
     inkscape:window-width="880"
     inkscape:window-height="480"
     id="namedview4"
     showgrid="false"
     inkscape:zoom="0.295"
     inkscape:cx="400"
     inkscape:cy="400"
     inkscape:window-x="54"
     inkscape:window-y="27"
     inkscape:window-maximized="0"
     inkscape:current-layer="g10" /><g
     id="g10"
     inkscape:groupmode="layer"
     inkscape:label="ink_ext_XXXXXX"
     transform="matrix(1.3333333,0,0,-1.3333333,0,800)"><g
       id="g12"
       transform="scale(0.1)"><path
         d="M 5981.08,3000 C 5981.08,1356.95 4649.13,25 3006.08,25 1363.04,25 31.0859,1356.95 31.0859,3000 c 0,1643.05 1331.9541,2975 2974.9941,2975 1643.05,0 2975,-1331.95 2975,-2975"
         style="fill:#257e3a;fill-opacity:1;fill-rule:nonzero;stroke:none"
         id="path14"
         inkscape:connector-curvature="0" /><path
         d="m 3513.16,3360.48 c 243.96,-388.72 625.4,-385 869.3,0 -349.83,-220.86 -519.44,-220.83 -869.3,0 z m -1875.94,41.68 c 243.96,-388.72 625.42,-385 869.31,0 -349.84,-220.86 -519.44,-220.83 -869.31,0 z M 3501.15,1519.87 c -117.32,-434.76 -884.96,-434.76 -1002.29,0 206.88,0 238.72,24.73 342.31,33.78 44.33,3.87 77.77,-20.07 158.85,-20.79 80.14,0.7 113.73,32.47 157.33,29.23 96.34,-7.15 141.02,-42.22 343.8,-42.22 z m -502.41,3956.86 c -1085.92,0 -2134.978,-1123.95 -1966.3,-2487.2 403.65,-3262.241 3489.9,-3314.35 3932.61,0 181.91,1361.55 -880.31,2487.2 -1966.31,2487.2 z m 955.74,-1291.85 c 409.94,0 742.24,-302.53 742.24,-675.78 0,-373.25 -332.29,-675.79 -742.24,-675.79 -409.97,0 -742.25,302.54 -742.25,675.79 0,373.25 332.28,675.78 742.25,675.78 z m -1908.89,16.69 c 409.94,0 742.26,-306.28 742.26,-684.14 0,-377.85 -332.32,-684.12 -742.26,-684.12 -409.92,0 -742.23,306.27 -742.23,684.12 -0.04,377.86 332.31,684.14 742.23,684.14"
         style="fill:#ffffff;fill-opacity:1;fill-rule:nonzero;stroke:none"
         id="path16"
         inkscape:connector-curvature="0" /><path
         d="m 2495.87,1515.86 c 72.25,-53.72 209.71,-139.39 399.97,-164.41 39.06,-5.13 75.55,-7.08 108.56,-7.08 70.06,0 124.43,8.78 154.18,14.53 171,33.06 290.52,113.33 351.02,160.61 l -6.15,7.88 c -59.78,-46.72 -177.9,-126.03 -346.77,-158.67 -29.36,-5.68 -83.04,-14.35 -152.28,-14.35 -32.62,0 -68.68,1.92 -107.25,7 -187.92,24.7 -323.85,109.37 -395.31,162.51 l -5.97,-8.02"
         style="fill:#ffffff;fill-opacity:1;fill-rule:nonzero;stroke:none"
         id="path18"
         inkscape:connector-curvature="0" /></g></g></svg>