<?xml version="1.0" encoding="utf-8"?>
<!-- Generator: Adobe Illustrator 19.0.0, SVG Export Plug-In . SVG Version: 6.00 Build 0)  -->
<svg version="1.1" id="Camada_1" xmlns="http://www.w3.org/2000/svg" xmlns:xlink="http://www.w3.org/1999/xlink" x="0px" y="0px"
	 viewBox="0 0 600 600" style="enable-background:new 0 0 600 600;" xml:space="preserve">
<style type="text/css">
	.st0{fill:#027935;}
	.st1{fill:#FFFFFF;}
</style>
<g id="XMLID_485_">
	<circle id="XMLID_486_" class="st0" cx="300" cy="298.5" r="297.5"/>
</g>
<g id="XMLID_471_">
	<path id="XMLID_472_" class="st1" d="M423.4,552.8H176.6c-3.7,0-7.2-1.8-9.1-4.9c-20.3-31.5-31.1-68.7-31.1-107.5
		c0-74.6,37.8-112.4,71.1-145.7c14.5-14.5,28.3-28.3,38.8-44.5V33c0-5.7,4.8-10.3,10.7-10.3h86c5.9,0,10.7,4.6,10.7,10.3v217.3
		c10.5,16.2,24.3,29.9,38.8,44.5c33.3,33.3,71.1,71.1,71.1,145.7c0,38.8-10.7,76-31.1,107.5C430.6,551,427.2,552.8,423.4,552.8z
		 M193.2,523.3h218.4c14.9-25.2,23.1-55.4,23.1-85.8c0-62-29.4-91.5-60.6-122.8c-14.3-14.4-29.2-29.3-40.3-47.2
		c-0.9-1.5-1.4-3.2-1.4-4.9v-196h-60.1v196c0,1.7-0.5,3.4-1.4,4.9c-11.1,17.9-25.9,32.8-40.3,47.2c-31.2,31.3-60.6,60.8-60.6,122.8
		C170,467.9,178.2,498.2,193.2,523.3z"/>
</g>
<g id="XMLID_469_">
	<path id="XMLID_385_" class="st1" d="M340.5,103.8h-81.1c-1.1,0-2-0.9-2-2c0-1.1,0.9-2,2-2h81.1c1.1,0,2,0.9,2,2
		C342.5,102.9,341.6,103.8,340.5,103.8z"/>
</g>
<g id="XMLID_331_">
	<path id="XMLID_458_" class="st1" d="M321.8,330.6c-4.6-8-11.2-14.6-19-19.4c-1.7-1-3.9-1-5.6,0c-7.8,4.7-14.4,11.4-19,19.4
		c-4.7,8.2-7.2,17.5-7.2,27c0,2.2,0.2,4.5,0.4,6.8h0c0.1,0.4,0.1,0.7,0.1,1c0,0,0.1,0.9,0.1,0.9v0c0,0,0,0,0,0.1
		c0.8,4.7,2.7,8.9,5.5,12.5c0.1,0.2,0.3,0.4,0.4,0.5c0,0,0,0,0,0c0,0,0.1,0.1,0.1,0.1c0,0,0,0,0,0c1.1,1.3,2.5,2.4,4.1,3.1
		c1.6,0.8,3.3,1.2,5.2,1.2c1.5,0,2.9-0.3,4.2-0.8c4.6-1.7,7.9-6,8-11.1c0-0.2,0-0.4,0-0.6c0-0.9-0.1-1.9-0.3-2.7
		c-0.7-4.1-2.3-8.1-4.8-11.7c0,0,0,0,0-0.1l-0.1-0.1c-0.1-0.1-0.5-0.6-0.5-0.7c-1.6-2.1-3.3-4.1-5.1-5.9c-0.6-0.6-1.1-1.1-1.7-1.6
		c-0.7,2.9-1,5.9-1,8.9c0,1.8,0.1,3.7,0.4,5.6c0,0,0,0,0,0v0.1c0,0.1,0.1,0.2,0.1,0.3c0,0.1,0,0.1,0,0.2c0,0,0,0,0,0
		c0,0,0,0.1,0,0.1c0.1,0.7,0.3,1.4,0.6,2.1c0,0,0,0,0,0.1c0.2,0.5,0.4,1,0.6,1.5c0.4,1,0.6,2,0.8,3.1c0.1,0.3,0.1,0.5,0.1,0.8v0.1
		c0,0.7-0.6,1.3-1.3,1.4c0,0-0.1,0-0.1,0h-0.2c-0.4,0-0.7-0.2-0.9-0.5c-0.6-0.7-1.1-1.6-1.6-2.4v0c-0.5-0.9-0.9-1.8-1.2-2.7h0
		c-0.3-0.9-0.6-1.8-0.7-2.8l0-0.1v-0.1l0-0.1h0l-0.1-0.4l0-0.1c-0.3-2.1-0.5-4.2-0.5-6.3c0-7.6,2-15.1,5.8-21.6c1.2-2,2.5-4,4-5.8
		c0.1-0.1,0.2-0.2,0.3-0.3c0.2-0.2,0.4-0.4,0.5-0.6c0.2-0.2,0.4-0.4,0.5-0.6c0,0,0.1-0.1,0.1-0.1c0.1-0.1,0.1-0.1,0.2-0.2
		c0.4-0.5,0.9-1,1.3-1.4c0.6-0.6,1.2-1.1,1.8-1.6c0.1-0.1,0.2-0.2,0.4-0.3c0.3-0.2,0.5-0.5,0.8-0.7c0.3-0.2,0.6-0.5,0.9-0.7
		c0.1-0.1,0.2-0.2,0.3-0.3c0.4-0.3,0.8-0.6,1.3-0.9c0.8,0.6,1.6,1.2,2.3,1.8v0c4,3.3,7.5,7.3,10.1,11.9c0.7,1.2,1.3,2.4,1.9,3.6
		c0.1,0.1,0.1,0.2,0.2,0.3c0.1,0.3,0.3,0.6,0.4,0.9c0.1,0.2,0.2,0.4,0.2,0.6c0.1,0.2,0.1,0.3,0.2,0.5c0.1,0.1,0.1,0.2,0.2,0.4
		c0,0,0,0.1,0,0.1c0,0.1,0,0.1,0.1,0.1c0.1,0.2,0.2,0.5,0.3,0.7c0,0.1,0.1,0.2,0.1,0.2c0,0.1,0,0.1,0,0.2c0.1,0.2,0.1,0.3,0.2,0.5
		c0.1,0.2,0.2,0.5,0.2,0.8c0,0.2,0.1,0.4,0.2,0.6c0,0.2,0.1,0.3,0.1,0.5v0c1,3.8,1.6,7.7,1.6,11.7c0,0.7,0,1.5-0.1,2.2
		c0,0.2,0,0.3,0,0.5c0,0,0,0.1,0,0.1c0,0.2,0,0.4,0,0.6c0,0.3-0.1,0.6-0.1,0.9c0,0.2,0,0.5-0.1,0.7c0,0.2-0.1,0.4-0.1,0.6
		c0,0.2-0.1,0.4-0.1,0.5v0.1l-0.1,0.4l0,0.1v0l0,0.1c-0.5,3-1.8,5.8-3.6,8c0,0-0.1,0.1-0.1,0.1c-0.1,0.1-0.2,0.1-0.3,0.2
		c-0.5,0.3-1.3,0.3-1.7-0.2c0-0.1-0.1-0.1-0.1-0.1c-0.2-0.3-0.3-0.7-0.3-1c0.1-0.7,0.2-1.4,0.3-2.1c0,0,0,0,0-0.1
		c0-0.2,0.1-0.5,0.2-0.7l0,0c0.2-0.6,0.4-1.3,0.7-1.9v0c0.1-0.2,0.2-0.5,0.3-0.7c0.3-0.7,0.5-1.4,0.6-2.2c0,0,0,0,0,0
		c0-0.1,0-0.2,0.1-0.2l0.1-0.6c0-0.1,0-0.2,0-0.2c0-0.2,0.1-0.3,0.1-0.5c0-0.3,0.1-0.4,0.1-0.5l0.1-0.9c0-0.2,0-0.3,0-0.5
		c0,0,0-0.1,0-0.2v-0.3c0-0.1,0-0.1,0-0.2c0-0.7,0.1-1.3,0.1-2c0-3-0.3-6-1-8.9c-0.6,0.5-1.1,1-1.7,1.6c-1.8,1.9-3.6,3.8-5.1,5.9
		c0,0-0.3,0.5-0.5,0.7l-0.1,0.1c0,0,0,0,0,0c-2.9,4.1-4.6,8.7-5.1,13.4v0c0,0.1,0,0.1,0,0.2v0c0,0.3,0,0.7,0,1
		c0,3.2,1.2,6.3,3.6,8.7c1,1.1,2.3,1.9,3.5,2.5c4.4,2.1,9.9,1.3,13.6-2.2c0.1-0.1,0.2-0.2,0.4-0.4c0.5-0.5,1-1.1,1.5-1.7
		c0.1-0.1,0.2-0.3,0.3-0.4c2.4-3.4,4.1-7.4,4.8-11.7c0,0,0,0,0-0.1l0-0.1c0-0.2,0.1-0.8,0.1-0.8c0.1-0.3,0.1-0.7,0.1-1
		c0.3-2.2,0.4-4.5,0.4-6.8C329.1,348.2,326.6,338.8,321.8,330.6z M391.9,400.3c-4.7-7.8-11.4-14.4-19.4-19c-8.2-4.7-17.5-7.2-27-7.2
		c-2.2,0-4.5,0.1-6.8,0.4v0c-0.4,0.1-0.7,0.1-1,0.1h0c0,0-0.7,0.1-0.9,0.1l-0.1,0c0,0,0,0-0.1,0c-4.5,0.8-8.5,2.5-12,5.1
		c-0.4,0.2-0.7,0.5-1.1,0.8l0,0c-0.1,0-0.1,0.1-0.2,0.1c-1.3,1.1-2.4,2.5-3.2,4.1c-0.7,1.6-1.2,3.4-1.2,5.2c0,1.5,0.2,2.9,0.7,4.2
		c1.7,4.6,6,7.9,11.2,8.1h0.5c0.9,0,1.8-0.1,2.7-0.3c4.1-0.7,8.1-2.3,11.7-4.8c0,0,0,0,0,0l0.1,0c0,0,0.7-0.5,0.7-0.5
		c2.1-1.6,4.1-3.3,5.9-5.1c0.5-0.5,1.1-1.1,1.6-1.6c-4.7-1.1-9.6-1.3-14.4-0.6c-0.1,0-0.1,0-0.2,0l-0.1,0c-0.1,0-0.1,0-0.2,0
		c-0.1,0-0.1,0-0.2,0c-0.4,0.1-0.9,0.2-1.3,0.3c-0.2,0-0.3,0.1-0.5,0.1c-1.9,0.9-3.9,1.5-5.9,1.8h-0.1c-0.8,0-1.4-0.6-1.4-1.4v-0.2
		c0.1-0.4,0.2-0.7,0.5-0.9c0.7-0.6,1.4-1.1,2.2-1.5c0.1-0.1,0.1-0.1,0.2-0.1h0c0.9-0.5,1.8-0.9,2.7-1.2v0c0.9-0.3,1.9-0.6,2.9-0.8h0
		l0.1,0l0.1,0l0.4-0.1l0,0c2.1-0.3,4.2-0.5,6.3-0.5c7.6,0,15.1,2,21.6,5.8c0.8,0.5,1.6,1,2.4,1.5c0,0,0,0,0.1,0
		c0.4,0.2,0.7,0.5,1.1,0.7c0,0,0.1,0.1,0.1,0.1c0.3,0.2,0.7,0.5,1,0.7c0,0,0,0.1,0.1,0.1c0.4,0.3,0.7,0.5,1,0.8
		c0.2,0.1,0.3,0.3,0.5,0.4c0.2,0.1,0.3,0.3,0.4,0.4c0.2,0.2,0.5,0.4,0.7,0.6c0.1,0.1,0.2,0.1,0.2,0.2c0.5,0.4,1,0.9,1.4,1.4
		c0.6,0.6,1.1,1.1,1.6,1.7c0.1,0.2,0.3,0.3,0.4,0.5c0.2,0.2,0.4,0.4,0.5,0.6c0.3,0.4,0.6,0.8,0.9,1.1c0,0.1,0.1,0.2,0.2,0.2
		c0.3,0.5,0.7,0.9,1,1.4c-0.6,0.8-1.2,1.6-1.8,2.3c0,0,0,0.1-0.1,0.1c-0.2,0.2-0.3,0.4-0.5,0.6c0,0-0.1,0.1-0.1,0.2
		c-0.8,0.9-1.7,1.9-2.6,2.7c0,0,0,0,0,0c-0.2,0.2-0.4,0.4-0.6,0.6c0,0-0.1,0.1-0.1,0.1c-0.2,0.2-0.4,0.4-0.6,0.5
		c0,0.1-0.1,0.1-0.1,0.2c-0.2,0.2-0.4,0.4-0.6,0.5c0,0-0.1,0.1-0.1,0.1c-0.7,0.6-1.4,1.2-2.1,1.7c0,0-0.1,0-0.1,0.1
		c-0.2,0.1-0.4,0.3-0.7,0.5c-0.1,0.1-0.1,0.1-0.2,0.2c-0.2,0.1-0.4,0.3-0.6,0.4c-0.1,0.1-0.1,0.1-0.2,0.2c-0.2,0.1-0.4,0.3-0.6,0.4
		c-0.1,0-0.1,0.1-0.2,0.1c-0.5,0.3-1,0.6-1.6,0.9c-6.5,3.8-14,5.8-21.6,5.8c-2.1,0-4.2-0.2-6.3-0.5l0,0l-0.4,0v0l-0.1,0h-0.1
		c0,0,0,0,0,0c-3-0.6-5.8-1.8-8-3.6c0,0-0.1-0.1-0.1-0.1c-0.2-0.2-0.3-0.5-0.4-0.7c-0.1-0.4,0.1-0.9,0.4-1.3c0,0,0.1-0.1,0.1-0.1
		c0.3-0.2,0.6-0.3,1-0.3c0.4,0,0.8,0.1,1.1,0.2c0,0,0,0,0,0c0.5,0.1,1.1,0.2,1.6,0.4v0c0.4,0.1,0.9,0.3,1.3,0.4
		c0.5,0.2,0.9,0.4,1.4,0.6c0,0,0.1,0,0.1,0c0.7,0.2,1.4,0.4,2.1,0.5c0.1,0,0.2,0,0.3,0.1c0,0,0,0,0,0h0.1c0.1,0,0.2,0,0.3,0
		c1.9,0.3,3.8,0.4,5.6,0.4c3,0,6-0.3,8.9-1c-0.5-0.6-1-1.2-1.6-1.7c-1.8-1.8-3.8-3.6-5.9-5.1c0,0-0.5-0.4-0.7-0.5L346,409
		c0,0,0,0-0.1,0c-4.1-2.9-8.7-4.6-13.4-5.1c0,0,0,0,0,0c-0.1,0-0.1,0-0.2,0h0c-0.3,0-0.7,0-1,0c-3.1,0-6.3,1.2-8.7,3.6
		c-1,1-1.9,2.2-2.5,3.5c-2.1,4.4-1.3,9.8,2.2,13.6c0.1,0.1,0.2,0.3,0.4,0.4c0.2,0.2,0.5,0.5,0.7,0.6c0.4,0.4,0.9,0.8,1.4,1.1
		c3.4,2.4,7.4,4.1,11.7,4.8c0,0,0,0,0.1,0l0.1,0c0.2,0,0.8,0.1,0.8,0.1c0.3,0,0.7,0.1,1,0.1c2.2,0.3,4.5,0.4,6.8,0.4
		c1.7,0,3.5-0.1,5.2-0.3c0.1,0,0.3,0,0.4,0c7.5-0.8,14.8-3.2,21.4-7c8-4.6,14.6-11.2,19.4-19C392.9,404.2,392.9,402,391.9,400.3z
		 M328.6,441.8L328.6,441.8c0-0.3-0.1-0.7-0.1-1c0,0,0,0,0,0c0,0-0.1-0.6-0.1-0.8l0-0.1c0,0,0,0,0-0.1c-0.8-4.8-2.9-9.2-5.7-12.8
		c0-0.1-0.1-0.1-0.2-0.2c0,0,0,0,0,0c-0.1-0.1-0.1-0.1-0.1-0.2h0c0,0,0,0,0,0c-2.3-2.6-5.6-4.3-9.3-4.3c-1.5,0-2.9,0.3-4.2,0.7
		c-4.6,1.7-7.9,6-8,11.2c0,0.2,0,0.4,0,0.6c0,0.9,0.1,1.9,0.3,2.7c0.7,4.1,2.3,8.1,4.8,11.7c0,0,0,0,0,0.1l0,0c0,0,0,0,0,0
		c0,0,0,0,0,0c0.1,0.2,0.5,0.6,0.5,0.6c1.6,2.1,3.3,4.1,5.1,5.9c0.6,0.6,1.1,1.1,1.7,1.6c0.6-2.9,1-5.9,1-8.8c0-1.8-0.1-3.7-0.4-5.7
		l0,0c0,0,0,0,0,0c-0.1-0.2-0.1-0.4-0.1-0.6c0,0,0-0.1,0-0.1c-0.1-0.7-0.3-1.4-0.6-2.1c0,0,0,0,0-0.1c-0.8-1.7-1.3-3.6-1.5-5.4v-0.1
		c0-0.8,0.6-1.4,1.4-1.4c0.1,0,0.1,0,0.2,0c0.3,0,0.7,0.2,0.9,0.5c0.1,0.2,0.3,0.4,0.4,0.6c0.4,0.6,0.8,1.2,1.2,1.8l0,0
		c0.5,0.9,0.9,1.8,1.3,2.7h0c0.3,0.9,0.6,1.9,0.8,2.9v0l0,0.1l0,0.1h0l0.1,0.4v0.1c0.3,2.1,0.5,4.2,0.5,6.3c0,7.6-2,15.1-5.8,21.6
		c-3.1,5.4-7.4,10-12.4,13.6c-0.8-0.6-1.6-1.2-2.4-1.8c0,0,0,0,0,0c-0.2-0.2-0.5-0.4-0.7-0.6c0,0,0,0,0,0c-1-0.8-1.9-1.7-2.8-2.6
		c0,0-0.1,0-0.1-0.1c-0.2-0.2-0.4-0.4-0.5-0.6c-0.1-0.1-0.1-0.1-0.2-0.2c-0.1-0.2-0.3-0.4-0.5-0.5c-0.1-0.1-0.2-0.2-0.2-0.3
		c-0.1-0.1-0.3-0.3-0.4-0.5c-0.1-0.1-0.2-0.2-0.3-0.3c-0.1-0.2-0.3-0.3-0.4-0.4c-0.2-0.3-0.4-0.5-0.7-0.8c0-0.1-0.1-0.2-0.2-0.3
		c-0.2-0.2-0.3-0.4-0.4-0.6c-0.1-0.1-0.2-0.2-0.2-0.3c-0.1-0.2-0.3-0.4-0.4-0.6c-0.1-0.1-0.2-0.2-0.2-0.3c-0.2-0.2-0.3-0.4-0.4-0.6
		c-0.1-0.1-0.1-0.2-0.2-0.3c-0.2-0.2-0.3-0.5-0.5-0.7c0-0.1-0.1-0.1-0.1-0.2c-0.2-0.3-0.4-0.6-0.6-0.9c0-0.1-0.1-0.1-0.1-0.2
		c-0.2-0.4-0.4-0.8-0.6-1.2c-0.1-0.1-0.2-0.3-0.2-0.4c-0.2-0.3-0.4-0.7-0.5-1c0-0.1-0.1-0.2-0.2-0.4c-0.2-0.4-0.4-0.8-0.5-1.2
		c0-0.1-0.1-0.1-0.1-0.2c-0.7-1.7-1.4-3.5-1.9-5.4v0c-1.1-3.8-1.6-7.7-1.6-11.7c0-0.7,0-1.4,0.1-2c0-0.3,0-0.6,0.1-0.9
		c0-0.2,0-0.4,0.1-0.6c0-0.3,0-0.5,0.1-0.8c0-0.2,0-0.4,0.1-0.6c0-0.3,0.1-0.7,0.1-1.1c0-0.1,0-0.2,0-0.3l0-0.1l0.1-0.4v-0.1l0,0v0
		c0.4-2.4,1.3-4.6,2.6-6.6c0.3-0.5,0.6-1,1-1.4c0-0.1,0.1-0.1,0.1-0.1c0.5-0.5,1.4-0.5,2,0c0,0,0.1,0.1,0.1,0.1
		c0.2,0.3,0.3,0.6,0.3,1c-0.1,0.9-0.3,1.9-0.6,2.8l0,0c-0.2,0.8-0.5,1.7-0.9,2.5c0,0.1,0,0.2-0.1,0.2c-0.3,0.8-0.5,1.5-0.6,2.1
		c0,0,0,0.1,0,0.1c0,0,0,0,0,0l0,0.4c0,0,0,0.1,0,0.1c0,0.1,0,0.2,0,0.3c0,0.3-0.1,0.6-0.1,0.9l-0.1,0.5c0,0.2,0,0.4-0.1,0.6
		c0,0.1,0,0.3,0,0.4l0,0.4c0,0.2,0,0.4,0,0.6c0,0.8,0,1.4,0,2c0,3,0.3,6,1,8.9c0.6-0.5,1.1-1.1,1.7-1.6c1.8-1.8,3.5-3.8,5.1-5.9
		c0,0,0.3-0.5,0.5-0.6l0.1-0.1c0,0,0,0,0-0.1c2.9-4.1,4.5-8.7,5.1-13.4v0c0-0.1,0-0.2,0-0.2c0,0,0,0,0,0c0-0.3,0-0.7,0-1
		c0-3.1-1.2-6.3-3.6-8.7c-1-1-2.2-1.9-3.5-2.4c-4.4-2.1-9.9-1.3-13.6,2.2c-0.1,0.1-0.3,0.2-0.4,0.4c-0.6,0.6-1,1.1-1.4,1.8
		c-0.1,0.1-0.2,0.3-0.3,0.4c-2.4,3.4-4.1,7.3-4.9,11.7c0,0,0,0,0,0v0.1c0,0-0.1,0.8-0.1,0.9c-0.1,0.4-0.1,0.7-0.1,1.1h0
		c-0.3,2.2-0.4,4.5-0.4,6.8c0,9.5,2.5,18.9,7.2,27c4.6,7.9,11.2,14.6,19,19.4c0.1,0.1,0.2,0.1,0.3,0.2c0.1,0,0.1,0.1,0.1,0.1
		c0.1,0,0.2,0.1,0.2,0.1c0,0,0,0,0,0c0.1,0,0.2,0.1,0.3,0.1c0,0,0,0,0,0c0.1,0,0.2,0.1,0.3,0.1c0.2,0.1,0.4,0.1,0.6,0.1c0,0,0,0,0,0
		c0.1,0,0.2,0,0.3,0h0.1c0.1,0,0.2,0,0.2,0c0.1,0,0.1,0,0.2,0c0,0,0,0,0,0c1,0,1.9-0.2,2.8-0.8c7.8-4.7,14.4-11.4,19-19.4
		c4.7-8.2,7.2-17.5,7.2-27C329.1,446.3,328.9,444,328.6,441.8z M269,403.8c-0.2,0-0.4,0-0.6,0c-0.9,0-1.8,0.1-2.7,0.3
		c-4.1,0.7-8.1,2.3-11.7,4.8c0,0,0,0-0.1,0l0,0l-0.1,0c-0.2,0.1-0.6,0.5-0.7,0.5c-2.1,1.5-4.1,3.3-5.9,5.1c-0.6,0.5-1.1,1.1-1.6,1.7
		c2.9,0.7,5.9,1,8.9,1c1.8,0,3.7-0.1,5.6-0.4c0,0,0.1,0,0.1,0c0.1,0,0.1,0,0.2,0c0.1,0,0.3-0.1,0.4-0.1c0.7-0.1,1.4-0.3,2.1-0.6
		c0,0,0.1,0,0.1,0c0.3-0.1,0.5-0.2,0.8-0.3c0.1,0,0.1-0.1,0.2-0.1c0.1-0.1,0.3-0.1,0.4-0.2c1.3-0.5,2.6-0.8,4-1c0,0,0.1,0,0.1,0
		c0.8,0,1.4,0.6,1.4,1.4c0,0.1,0,0.1,0,0.1c0,0.4-0.2,0.7-0.5,0.9c-0.2,0.1-0.3,0.2-0.5,0.3c-0.6,0.5-1.3,0.9-1.9,1.3h0
		c-0.9,0.5-1.8,0.9-2.7,1.2v0c-0.9,0.3-1.9,0.6-2.9,0.8h0l-0.1,0l-0.1,0v0.1l-0.4,0l-0.1,0c-2.1,0.3-4.2,0.5-6.3,0.5
		c-7.6,0-15.1-2-21.6-5.8c-5.4-3.1-10.1-7.4-13.6-12.4c0.6-0.8,1.2-1.6,1.8-2.4h0c3.3-4,7.3-7.5,11.8-10.1c1.9-1.1,3.9-2.1,6-2.9
		c0.1,0,0.2-0.1,0.3-0.1c0.3-0.1,0.6-0.2,1-0.4c0,0,0.1,0,0.2-0.1c0.8-0.3,1.6-0.5,2.5-0.8c3.8-1.1,7.7-1.6,11.7-1.6
		c0.5,0,1.1,0,1.6,0h0.1c1.5,0.1,3,0.2,4.6,0.4h0l0.5,0.1h0l0.1,0h0c2.1,0.4,4,1.1,5.7,2.1c0.8,0.5,1.6,1,2.3,1.5
		c0,0,0.1,0.1,0.1,0.1c0.5,0.6,0.5,1.5,0,2c0,0-0.1,0.1-0.1,0.1c-0.3,0.2-0.7,0.3-1,0.3c-0.9-0.1-1.9-0.3-2.8-0.6l0,0
		c-0.9-0.3-1.9-0.6-2.8-1.1c-0.1,0-0.1-0.1-0.2-0.1c0,0,0,0,0,0c-0.2,0-0.4-0.1-0.5-0.1c-0.4-0.1-0.8-0.2-1.2-0.3
		c-0.1,0-0.2,0-0.3-0.1c0,0,0,0,0,0l-0.2,0c-0.1,0-0.2,0-0.2,0c-1.3-0.2-2.7-0.3-4.2-0.4c-0.6,0-1,0-1.5,0c-3,0-6,0.3-8.9,1
		c0.5,0.6,1,1.1,1.6,1.7c1.8,1.8,3.8,3.5,5.9,5.1h0c0,0,0.5,0.4,0.7,0.5l0,0c0,0,0,0,0,0l0.1,0c0,0,0,0,0.1,0
		c4.1,2.9,8.7,4.6,13.3,5.1c0,0,0,0,0,0c0.1,0,0.1,0,0.2,0c0.3,0,0.7,0,1,0c3.1,0,6.3-1.2,8.7-3.6c1.1-1.1,1.9-2.2,2.4-3.5
		c2.1-4.4,1.4-9.9-2.2-13.6c-0.1-0.1-0.3-0.2-0.4-0.4c-0.6-0.6-1.2-1.1-1.8-1.5c-0.1-0.1-0.2-0.2-0.4-0.2c-3.4-2.4-7.3-4.1-11.7-4.8
		c0,0,0,0,0,0l-0.1,0c0,0-0.8-0.1-0.9-0.1c-0.4-0.1-0.7-0.1-1.1-0.2v0c-2.2-0.3-4.5-0.4-6.8-0.4c-9.5,0-18.9,2.5-27,7.2
		c-8,4.6-14.6,11.2-19.4,19c-1,1.7-1,3.9,0,5.6c4.7,7.9,11.4,14.5,19.4,19c8.2,4.7,17.5,7.2,27,7.2c2.2,0,4.5-0.1,6.8-0.4v0
		c0.3,0,0.7-0.1,1-0.1c0.1,0,0.6-0.1,0.8-0.1l0.1,0c0,0,0,0,0.1,0c4.4-0.8,8.5-2.5,11.9-5c0.4-0.3,0.7-0.5,1.1-0.8v0h0
		c0.1-0.1,0.1-0.1,0.2-0.1c0,0,0,0,0,0v0c2.6-2.2,4.3-5.6,4.3-9.3c0-1.5-0.3-2.9-0.8-4.2C278.5,407.3,274.1,404,269,403.8z
		 M366.9,340.1c0-0.2-0.1-0.4-0.2-0.5c0-0.1,0-0.1-0.1-0.2c0,0,0-0.1,0-0.1c0-0.1-0.1-0.2-0.1-0.3c0,0,0,0,0,0
		c-0.1-0.1-0.1-0.2-0.2-0.3l0,0c-0.2-0.4-0.5-0.7-0.8-1c0,0,0-0.1-0.1-0.1c0,0-0.1-0.1-0.1-0.1c-0.1-0.1-0.1-0.1-0.2-0.2
		c0,0,0,0,0,0c-0.6-0.6-1.4-1-2.3-1.2c-8.9-2.2-18.3-2.2-27.2,0.2c-2.1,0.5-4.1,1.2-6.1,2c1.2,3.5,2.1,7.1,2.7,10.8
		c0.1-0.1,0.2-0.1,0.3-0.1v0c1.9-0.8,3.9-1.6,6-2.1c3.7-1,7.5-1.5,11.3-1.5c2.4,0,4.8,0.2,7.2,0.6c0.2,1,0.3,2,0.4,2.9l0,0
		c0.5,5.2,0.1,10.5-1.3,15.5c-0.6,2.1-1.3,4.2-2.2,6.2c0,0,0,0.1,0,0.1c3.6,0.5,7.2,1.4,10.7,2.6c0.8-2,1.5-4,2-6.1
		C369.1,358.4,369.2,349,366.9,340.1z M267.6,457.1c-0.1,0-0.2,0.1-0.3,0.1c-1.9,0.8-3.9,1.5-6,2.1c-3.7,1-7.5,1.5-11.2,1.5
		c-2.4,0-4.8-0.2-7.2-0.6c-0.2-1-0.3-1.9-0.4-2.9l0,0c-0.5-5.2-0.1-10.5,1.2-15.5c0.6-2.1,1.3-4.2,2.2-6.2c0,0,0,0,0,0
		c-3.6-0.5-7.2-1.4-10.7-2.6c-0.8,2-1.5,4-2,6.1c-2.4,8.9-2.5,18.3-0.2,27.2c0,0.2,0.1,0.4,0.1,0.5c0,0.1,0,0.1,0.1,0.1
		c0,0,0,0.1,0,0.1c0,0.1,0.1,0.2,0.1,0.3c0,0,0,0,0,0c0,0.1,0.1,0.2,0.2,0.3l0,0c0.2,0.4,0.5,0.7,0.8,1c0,0,0,0.1,0.1,0.1
		c0,0,0,0.1,0.1,0.1c0.1,0.1,0.1,0.1,0.2,0.2c0,0,0,0,0,0c0.6,0.6,1.4,1,2.3,1.2c8.9,2.2,18.3,2.1,27.1-0.2c2.1-0.6,4.1-1.3,6.1-2.1
		C269.1,464.3,268.2,460.7,267.6,457.1z M366.7,438.9c-0.6-2.1-1.2-4.1-2-6.1c-3.5,1.2-7.1,2.1-10.7,2.6c0.1,0.1,0.1,0.2,0.1,0.3h0
		c0.8,1.9,1.5,3.9,2.1,6c1,3.7,1.5,7.5,1.5,11.3c0,2.4-0.2,4.8-0.6,7.2c-1,0.2-1.9,0.3-2.9,0.4v0c-5.2,0.5-10.4,0.1-15.5-1.3
		c-2.1-0.6-4.2-1.3-6.2-2.2c0,0-0.1,0-0.1,0c-0.5,3.6-1.4,7.2-2.6,10.7c2,0.8,4,1.5,6.1,2.1c8.9,2.4,18.2,2.4,27.2,0.2
		c0.2,0,0.4-0.1,0.5-0.2c0.1,0,0.1,0,0.2,0c0,0,0.1,0,0.1,0c0.1,0,0.2-0.1,0.3-0.1c0,0,0,0,0,0c0.1,0,0.2-0.1,0.3-0.1
		c0.4-0.2,0.7-0.5,1-0.8c0,0,0.1-0.1,0.1-0.1c0,0,0.1-0.1,0.1-0.1c0.1-0.1,0.1-0.1,0.2-0.2c0.6-0.6,1-1.4,1.2-2.3
		C369.2,457.2,369.1,447.8,366.7,438.9z M264.2,336.4c-8.9-2.4-18.2-2.4-27.1-0.2c-0.2,0.1-0.4,0.1-0.5,0.2c-0.1,0-0.1,0.1-0.2,0.1
		c0,0,0,0-0.1,0c-0.1,0.1-0.2,0.1-0.2,0.1c0,0,0,0-0.1,0c-0.1,0.1-0.2,0.1-0.3,0.2h0c-0.4,0.2-0.7,0.5-1,0.8c0,0-0.1,0-0.1,0.1
		c0,0,0,0.1-0.1,0.1c-0.1,0.1-0.1,0.1-0.2,0.2c-0.6,0.6-1,1.4-1.2,2.3c-2.2,8.9-2.1,18.3,0.2,27.2c0.5,2.1,1.2,4.1,2,6.1
		c3.5-1.2,7.1-2.1,10.7-2.6c-0.1-0.1-0.1-0.2-0.1-0.3h0c-0.8-1.9-1.5-3.9-2.1-6c-1-3.7-1.5-7.5-1.5-11.2c0-2.4,0.2-4.8,0.6-7.2
		c1-0.2,1.9-0.3,2.9-0.4c5.2-0.5,10.4-0.1,15.5,1.2c2.1,0.6,4.2,1.3,6.2,2.2c0,0,0,0,0,0c0.5-3.6,1.4-7.2,2.7-10.7
		C268.3,337.6,266.3,337,264.2,336.4z M306.5,356.3L306.5,356.3L306.5,356.3L306.5,356.3z"/>
	<path id="XMLID_440_" class="st1" d="M300.1,496.3l-0.2,0c0,0-0.1,0-0.1,0c-0.1,0-0.2,0-0.3,0c-0.1,0-0.2,0-0.4,0l0,0
		c-0.1,0-0.3-0.1-0.4-0.1l-0.2,0c-0.1,0-0.3-0.1-0.4-0.1l-0.1,0c-0.1,0-0.2-0.1-0.3-0.1l-0.2-0.1c0,0-0.1,0-0.1,0
		c-0.1-0.1-0.2-0.1-0.3-0.1c0,0,0,0-0.1,0l-0.1-0.1c-8-4.8-14.6-11.6-19.2-19.6c-4.8-8.3-7.3-17.7-7.3-27.3c0-2,0.1-4.1,0.4-6.3h0
		l0.1-0.9c0-0.3,0.1-0.5,0.1-0.8c0,0,0,0,0.1-0.8c0-0.1,0-0.1,0-0.2c0.8-4.3,2.4-8.3,4.9-11.8c0.1-0.1,0.2-0.3,0.3-0.4
		c0.4-0.6,0.9-1.2,1.5-1.8c0-0.1,0.1-0.1,0.2-0.2c0,0,0.1-0.1,0.1-0.1c2.4-2.3,5.5-3.5,8.8-3.5c1.9,0,3.7,0.4,5.4,1.2
		c1.3,0.6,2.5,1.4,3.6,2.5c2.4,2.4,3.7,5.6,3.7,9c0,0.3,0,0.5,0,0.8l0,0.3c0,0.1,0,0.2,0,0.2c-0.5,4.9-2.3,9.5-5.1,13.6v0l-0.2,0.2
		c-0.1,0.2-0.4,0.5-0.4,0.6c-1.6,2.1-3.3,4.1-5.2,6c-0.6,0.5-1.1,1.1-1.7,1.6l-0.6,0.6l-0.2-0.8c-0.7-2.9-1-5.9-1-9c0-0.6,0-1.2,0-2
		c0-0.1,0-0.2,0-0.3c0-0.1,0-0.2,0-0.2l0-0.5c0-0.2,0-0.3,0-0.4l0.1-1.2c0-0.2,0-0.5,0.1-0.7l0-0.2c0,0,0,0,0-0.1l0-0.1
		c0,0,0-0.1,0-0.2l0.1-0.4c0.1-0.7,0.3-1.4,0.6-2.3v-0.1l0.1-0.2c0.4-0.9,0.7-1.7,0.9-2.4l0.1-0.2c0.2-0.9,0.4-1.7,0.5-2.5
		c0-0.2,0-0.5-0.2-0.6l0,0l-0.1-0.1c-0.3-0.3-0.9-0.3-1.3,0c-0.4,0.5-0.7,1-1,1.5c-1.3,2-2.1,4.1-2.5,6.4l0,0.2l-0.1,0.5
		c0,0,0,0.1,0,0.1l0,0.2c-0.1,0.3-0.1,0.7-0.1,1c0,0.2,0,0.4-0.1,0.6l0,0.3c0,0.2,0,0.3,0,0.5l0,0.1c0,0.1,0,0.3,0,0.4l0,0.2
		c0,0.3-0.1,0.6-0.1,0.9c0,0.7-0.1,1.4-0.1,2c0,3.9,0.5,7.8,1.6,11.6l0,0.1c0.5,1.8,1.1,3.6,1.8,5.2l0.1,0.2
		c0.1,0.2,0.2,0.4,0.3,0.6c0.1,0.2,0.2,0.4,0.3,0.6c0,0,0,0.1,0,0.1c0,0.1,0.1,0.2,0.1,0.3c0.1,0.1,0.1,0.3,0.2,0.4
		c0.1,0.2,0.2,0.4,0.3,0.6l0,0.1c0,0.1,0.1,0.2,0.1,0.3c0.2,0.4,0.4,0.8,0.7,1.2l0.1,0.2c0.1,0.2,0.3,0.5,0.4,0.7l0.1,0.2
		c0,0,0.1,0.1,0.1,0.2c0.1,0.1,0.2,0.3,0.3,0.4l0.4,0.6c0.1,0.2,0.2,0.4,0.4,0.6c0.1,0.1,0.2,0.2,0.2,0.3c0.1,0.2,0.2,0.3,0.3,0.4
		l0.2,0.2c0.1,0.1,0.1,0.2,0.2,0.3c0.2,0.2,0.3,0.4,0.5,0.6c0.1,0.1,0.1,0.1,0.1,0.2c0,0,0.1,0.1,0.1,0.1c0.1,0.1,0.2,0.3,0.3,0.4
		c0.1,0.1,0.2,0.2,0.3,0.4c0.1,0.1,0.2,0.3,0.4,0.4l0.1,0.1c0.1,0.1,0.1,0.1,0.2,0.2c0.1,0.2,0.3,0.3,0.4,0.5l0.1,0.2
		c0,0,0.1,0.1,0.1,0.1l0.1,0.1c0.1,0.1,0.3,0.3,0.4,0.4c0,0,0.1,0.1,0.1,0.1l0.1,0.1c0.1,0.1,0.2,0.2,0.3,0.4l0.1,0.1
		c0,0,0.1,0,0.1,0.1c0.9,1,1.8,1.8,2.8,2.6c0.2,0.1,0.3,0.3,0.4,0.4l0.3,0.3c0.6,0.5,1.3,1,2,1.6c4.9-3.5,9-8.1,12-13.3
		c3.7-6.5,5.7-13.9,5.7-21.4c0-1.9-0.2-4-0.5-6.2l-0.1-0.7c-0.1-0.8-0.4-1.7-0.7-2.8l-0.2-0.5c-0.3-0.7-0.6-1.4-1-2.1l-0.1-0.2l0,0
		c-0.3-0.5-0.6-1-1-1.5c-0.1-0.2-0.3-0.4-0.4-0.6c-0.1-0.2-0.4-0.3-0.5-0.3l-0.1,0c-0.5,0-0.9,0.4-0.9,0.9v0.1
		c0.2,1.8,0.7,3.5,1.5,5.2l0.1,0.2c0.2,0.7,0.4,1.4,0.6,2.2l0,0.1l0,0c0,0.1,0,0.1,0,0.2h0l0.1,0.4c0.3,1.8,0.4,3.8,0.4,5.7
		c0,2.9-0.3,5.9-1,9l-0.2,0.8l-0.6-0.6c-0.6-0.5-1.1-1.1-1.7-1.6c-1.8-1.8-3.6-3.9-5.2-6c-0.1-0.1-0.4-0.5-0.5-0.6l0,0l-0.2-0.1
		l0-0.2c-2.5-3.6-4.1-7.5-4.8-11.8c-0.2-0.9-0.3-1.9-0.3-2.8c0-0.2,0-0.4,0-0.6c0.1-5.2,3.4-9.8,8.4-11.6c1.4-0.5,2.9-0.8,4.4-0.8
		c3.7,0,7.1,1.6,9.6,4.3h0l0.4,0.5c0.1,0.1,0.1,0.1,0.2,0.2c2.9,3.7,4.9,8.2,5.8,13l0,0.2c0,0.1,0.1,0.3,0.1,0.5l0,0.3
		c0,0.2,0,0.3,0.1,0.5l0.2,1h-0.1c0.2,2.1,0.4,4.2,0.4,6.3c0,9.6-2.5,19-7.3,27.3c-4.7,8-11.3,14.8-19.2,19.5
		C302.2,495.9,301.2,496.2,300.1,496.3L300.1,496.3z M299.8,495.2c0,0,0.1,0,0.1,0l0.1,0c0.9,0,1.8-0.2,2.5-0.7
		c7.8-4.7,14.3-11.3,18.8-19.2c4.7-8.1,7.2-17.4,7.2-26.8c0-2.2-0.1-4.4-0.4-6.7l-0.1-0.6h0c0-0.2,0-0.3-0.1-0.5l0-0.1
		c0-0.1,0-0.1,0-0.2c0-0.2-0.1-0.4-0.1-0.5l0-0.2c-0.8-4.6-2.7-8.9-5.6-12.6c0,0,0,0,0,0H322l0-0.3c0,0-0.1-0.1-0.1-0.1
		c-2.3-2.6-5.5-4.1-8.9-4.1c-1.4,0-2.7,0.2-4,0.7c-4.5,1.7-7.6,5.9-7.7,10.7c0,0.2,0,0.4,0,0.5c0,0.9,0.1,1.8,0.3,2.6
		c0.7,4.2,2.3,8,4.7,11.5l0.2,0.1l0,0.1c0.1,0.2,0.4,0.5,0.5,0.6c1.5,2,3.2,4,5,5.8c0.3,0.3,0.7,0.7,1,1c0.5-2.7,0.8-5.3,0.8-7.9
		c0-1.8-0.1-3.5-0.3-5.2h-0.1l0-0.5c0-0.2-0.1-0.3-0.1-0.5l0,0l0-0.2c-0.1-0.6-0.3-1.3-0.5-1.9l-0.1-0.1l0-0.2
		c-0.8-1.7-1.3-3.5-1.5-5.5l0-0.2c0-1.1,0.8-1.9,1.9-1.9c0.1,0,0.2,0,0.3,0c0.4,0,0.9,0.3,1.2,0.7c0.2,0.2,0.3,0.4,0.5,0.6
		c0.4,0.5,0.8,1.2,1.2,1.8l0.1,0.2l0,0c0.5,0.8,0.8,1.7,1.2,2.6l0.2,0.7h0c0.2,0.8,0.4,1.5,0.5,2.2l0.2,0.9c0.3,2.2,0.5,4.3,0.5,6.3
		c0,7.7-2,15.2-5.9,21.9c-3.1,5.4-7.4,10.2-12.6,13.8l-0.3,0.2l-0.3-0.2c-0.9-0.6-1.7-1.3-2.4-1.8l-0.3-0.3
		c-0.1-0.1-0.3-0.2-0.4-0.4c-1-0.8-1.9-1.7-2.8-2.7l-0.3-0.2c-0.1-0.1-0.2-0.3-0.4-0.4c0,0,0,0-0.1-0.1l-0.1-0.1
		c-0.1-0.1-0.2-0.3-0.4-0.4l-0.1-0.1c-0.1-0.1-0.1-0.1-0.2-0.2l-0.1-0.1c-0.1-0.1-0.3-0.3-0.4-0.5c-0.1-0.1-0.1-0.1-0.2-0.2
		l-0.1-0.1c-0.1-0.1-0.3-0.3-0.4-0.4c-0.1-0.1-0.2-0.3-0.3-0.4c-0.1-0.1-0.2-0.3-0.3-0.4l-0.1-0.1c-0.1-0.1-0.1-0.2-0.2-0.3
		c-0.1-0.1-0.3-0.3-0.4-0.5c-0.1-0.1-0.1-0.2-0.2-0.3l-0.2-0.3c-0.1-0.1-0.2-0.3-0.3-0.4c0-0.1-0.1-0.2-0.2-0.3
		c-0.2-0.2-0.3-0.4-0.4-0.7l-0.3-0.5c-0.1-0.2-0.2-0.3-0.3-0.5l-0.1-0.1c0,0,0,0-0.1-0.1l-0.2-0.3c-0.1-0.2-0.3-0.5-0.4-0.7
		l-0.1-0.2c-0.2-0.4-0.4-0.8-0.6-1.2c0-0.1-0.1-0.2-0.2-0.3l-0.1-0.1c-0.1-0.2-0.2-0.4-0.3-0.5c-0.1-0.2-0.2-0.3-0.3-0.5l0-0.1
		c-0.1-0.1-0.1-0.2-0.1-0.3c-0.1-0.2-0.2-0.4-0.2-0.5c-0.1-0.2-0.2-0.4-0.3-0.6l-0.1-0.2c-0.7-1.7-1.4-3.6-1.9-5.4l0-0.1
		c-1.1-3.8-1.6-7.8-1.6-11.8c0-0.7,0-1.4,0.1-2c0-0.3,0-0.6,0.1-0.9l0-0.1c0-0.2,0-0.3,0.1-0.5c0-0.2,0-0.3,0-0.5l0-0.3
		c0-0.2,0-0.4,0.1-0.6c0-0.4,0.1-0.7,0.1-1.1c0,0,0,0,0-0.1c0,0,0-0.1,0-0.1l0-0.1l0.1-0.4l0,0l0-0.2c0.4-2.4,1.3-4.7,2.6-6.7
		c0.3-0.5,0.7-1,1.1-1.5l0.1-0.1c0.8-0.8,2-0.8,2.7-0.1l0.1,0.1c0.3,0.4,0.4,0.9,0.4,1.4c-0.1,1-0.3,1.9-0.6,2.9l-0.1,0.2
		c-0.2,0.7-0.5,1.5-0.9,2.3c0,0.1,0,0.2-0.1,0.3c-0.3,0.7-0.5,1.4-0.6,2l-0.1,0.6c0,0,0,0.1,0,0.1l0,0.4c0,0.2-0.1,0.4-0.1,0.6
		l-0.1,1.1c0,0.1,0,0.3,0,0.4l0,0.4c0,0.1,0,0.2,0,0.3c0,0.1,0,0.2,0,0.3c0,0.8,0,1.4,0,2c0,2.7,0.3,5.3,0.8,7.9
		c0.4-0.3,0.7-0.7,1-1c1.8-1.9,3.6-3.8,5.1-5.9c0.2-0.2,0.4-0.6,0.5-0.6l0.1-0.1c2.8-3.9,4.4-8.4,5-13.1c0-0.1,0-0.1,0-0.2l0-0.3
		c0-0.2,0-0.5,0-0.7c0-3.2-1.2-6.1-3.4-8.3c-1-1-2.2-1.8-3.4-2.3c-1.6-0.7-3.3-1.1-5-1.1c-3,0-5.9,1.1-8.1,3.2c0,0-0.1,0.1-0.2,0.1
		c-0.1,0.1-0.1,0.1-0.2,0.2c-0.6,0.6-1.1,1.1-1.4,1.7c-0.1,0.1-0.2,0.3-0.3,0.4c-2.4,3.5-4.1,7.3-4.8,11.5l0,0.1
		c0,0-0.1,0.7-0.1,0.8c-0.1,0.3-0.1,0.5-0.1,0.8l0,0.3c-0.3,2.4-0.4,4.6-0.4,6.7c0,9.4,2.5,18.7,7.2,26.8c4.5,7.8,11,14.5,18.8,19.2
		l0.2,0.1l-0.1,0.5l0.2-0.5l0.4,0.2c0.1,0,0.1,0,0.1,0l0.2,0.1c0,0,0.1,0,0.1,0l0.2,0.1c0.1,0,0.3,0.1,0.4,0.1c0.1,0,0.2,0,0.2,0
		l0.2,0C299.7,495.2,299.7,495.2,299.8,495.2z M250.2,472.2L250.2,472.2c-4.5,0-8.9-0.5-13.3-1.6c-0.9-0.2-1.7-0.6-2.4-1.2h0
		l-0.1-0.1c-0.1-0.1-0.1-0.1-0.2-0.2l-0.1-0.1c-0.1-0.1-0.1-0.1-0.1-0.2c-0.3-0.3-0.6-0.7-0.8-1.1l-0.1-0.1c0,0,0-0.1-0.1-0.1
		c0,0-0.1-0.1-0.1-0.1l-0.1-0.2c0,0,0-0.1-0.1-0.1c0,0-0.1-0.1-0.1-0.2l-0.1-0.1c-0.1-0.2-0.1-0.4-0.2-0.6
		c-2.2-8.9-2.2-18.4,0.2-27.4c0.5-2,1.2-4,2-6.1l0.2-0.4l0.5,0.2c3.4,1.2,7,2.1,10.6,2.6l0.4,0.1v0.6l-0.1,0.1
		c-0.8,1.8-1.6,3.8-2.2,6.1c-1.3,4.8-1.7,9.7-1.3,14.6l0.1,0.7c0.1,1,0.2,1.8,0.3,2.5c5.9,1,12.1,0.6,17.9-0.9c2-0.6,4-1.3,5.9-2.1
		c0.1,0,0.1-0.1,0.2-0.1l0.7-0.3l0.1,0.6c0.5,3.6,1.4,7.2,2.6,10.6l0.2,0.5l-0.4,0.2c-2,0.8-4.1,1.5-6.2,2.1
		C259.7,471.5,255,472.2,250.2,472.2z M235.2,468.6c0.6,0.5,1.2,0.8,1.9,0.9c4.3,1.1,8.6,1.6,13,1.6h0c4.7,0,9.4-0.6,13.9-1.8
		c1.9-0.5,3.8-1.2,5.6-1.9c-1.1-3.1-1.9-6.4-2.4-9.7c-1.8,0.8-3.7,1.4-5.7,2c-6,1.6-12.5,1.9-18.6,0.9l-0.3-0.1l-0.1-0.3
		c-0.1-0.6-0.2-1.2-0.3-1.9l0,0l-0.1-1.1c-0.5-5.3-0.1-10.6,1.2-15.7c0.6-2.1,1.2-4,2-5.7c-3.3-0.5-6.5-1.3-9.7-2.4
		c-0.7,1.9-1.3,3.7-1.8,5.6c-2.4,8.8-2.4,18.1-0.2,26.9c0,0.2,0.1,0.3,0.1,0.4l0.2,0.2l0,0.1c0,0.1,0.1,0.2,0.1,0.2l0,0.1
		c0,0.1,0.1,0.1,0.1,0.2c0.2,0.4,0.4,0.6,0.7,0.9l0.2,0.2h0.3L235.2,468.6z M349.8,472.1L349.8,472.1c-4.8,0-9.5-0.6-14.2-1.8
		c-2.1-0.6-4.2-1.3-6.2-2.1l-0.4-0.2l0.2-0.4c1.2-3.5,2.1-7,2.6-10.6l0.1-0.8l0.7,0.5c2,0.9,4.1,1.6,6.2,2.2
		c4.8,1.3,9.9,1.7,14.9,1.3l0.5-0.1c0.9-0.1,1.7-0.2,2.5-0.3c0.4-2.3,0.5-4.5,0.5-6.7c0-3.7-0.5-7.5-1.5-11.1
		c-0.5-1.9-1.1-3.7-2-5.7l-0.1-0.2c-0.1-0.1-0.1-0.2-0.1-0.3l-0.3-0.6l0.7-0.1c3.5-0.5,7.1-1.4,10.6-2.6l0.4-0.2l0.2,0.4
		c0.8,2,1.5,4,2.1,6.1c2.4,8.9,2.5,18.4,0.2,27.4c-0.2,0.9-0.7,1.8-1.3,2.5c0,0-0.1,0.1-0.1,0.1l-0.3,0.3c-0.3,0.3-0.6,0.6-1.1,0.8
		l-0.1,0.1c0,0-0.1,0-0.1,0l-0.1,0.1l-0.7,0.2c0,0,0,0-0.1,0l-0.1,0c-0.1,0.1-0.3,0.1-0.4,0.1C358.8,471.6,354.3,472.1,349.8,472.1z
		 M330.3,467.5c1.8,0.7,3.7,1.3,5.6,1.9c8.8,2.3,18.1,2.4,26.9,0.2c0.1,0,0.2-0.1,0.3-0.1l0.3-0.1l0,0l0.4-0.2h0l0,0
		c0,0,0.1,0,0.1-0.1l0.1-0.1c0.3-0.2,0.7-0.4,0.9-0.7c0,0,0.1-0.1,0.1-0.1c0,0,0-0.1,0.1-0.1c0,0,0.1-0.1,0.1-0.1
		c0.6-0.7,1-1.4,1.2-2.1c2.2-8.8,2.1-18.1-0.2-26.9c-0.5-1.9-1.1-3.7-1.8-5.6c-3.2,1.1-6.5,1.9-9.7,2.4c0.8,2,1.5,3.9,2,5.8
		c1,3.8,1.5,7.6,1.5,11.4c0,2.4-0.2,4.8-0.6,7.2l-0.1,0.4l-0.3,0.1c-0.8,0.1-1.7,0.3-2.5,0.3l-0.4,0.1c-5.2,0.5-10.6,0.1-15.7-1.3
		c-1.9-0.5-3.9-1.2-5.8-2C332.2,461,331.4,464.3,330.3,467.5z M345.4,432.7c-2.2,0-4.5-0.1-6.8-0.4c-0.2,0-0.4,0-0.6-0.1l-0.6-0.1
		c0,0-0.5-0.1-0.7-0.1l-0.3-0.1c-4.3-0.7-8.2-2.4-11.8-4.9c-0.6-0.4-1.1-0.7-1.5-1.1c-0.2-0.1-0.5-0.4-0.7-0.6
		c-0.1-0.1-0.3-0.3-0.4-0.4c-3.6-3.8-4.5-9.4-2.3-14.1c0.6-1.3,1.5-2.6,2.6-3.7c2.4-2.4,5.6-3.7,9-3.7c0.3,0,0.6,0,0.9,0l0.1,0
		c0.1,0,0.2,0,0.3,0c4.9,0.6,9.5,2.3,13.5,5.1l0,0l0.3,0.3c0.1,0.1,0.3,0.2,0.4,0.3h0l0.1,0.1c2.1,1.6,4.1,3.3,6,5.2
		c0.6,0.6,1.1,1.2,1.6,1.7l0.5,0.6l-0.8,0.2c-4.7,1.1-9.7,1.3-14.7,0.6l-0.1-0.5l-0.1,0.5c0,0-0.1,0-0.1,0l-0.2,0
		c-0.1,0-0.1,0-0.2,0c-0.8-0.2-1.5-0.3-2.2-0.6l-0.2-0.1c-0.4-0.2-0.8-0.4-1.2-0.5l-0.1-0.1c-0.3-0.1-0.7-0.2-1-0.3l-0.6-0.2
		c-0.3-0.1-0.7-0.2-1-0.2l0,0l-0.3-0.1c0,0,0,0-0.1,0l-0.3-0.1c-0.2,0-0.5-0.1-0.7-0.1l-0.1,0c-0.2,0-0.4,0.1-0.5,0.2
		c-0.1,0-0.1,0.1-0.1,0.1c-0.2,0.2-0.3,0.5-0.2,0.8c0,0.2,0.1,0.3,0.3,0.5c2.3,1.8,5,3,7.9,3.6l0.7,0.1c2.1,0.3,4.2,0.5,6.2,0.5
		c7.5,0,14.9-2,21.4-5.7c0.5-0.3,1-0.6,1.5-0.9c0.1-0.1,0.2-0.1,0.2-0.1c0.2-0.1,0.4-0.3,0.6-0.4l0.3-0.2c0.1-0.1,0.2-0.2,0.4-0.2
		c0.1-0.1,0.2-0.1,0.2-0.2l0.2-0.2c0.1-0.1,0.2-0.1,0.3-0.2c0.1-0.1,0.2-0.2,0.3-0.2c0.7-0.6,1.5-1.1,2.2-1.7l0.1-0.1c0,0,0,0,0,0
		c0.1-0.1,0.3-0.2,0.4-0.4l0.2-0.1l0.4,0.3l-0.3-0.4l0.1-0.1c0.2-0.1,0.3-0.2,0.4-0.4l0.2-0.1c0,0,0.1-0.1,0.1-0.1l0.2-0.2
		c0.1-0.1,0.3-0.3,0.4-0.4l0.1-0.1c0.8-0.8,1.7-1.7,2.5-2.7c0,0,0.1-0.1,0.2-0.2c0.1-0.2,0.3-0.3,0.4-0.5l0.1-0.1
		c0.5-0.6,1-1.3,1.5-2c-0.1-0.1-0.2-0.3-0.3-0.4c-0.2-0.2-0.3-0.4-0.5-0.6c0,0-0.1-0.1-0.2-0.2l-0.1-0.1c-0.3-0.3-0.5-0.7-0.8-1
		l-0.1-0.2c-0.1-0.1-0.2-0.3-0.4-0.4c-0.2-0.2-0.3-0.4-0.4-0.5c-0.5-0.6-1-1.1-1.6-1.7c-0.5-0.5-0.9-0.9-1.4-1.3l-0.2-0.2
		c-0.3-0.2-0.5-0.4-0.7-0.6c-0.1-0.1-0.2-0.2-0.3-0.2l-0.9-0.7c-0.2-0.2-0.5-0.4-0.7-0.6c-0.1,0-0.1-0.1-0.2-0.1
		c-0.3-0.2-0.6-0.4-0.8-0.6l-0.2-0.1c0,0-0.1,0-0.1-0.1c-0.3-0.2-0.6-0.4-0.9-0.6l-0.2-0.1c-0.9-0.6-1.6-1-2.4-1.5
		c-6.5-3.7-13.9-5.7-21.4-5.7c-2.1,0-4.2,0.2-6.2,0.4l-0.7,0.1c-1,0.2-2,0.4-2.8,0.7l-0.5,0.2c-0.7,0.3-1.4,0.6-2.1,1l-0.2,0.1
		c-0.7,0.4-1.5,0.9-2.1,1.4c-0.2,0.1-0.3,0.3-0.3,0.6l0,0.1c0,0.5,0.4,0.9,0.9,0.9h0.1c2-0.2,3.9-0.8,5.7-1.7l0.2,0
		c0.1,0,0.2,0,0.4-0.1c0.5-0.1,1-0.2,1.4-0.3l0.3,0c0,0,0,0,0.1,0l0.1,0c0.1,0,0.2,0,0.3,0c1.8-0.2,3.6-0.4,5.5-0.4c3,0,6.1,0.3,9,1
		l0.8,0.2l-0.6,0.6c-0.5,0.6-1,1.1-1.6,1.7c-1.8,1.8-3.8,3.5-6,5.2l-0.1,0.1c-0.2,0.1-0.6,0.4-0.6,0.4l-0.1,0.1
		c-3.6,2.5-7.6,4.2-11.9,4.9c-1,0.2-1.9,0.3-2.8,0.3H331c-5.3-0.1-9.9-3.4-11.7-8.4c-0.5-1.3-0.8-2.8-0.8-4.4c0-1.9,0.4-3.7,1.2-5.4
		c0.8-1.6,1.9-3.1,3.3-4.3l0.2-0.2c0.4-0.3,0.7-0.6,1.1-0.8c3.6-2.6,7.7-4.3,12-5.1l0-0.1l0.5-0.1c0.3,0,0.6-0.1,0.6-0.1
		c0.3,0,0.6-0.1,1-0.1l0.6-0.1v0.1c11.7-1.3,23.5,1.1,33.6,6.9c8,4.6,14.8,11.3,19.6,19.2c1.1,1.9,1.1,4.2,0,6.1
		c-4.8,7.9-11.5,14.6-19.6,19.2c-6.5,3.8-14,6.2-21.6,7c-0.1,0-0.1,0-0.2,0c-0.1,0-0.2,0-0.3,0C348.9,432.6,347.1,432.7,345.4,432.7
		z M337.7,431.1l0.5,0.1c0.2,0,0.4,0,0.6,0.1c2.3,0.3,4.5,0.4,6.7,0.4c1.6,0,3.4-0.1,5.2-0.3c0.1,0,0.1,0,0.2,0c0.1,0,0.2,0,0.3,0
		c7.4-0.8,14.7-3.2,21.2-6.9c7.9-4.5,14.5-11.1,19.2-18.9c0.9-1.6,0.9-3.5,0-5.1c-4.7-7.8-11.3-14.3-19.2-18.8
		c-10-5.8-21.8-8.2-33.5-6.7l-0.6,0.1v0c-0.2,0-0.3,0-0.5,0.1c-0.1,0-0.3,0-0.6,0.1l-0.4,0.1c-4.3,0.7-8.2,2.4-11.8,5
		c-0.4,0.2-0.7,0.5-1,0.7l-0.1,0.1c-0.1,0.1-0.1,0.1-0.2,0.1c-1.2,1-2.2,2.4-3,3.9c-0.7,1.6-1.1,3.3-1.1,5c0,1.4,0.2,2.8,0.7,4
		c1.6,4.6,5.9,7.6,10.8,7.7h0.5c0.8,0,1.7-0.1,2.6-0.3c4.1-0.7,8-2.3,11.4-4.7l0.2-0.1c0.5-0.4,0.7-0.5,0.8-0.6
		c2.1-1.6,4.1-3.3,5.8-5.1c0.3-0.3,0.6-0.7,1-1c-4.4-0.9-8.9-1.1-13.4-0.4l-0.4,0.1c0,0,0,0-0.1,0c-0.1,0-0.2,0-0.3,0
		c-0.4,0.1-0.8,0.2-1.2,0.3c-0.2,0-0.3,0.1-0.5,0.1c-1.9,0.9-3.9,1.5-6,1.8l-0.2,0c-1.1,0-1.9-0.8-1.9-1.9v-0.2
		c0.1-0.6,0.3-1,0.7-1.3c0.7-0.6,1.5-1.1,2.2-1.5c0.1-0.1,0.1-0.1,0.2-0.1l0.1-0.1c0.9-0.5,1.8-0.9,2.7-1.2l0.7-0.2v0
		c0.7-0.2,1.4-0.4,2.3-0.6l0.6-0.1c2.1-0.3,4.3-0.5,6.4-0.5c7.7,0,15.3,2,21.9,5.8c0.8,0.4,1.5,0.9,2.4,1.5l0.2,0.1
		c0.3,0.2,0.6,0.4,1,0.7l0.1,0.1c0,0,0,0,0.1,0l0.1,0.1c0.3,0.2,0.6,0.4,0.9,0.7l0.1,0.1c0.3,0.2,0.5,0.4,0.8,0.6l0.9,0.8
		c0.1,0.1,0.2,0.2,0.3,0.2c0.3,0.2,0.5,0.4,0.7,0.7c0.1,0,0.1,0.1,0.2,0.2c0.5,0.4,1,0.9,1.4,1.3c0.6,0.6,1.1,1.1,1.6,1.7
		c0.2,0.2,0.3,0.4,0.5,0.6c0.1,0.1,0.2,0.2,0.4,0.4l0.1,0.2c0.3,0.4,0.6,0.7,0.9,1l0.1,0.2c0,0,0,0,0.1,0.1c0.2,0.3,0.4,0.5,0.5,0.7
		c0.2,0.3,0.4,0.5,0.6,0.8l0.2,0.3l-0.2,0.3c-0.6,0.9-1.3,1.7-1.8,2.4c0,0,0,0.1-0.1,0.1c-0.2,0.2-0.3,0.4-0.5,0.6l-0.1,0.1
		c-0.8,1-1.7,1.9-2.6,2.8l-0.1,0.1c-0.1,0.1-0.3,0.3-0.4,0.4l-0.2,0.2c0,0-0.1,0.1-0.2,0.1l-0.1,0.1c-0.1,0.1-0.3,0.3-0.4,0.4
		c0,0-0.1,0.1-0.1,0.1l-0.2,0.2c-0.2,0.1-0.3,0.3-0.5,0.4l-0.1,0.1c0,0,0,0-0.1,0c-0.7,0.6-1.4,1.2-2.1,1.7l-0.1,0.1
		c-0.1,0.1-0.2,0.1-0.3,0.2c-0.1,0.1-0.2,0.1-0.3,0.2c-0.1,0-0.1,0.1-0.2,0.1l-0.3,0.2c-0.1,0.1-0.3,0.2-0.4,0.3
		c-0.1,0.1-0.1,0.1-0.2,0.1c-0.3,0.2-0.5,0.4-0.7,0.5l-0.2,0.1c-0.5,0.3-1,0.6-1.6,0.9c-6.6,3.8-14.2,5.9-21.9,5.9
		c-2.1,0-4.2-0.2-6.4-0.5l-0.9-0.1v-0.1c-3-0.6-5.7-1.8-8-3.6l-0.1-0.1c-0.3-0.3-0.5-0.7-0.6-1c-0.1-0.6,0.1-1.3,0.5-1.7l0.1-0.1
		c0.4-0.3,0.9-0.5,1.4-0.4c0.4,0,0.8,0.1,1.1,0.2h0.5l0,0.1c0.4,0.1,0.8,0.2,1.3,0.3l0.4,0.1c0.3,0.1,0.7,0.2,1,0.3l0.1,0.1
		c0.4,0.2,0.8,0.3,1.2,0.5h0l0.1,0.1c0.6,0.2,1.2,0.4,2,0.5c0.1,0,0.2,0,0.3,0l0.2,0c0.1,0,0.2,0,0.2,0c4.5,0.6,9.1,0.5,13.4-0.4
		c-0.3-0.3-0.7-0.7-1-1c-1.8-1.8-3.8-3.5-5.8-5.1c-0.1-0.1-0.3-0.2-0.5-0.4l-0.3-0.3c-3.8-2.7-8.4-4.4-13.1-5l-0.3,0
		c-0.3,0-0.6,0-0.9,0c-3.1,0-6.1,1.2-8.3,3.4c-1,1-1.8,2.2-2.4,3.4c-2,4.3-1.2,9.5,2.1,13c0.1,0.1,0.2,0.2,0.4,0.4
		c0.3,0.3,0.5,0.5,0.7,0.6c0.4,0.4,0.8,0.7,1.4,1.1c3.5,2.5,7.4,4.1,11.5,4.8l0.2,0C336.9,431,337.5,431.1,337.7,431.1z
		 M254.6,432.7c-9.6,0-19-2.5-27.3-7.3c-8-4.6-14.8-11.3-19.6-19.2c-1.1-1.9-1.1-4.2,0-6.1c4.8-7.9,11.5-14.6,19.6-19.2
		c10-5.8,21.8-8.3,33.6-6.9v0l0.6,0c0.2,0,0.5,0.1,0.7,0.1l0.3,0c0,0,0,0,0.9,0.1l0.1,0l0,0c4.4,0.8,8.4,2.4,11.9,4.9
		c0.1,0.1,0.2,0.1,0.4,0.2c0.7,0.5,1.3,1,1.9,1.5c0.1,0.2,0.2,0.3,0.3,0.3c3.6,3.9,4.5,9.4,2.3,14.2c-0.6,1.3-1.4,2.5-2.5,3.6
		c-2.4,2.4-5.6,3.7-9,3.7c-0.3,0-0.7,0-1,0c-0.1,0-0.2,0-0.3,0c-4.9-0.5-9.5-2.3-13.5-5.1l-0.2-0.1l-0.1-0.1l-0.4-0.3
		c0,0-0.1-0.1-0.1-0.1h0l-0.1-0.1c-2.3-1.7-4.2-3.4-6-5.2c-0.6-0.6-1.1-1.1-1.6-1.7l-0.6-0.6l0.8-0.2c2.9-0.7,5.9-1,9-1
		c0.5,0,1,0,1.5,0c1.5,0.1,2.9,0.2,4.2,0.4l0.5,0.1c0.1,0,0.2,0,0.4,0.1c0.3,0.1,0.7,0.1,1,0.2l0.2,0.1c0.1,0,0.2,0,0.2,0.1l0.1-0.1
		l0.3,0.2c0.1,0,0.1,0.1,0.1,0.1c0.9,0.5,1.8,0.8,2.7,1l0.2,0.1c0.8,0.2,1.7,0.4,2.5,0.5c0.2,0,0.4,0,0.6-0.2
		c0.2-0.2,0.3-0.5,0.3-0.7c0-0.2-0.1-0.5-0.2-0.6l0,0c-0.8-0.6-1.5-1.1-2.3-1.5c-1.7-1-3.6-1.7-5.6-2l-0.1,0l-0.6-0.1
		c-1.5-0.2-3-0.3-4.5-0.4h-0.1c-4.5-0.1-8.9,0.4-13.2,1.6c-0.6,0.1-1.2,0.3-1.8,0.5l-0.7,0.2c0,0-0.1,0-0.1,0l-0.1,0
		c-0.2,0.1-0.5,0.2-0.7,0.2l-0.2,0.1c-0.1,0-0.1,0-0.1,0.1c-0.1,0-0.1,0.1-0.2,0.1c-2,0.8-4,1.7-5.9,2.8c-4.2,2.5-8,5.6-11.2,9.3
		l-0.5,0.6c-0.6,0.8-1.2,1.4-1.6,2c3.5,4.9,8.1,9,13.3,12c6.5,3.7,13.9,5.7,21.4,5.7c2,0,4.1-0.2,6.2-0.5l0.2,0l0.5-0.1
		c0.9-0.2,1.8-0.4,2.8-0.7l0.7-0.2v0c0.7-0.3,1.4-0.6,2-0.9l0.2-0.1c0.6-0.3,1.2-0.7,1.8-1.2c0.2-0.1,0.3-0.2,0.5-0.3
		c0.1-0.1,0.2-0.3,0.3-0.5l0-0.2c0-0.5-0.4-0.8-0.9-0.8c-0.1,0-0.1,0-0.1,0c-1.4,0.2-2.7,0.5-3.8,0.9c-0.1,0-0.2,0.1-0.3,0.1
		l-0.4,0.1c-0.2,0.1-0.5,0.2-0.7,0.3l-0.2,0.1c-0.7,0.3-1.5,0.4-2.1,0.6c-0.2,0-0.3,0.1-0.4,0.1l-0.3,0.1c0,0,0,0-0.1,0
		c-4.8,0.7-9.9,0.5-14.6-0.6l-0.8-0.2l0.6-0.6c0.5-0.6,1.1-1.2,1.6-1.7c1.9-1.9,3.9-3.6,6-5.2c0.1-0.1,0.5-0.4,0.6-0.5l0.2-0.1
		c3.6-2.6,7.6-4.2,11.9-4.9c0.9-0.2,1.9-0.3,2.8-0.3c0.2,0,0.4,0,0.6,0c5.2,0.2,9.8,3.5,11.6,8.4c0.5,1.4,0.8,2.9,0.8,4.4
		c0,3.7-1.6,7.1-4.3,9.6v0l-0.4,0.4l-0.1,0c-0.3,0.2-0.7,0.5-1,0.7c-3.6,2.6-7.7,4.3-12.1,5.1l-0.2,0c-0.1,0-0.7,0.1-0.9,0.1
		c-0.3,0.1-0.6,0.1-1,0.1l-0.6,0.1v0C258.7,432.5,256.6,432.7,254.6,432.7z M254.6,374.6c-9.4,0-18.7,2.5-26.8,7.2
		c-7.9,4.5-14.5,11.1-19.2,18.8c-0.9,1.6-0.9,3.5,0,5.1c4.7,7.8,11.3,14.3,19.2,18.9c8.1,4.7,17.4,7.2,26.8,7.2
		c2.2,0,4.4-0.1,6.7-0.4l0.6-0.1v0c0.2,0,0.3,0,0.5-0.1c0.2,0,0.6-0.1,0.8-0.1l0.3,0c4.2-0.7,8.2-2.4,11.6-4.9
		c0.3-0.2,0.6-0.4,0.9-0.7v-0.3l0.4-0.1c2.6-2.2,4.2-5.5,4.2-9c0-1.4-0.2-2.8-0.7-4.1c-1.6-4.5-5.9-7.6-10.7-7.7c-0.2,0-0.4,0-0.5,0
		c-0.9,0-1.7,0.1-2.6,0.3c-4.2,0.7-8.1,2.3-11.5,4.8l-0.2,0.1c-0.1,0.1-0.6,0.4-0.7,0.5c-2,1.5-3.9,3.2-5.8,5c-0.3,0.3-0.7,0.7-1,1
		c4.4,0.9,8.9,1.1,13.5,0.4c0,0,0.1,0,0.1,0c0.1,0,0.1,0,0.2,0c0.2,0,0.3-0.1,0.4-0.1c0.5-0.1,1.2-0.3,1.8-0.5l0.1-0.1l0.2,0
		c0.2-0.1,0.5-0.2,0.7-0.3c0.1-0.1,0.2-0.1,0.3-0.1l0.1,0c0.1,0,0.2-0.1,0.3-0.1c1.2-0.5,2.6-0.8,4.1-1c0.1,0,0.2,0,0.2,0
		c1.1,0,1.9,0.9,1.9,1.9c0,0.1,0,0.2,0,0.3c-0.1,0.4-0.3,0.8-0.6,1.1c-0.2,0.1-0.3,0.2-0.5,0.3c-0.6,0.5-1.3,0.9-2,1.3l-0.1,0.1
		c-0.8,0.4-1.7,0.9-2.7,1.2l-0.7,0.2v0c-0.7,0.2-1.4,0.4-2.1,0.5v0l-0.9,0.1c-2.2,0.3-4.3,0.5-6.4,0.5c-7.7,0-15.3-2-21.9-5.9
		c-5.4-3.1-10.2-7.5-13.8-12.6l-0.2-0.3l0.2-0.3c0.3-0.5,0.7-1,1.2-1.6h0l0.6-0.8c3.4-4.1,7.4-7.5,12-10.2c1.9-1.1,4-2.1,6.1-2.9
		l0.1,0c0.1,0,0.1-0.1,0.2-0.1l0.2-0.1c0.2-0.1,0.5-0.2,0.7-0.3l0.2-0.1l0.7-0.2c0.6-0.2,1.2-0.4,1.8-0.5c3.8-1.1,7.8-1.6,11.8-1.6
		c0.5,0,1.1,0,1.6,0h0.1c1.6,0.1,3.1,0.2,4.6,0.4l0.7,0.1c2.1,0.4,4.1,1.1,5.9,2.1c0.8,0.4,1.6,1,2.4,1.6l0.1,0.1
		c0.4,0.4,0.6,0.9,0.6,1.4c0,0.5-0.2,1-0.6,1.3c0,0-0.1,0.1-0.2,0.2c-0.3,0.2-0.7,0.4-1.2,0.4l-0.1,0c-1-0.1-2-0.3-2.9-0.6l-0.2-0.1
		c-0.9-0.2-1.7-0.6-2.7-1l-0.1-0.1c-0.2,0-0.4-0.1-0.5-0.1l-0.2-0.1c-0.3-0.1-0.6-0.2-0.9-0.2c-0.1,0-0.2,0-0.3-0.1l-0.3,0
		c0,0,0,0-0.1,0l-0.1,0c-1.3-0.2-2.7-0.3-4.1-0.4c-0.6,0-1,0-1.5,0c-2.7,0-5.3,0.3-7.9,0.8c0.3,0.3,0.6,0.7,1,1
		c1.7,1.7,3.6,3.3,5.7,5h0l1,0.7c3.9,2.7,8.4,4.4,13.1,5l0.2,0c0.4,0,0.7,0,1,0c3.2,0,6.1-1.2,8.3-3.4c1-1,1.8-2.1,2.3-3.4
		c2.1-4.4,1.2-9.5-2.1-13.1c-0.1-0.1-0.2-0.2-0.3-0.3c-0.6-0.6-1.1-1-1.8-1.5c-0.1-0.1-0.2-0.2-0.3-0.2c-3.5-2.5-7.3-4.1-11.5-4.8
		l-0.1,0c-0.2,0-0.7-0.1-0.8-0.1L262,375c-0.1,0-0.2,0-0.3,0l-0.4,0C259,374.7,256.8,374.6,254.6,374.6z M287,384.5
		c-1.9,0-3.7-0.4-5.4-1.2c-1.6-0.8-3-1.8-4.1-3.1h-0.3l0-0.3l-0.1-0.1c-0.1-0.1-0.2-0.3-0.3-0.4l-0.1-0.1c-2.8-3.7-4.7-8-5.5-12.7
		l-0.1-0.1l0,0c-0.1-0.8-0.1-0.9-0.1-0.9c0-0.1,0-0.3-0.1-0.5c0-0.2,0-0.3-0.1-0.5l-0.1-0.6h0.1c-0.2-2.2-0.4-4.3-0.4-6.3
		c0-9.6,2.5-19,7.3-27.3c4.6-8,11.2-14.7,19.2-19.5c1.9-1.1,4.3-1.1,6.1,0c7.9,4.8,14.6,11.5,19.2,19.5c4.8,8.2,7.3,17.7,7.3,27.3
		c0,2.2-0.1,4.5-0.4,6.8c0,0.3-0.1,0.6-0.1,1.1l0,0.1c0,0.2-0.1,0.5-0.1,0.7l-0.1,0.3c-0.8,4.4-2.4,8.3-4.9,11.8
		c-0.1,0.1-0.2,0.2-0.2,0.4c-0.5,0.7-1,1.3-1.5,1.8c-0.1,0.1-0.3,0.2-0.4,0.3c-2.4,2.3-5.5,3.5-8.8,3.5l0,0c-1.8,0-3.7-0.4-5.4-1.2
		c-1.4-0.7-2.6-1.5-3.7-2.6c-2.4-2.4-3.7-5.6-3.7-9c0-0.2,0-0.4,0-0.6l0-0.4c0-0.1,0-0.2,0-0.3c0.5-4.7,2.2-9.2,4.8-13.1l-0.1,0
		l0.3-0.4v-0.1l0.2-0.1l0.6-0.9c1.5-2,3.2-4,5.1-5.8l0.1-0.1c0.5-0.5,1.1-1,1.6-1.5l0.6-0.5l0.2,0.8c0.7,3,1,6,1,9
		c0,0.7,0,1.4-0.1,2c0,0,0,0.1,0,0.2v0.3c0,0.1,0,0.2,0,0.2l0,0.2c0,0.1,0,0.2,0,0.3l-0.1,1c0,0.1,0,0.2-0.1,0.5
		c0,0.2,0,0.3-0.1,0.5c0,0,0,0.1,0,0.1l0,0.1l-0.1,0.9c-0.1,0.8-0.3,1.5-0.6,2.3c-0.1,0.2-0.2,0.4-0.3,0.6l0,0.1
		c-0.3,0.6-0.5,1.2-0.7,1.9l0,0.1c0,0.1,0,0.2-0.1,0.2c0,0.1-0.1,0.3-0.1,0.4l-0.1,0.3c-0.1,0.7-0.2,1.3-0.3,1.8
		c0,0.2,0,0.5,0.2,0.7l0,0c0,0,0.1,0.1,0.1,0.1c0.3,0.3,0.8,0.3,1.1,0.1c0,0,0.1,0,0.1-0.1c0.1-0.1,0.1-0.1,0.1-0.2
		c1.7-2.2,2.9-4.9,3.4-7.8l0.2-1.2c0-0.1,0-0.2,0-0.3c0-0.1,0-0.2,0-0.3c0-0.2,0-0.4,0.1-0.6l0-0.4c0-0.2,0-0.4,0.1-0.6
		c0-0.2,0-0.4,0-0.6l0-0.1c0-0.1,0-0.2,0-0.2c0-0.1,0-0.2,0-0.2c0.1-0.7,0.1-1.4,0.1-2.2c0-3.8-0.5-7.7-1.6-11.6l0-0.1
		c0-0.1-0.1-0.3-0.1-0.4c-0.1-0.1-0.1-0.3-0.2-0.6l-0.5-1.5c0-0.1-0.1-0.2-0.1-0.2c-0.1-0.2-0.1-0.4-0.2-0.6c0,0,0-0.1-0.1-0.1
		l-0.2-0.4c0-0.1-0.1-0.2-0.1-0.3l-0.1-0.2c0-0.1-0.1-0.3-0.2-0.4l-0.1-0.2c0-0.1-0.1-0.2-0.2-0.4c-0.1-0.2-0.2-0.4-0.2-0.5
		c0,0,0-0.1-0.1-0.1l-0.1-0.1c-0.6-1.2-1.2-2.4-1.8-3.6c-2.5-4.3-5.7-8.1-9.6-11.4l-0.4-0.3c-0.7-0.6-1.4-1.1-2-1.6
		c-0.3,0.2-0.6,0.5-1,0.7c0,0-0.1,0.1-0.2,0.1c-0.1,0-0.1,0.1-0.1,0.1l-0.1,0.1c-0.3,0.2-0.5,0.4-0.8,0.6c-0.2,0.2-0.4,0.4-0.6,0.6
		l-0.2,0.2c-0.2,0.1-0.3,0.2-0.4,0.3l-0.6,0.5c-0.4,0.4-0.8,0.8-1.2,1.1c-0.3,0.3-0.6,0.6-0.9,0.9l-0.4,0.5
		c-0.1,0.1-0.1,0.2-0.2,0.2l-0.1,0.1c-0.1,0.1-0.2,0.2-0.3,0.3c-0.1,0.1-0.2,0.2-0.2,0.3c0,0.1-0.1,0.2-0.2,0.3
		c-0.1,0.1-0.2,0.2-0.2,0.3c0,0.1-0.1,0.1-0.2,0.2c0,0-0.1,0.1-0.1,0.1c-1.5,1.7-2.8,3.6-4,5.8c-3.7,6.5-5.7,13.9-5.7,21.4
		c0,1.9,0.1,3.9,0.4,6.2l0.1,0.7c0.2,0.9,0.4,1.9,0.7,2.8l0.2,0.6c0.3,0.7,0.6,1.4,1,2.1l0.1,0.1c0.4,0.8,1,1.5,1.5,2.2
		c0.1,0.2,0.4,0.3,0.6,0.3l0.2,0c0.5-0.1,0.8-0.4,0.8-0.9l0-0.2c0-0.2-0.1-0.4-0.1-0.6c-0.2-1.1-0.4-2.1-0.8-3
		c-0.2-0.6-0.4-1-0.6-1.5l-0.1-0.2c-0.2-0.7-0.4-1.4-0.6-2.1l0-0.1V364c0,0,0-0.1,0-0.1l0-0.1c0,0,0-0.1,0-0.1l-0.1-0.3
		c-0.3-1.8-0.4-3.8-0.4-5.6c0-3,0.3-6.1,1-9l0.2-0.8l0.6,0.6c0.6,0.5,1.2,1.1,1.7,1.6c1.9,1.9,3.6,3.9,5.2,6l0.1,0.1
		c0.1,0.1,0.3,0.5,0.4,0.5l0.2,0.3c2.5,3.6,4.1,7.5,4.9,11.8c0.2,1,0.3,1.9,0.3,2.8c0,0.2,0,0.4,0,0.6c-0.1,5.2-3.4,9.8-8.4,11.5
		C290,384.3,288.5,384.5,287,384.5z M278.1,379.5c1,1.2,2.4,2.2,3.9,2.9c1.6,0.8,3.3,1.1,5,1.1c1.4,0,2.8-0.2,4.1-0.7
		c4.6-1.7,7.6-5.9,7.7-10.7c0-0.2,0-0.4,0-0.5c0-0.9-0.1-1.7-0.3-2.6c-0.7-4.2-2.3-8-4.8-11.5l-0.1-0.1c-0.1-0.2-0.4-0.5-0.5-0.7
		c-1.5-2-3.2-4-5.1-5.9c-0.3-0.3-0.7-0.7-1-1c-0.5,2.6-0.8,5.2-0.8,7.9c0,1.8,0.1,3.7,0.4,5.5l0,0.1c0,0.1,0.1,0.2,0.1,0.3
		c0,0,0,0.1,0,0.2l0,0.1c0,0.1,0,0.1,0,0.2c0.1,0.6,0.3,1.3,0.5,1.9l0.1,0.1c0.2,0.5,0.4,0.9,0.6,1.5c0.4,1,0.6,2.1,0.8,3.2
		c0,0.2,0.1,0.4,0.1,0.6l0,0.4c0,0.9-0.7,1.7-1.6,1.9c-0.1,0-0.2,0-0.3,0h-0.2c-0.5,0-1-0.3-1.3-0.7c-0.6-0.8-1.2-1.6-1.7-2.5
		l-0.1-0.1c-0.5-0.9-0.9-1.8-1.2-2.7l-0.2-0.7h0c-0.2-0.7-0.4-1.5-0.5-2.2l-0.1-0.7c-0.3-2.4-0.5-4.5-0.5-6.4c0-7.7,2-15.3,5.8-21.9
		c1.3-2.2,2.6-4.1,4.1-5.9c0,0,0.1-0.1,0.1-0.2c0,0,0.1-0.1,0.1-0.1c0.1-0.1,0.2-0.2,0.3-0.4c0.1-0.1,0.2-0.2,0.2-0.3
		c0.1-0.1,0.2-0.2,0.3-0.3c0.1-0.1,0.2-0.2,0.3-0.4c0,0,0.1-0.1,0.2-0.2l0.5-0.6c0.3-0.3,0.6-0.6,0.9-1c0.4-0.4,0.8-0.8,1.3-1.2
		l0.5-0.5c0.1-0.1,0.3-0.3,0.5-0.4l0.1-0.1c0.2-0.2,0.4-0.4,0.7-0.6c0.2-0.2,0.5-0.4,0.8-0.6l0.1-0.1c0,0,0.1-0.1,0.2-0.1
		c0,0,0.1-0.1,0.1-0.1c0.4-0.4,0.9-0.7,1.3-1l0.3-0.2l0.3,0.2c0.5,0.4,1,0.7,1.5,1.2v0l0.8,0.7c4.2,3.4,7.6,7.5,10.2,12
		c0.7,1.2,1.3,2.4,1.9,3.7l0.1,0.3c0.1,0.2,0.2,0.4,0.2,0.5c0.1,0.1,0.1,0.3,0.2,0.4l0.1,0.2c0.1,0.2,0.1,0.3,0.2,0.5l0.1,0.2
		c0,0.1,0.1,0.2,0.1,0.3l0.2,0.3l0,0.3c0.1,0.2,0.2,0.5,0.3,0.7l0.1,0.2c0,0.1,0,0.1,0.1,0.2l0.4,1.3c0,0.2,0.1,0.4,0.2,0.5
		c0.1,0.2,0.1,0.4,0.1,0.5l0,0.1c1.1,3.9,1.6,7.9,1.6,11.8c0,0.9,0,1.6-0.1,2.3c0,0.1,0,0.2,0,0.2c0,0.1,0,0.1,0,0.2l0,0.1
		c0,0.2,0,0.4,0,0.7c0,0.2,0,0.4-0.1,0.6l0,0.3c0,0.3,0,0.5-0.1,0.7c0,0.1,0,0.2,0,0.3c0,0.1,0,0.2,0,0.3l-0.2,1.2
		c-0.5,3-1.8,5.9-3.7,8.3c0,0,0,0,0,0l0,0.1l-0.1,0.1c-0.1,0.1-0.2,0.2-0.4,0.3c-0.8,0.4-1.7,0.3-2.3-0.3l-0.1-0.1c0,0,0,0-0.1-0.1
		c-0.3-0.4-0.4-0.9-0.3-1.3c0.1-0.6,0.2-1.3,0.4-2.1l0.1-0.2c0-0.1,0-0.2,0.1-0.3l0.1-0.3c0.2-0.6,0.4-1.3,0.7-1.9l0-0.1
		c0.1-0.3,0.2-0.5,0.3-0.8c0.2-0.6,0.4-1.3,0.6-2.1l0.1-0.8l0,0c0,0,0,0,0-0.1l0-0.2c0-0.1,0-0.3,0.1-0.4c0-0.2,0.1-0.4,0.1-0.5
		l0.1-1c0-0.1,0-0.2,0-0.3l0-0.2l0,0c0,0,0-0.1,0-0.3l0-0.3l0-0.2c0-0.7,0.1-1.3,0.1-2c0-2.6-0.3-5.3-0.8-7.9
		c-0.3,0.3-0.6,0.6-0.9,0.9l-0.1,0.1c-1.9,1.9-3.6,3.8-5.1,5.9h0c-0.1,0.1-0.2,0.2-0.3,0.4l-0.3,0.4c-2.7,3.9-4.4,8.4-5,13.1
		c0,0.1,0,0.1,0,0.2l0,0.4c0,0.2,0,0.4,0,0.6c0,3.2,1.2,6.1,3.4,8.3c0.9,1,2.1,1.8,3.4,2.4c1.5,0.7,3.2,1.1,4.9,1.1
		c3,0,5.9-1.1,8.1-3.2c0.1-0.1,0.3-0.2,0.4-0.4c0.5-0.5,0.9-1.1,1.4-1.7c0.1-0.1,0.2-0.3,0.3-0.4c2.4-3.4,4-7.3,4.8-11.5l0-0.1
		c0.1-0.5,0.1-0.7,0.1-0.9c0.1-0.3,0.1-0.6,0.1-1c0.3-2.3,0.4-4.6,0.4-6.7c0-9.4-2.5-18.7-7.2-26.8c-4.6-7.9-11.1-14.5-18.9-19.2
		c-1.5-0.9-3.5-0.9-5.1,0c-7.8,4.7-14.3,11.4-18.8,19.2c-4.7,8.1-7.2,17.4-7.2,26.8c0,2.1,0.1,4.3,0.4,6.7l0.1,0.6h0
		c0,0.2,0,0.3,0.1,0.5c0,0.1,0.1,0.9,0.1,0.9l0,0c0,0.1,0,0.1,0,0.2c0.8,4.4,2.6,8.7,5.4,12.2l0.1,0.1c0.1,0.1,0.1,0.2,0.2,0.2h0.2
		l0.1,0.3L278.1,379.5z M364.9,374l-0.5-0.2c-3.4-1.2-7-2.1-10.6-2.6l-0.4-0.1v-0.6l0.1-0.2c0.9-2,1.6-4.1,2.2-6.1
		c1.3-4.7,1.7-9.7,1.3-14.7L357,349c-0.1-0.8-0.2-1.7-0.3-2.6c-6.2-1-12.2-0.6-17.9,0.9c-1.9,0.5-3.8,1.2-5.6,1.9v0l-0.3,0.1
		c-0.1,0-0.1,0.1-0.2,0.1L332,350l-0.1-0.8c-0.5-3.6-1.4-7.2-2.6-10.7l-0.2-0.5l0.4-0.2c2.1-0.8,4.2-1.5,6.2-2
		c8.9-2.4,18.4-2.5,27.4-0.2c0.9,0.2,1.7,0.7,2.5,1.3l0.2,0.2c0,0,0,0,0,0l0,0l0.2,0.2c0.3,0.3,0.6,0.7,0.8,1.1
		c0.1,0.1,0.1,0.2,0.1,0.3c0,0,0.1,0.1,0.1,0.1c0,0.1,0.1,0.2,0.1,0.3l0,0.1c0,0.1,0,0.1,0.1,0.1c0.1,0.2,0.1,0.4,0.2,0.6
		c2.2,8.9,2.2,18.4-0.2,27.4c-0.5,2-1.2,4.1-2.1,6.1L364.9,374z M354.7,370.4c3.3,0.5,6.5,1.3,9.7,2.4c0.7-1.9,1.4-3.8,1.9-5.6
		c2.3-8.8,2.4-18.1,0.2-26.9c0-0.2-0.1-0.3-0.1-0.5l-0.3-0.6c0,0,0-0.1-0.1-0.1l-0.1-0.1c-0.2-0.3-0.4-0.6-0.6-0.8h-0.1l-0.3-0.3
		l-0.2-0.2c-0.6-0.5-1.2-0.8-1.9-1c-8.8-2.2-18.2-2.1-26.9,0.2c-1.8,0.5-3.7,1.1-5.6,1.8c1.1,3.2,1.9,6.4,2.4,9.7
		c1.9-0.8,3.8-1.5,5.8-2c5.9-1.6,12.2-1.9,18.6-0.9l0.3,0.1l0.1,0.4c0.1,0.6,0.2,1.2,0.3,1.7l0,0l0.1,1.2c0.5,5.4,0.1,10.6-1.3,15.7
		C356.2,366.5,355.5,368.4,354.7,370.4z M235,374l-0.2-0.4c-0.8-2.1-1.5-4.1-2.1-6.2c-2.4-8.9-2.5-18.4-0.2-27.4
		c0.2-0.9,0.7-1.8,1.3-2.5c0-0.1,0.1-0.1,0.1-0.2l0.1-0.1c0.1-0.1,0.1-0.2,0.2-0.2c0.3-0.3,0.6-0.5,1.1-0.8l0.1-0.1
		c0.1,0,0.1-0.1,0.2-0.1l0.1-0.1c0,0,0.1,0,0.1,0l0.1-0.1c0.1,0,0.1,0,0.1,0l0.1,0c0.2-0.1,0.3-0.1,0.5-0.2l0.1,0
		c9-2.2,18.5-2.1,27.4,0.2c2.1,0.6,4.2,1.3,6.2,2.1l0.4,0.2l-0.2,0.5c-1.2,3.4-2.1,7-2.6,10.6l-0.1,0.4h-0.6l-0.1-0.1
		c-2-0.9-4.1-1.6-6.1-2.2c-4.9-1.3-10.2-1.7-15.3-1.2c-1,0.1-1.8,0.2-2.5,0.3c-0.4,2.2-0.5,4.5-0.5,6.8c0,3.8,0.5,7.5,1.4,11.1
		c0.5,1.9,1.2,3.7,1.9,5.6h0l0.1,0.4c0,0.1,0.1,0.2,0.1,0.3l0.3,0.6l-0.7,0.1c-3.6,0.5-7.2,1.4-10.6,2.6L235,374z M234.7,338
		L234.7,338c-0.1,0.1-0.1,0.1-0.1,0.1c-0.5,0.6-0.9,1.3-1.1,2.1c-2.2,8.8-2.1,18.1,0.2,26.9c0.5,1.8,1.1,3.7,1.8,5.6
		c3.2-1.1,6.4-1.9,9.7-2.4c-0.8-1.9-1.5-3.9-2-5.8c-1-3.7-1.5-7.5-1.5-11.4c0-2.4,0.2-4.9,0.6-7.3l0.1-0.4l0.3-0.1
		c0.9-0.1,1.8-0.3,2.9-0.4c5.3-0.5,10.6-0.1,15.7,1.3c1.9,0.5,3.8,1.2,5.7,2c0.5-3.3,1.3-6.5,2.4-9.7c-1.8-0.7-3.7-1.3-5.6-1.9
		c-8.7-2.3-18.1-2.4-26.9-0.2l-0.1,0c-0.1,0-0.3,0.1-0.4,0.1c-0.1,0-0.1,0.1-0.2,0.1l0,0c0,0-0.1,0-0.1,0l-0.1,0.1l-0.2,0
		c0,0,0,0-0.1,0l-0.3,0.1c-0.3,0.2-0.6,0.4-0.8,0.6l-0.1,0.1C234.8,338,234.8,338,234.7,338z"/>
</g>
<g id="XMLID_433_">
	<rect id="XMLID_368_" x="259.5" y="41.1" class="st1" width="81.1" height="57.9"/>
	<path id="XMLID_434_" class="st1" d="M340.5,101h-81.1c-1.1,0-2-0.9-2-2V41.1c0-1.1,0.9-2,2-2h81.1c1.1,0,2,0.9,2,2V99
		C342.5,100.1,341.6,101,340.5,101z M261.5,97h77.1V43.1h-77.1V97z"/>
</g>
</svg>
