<?xml version="1.0" encoding="utf-8"?>
<!-- Generator: Adobe Illustrator 19.0.0, SVG Export Plug-In . SVG Version: 6.00 Build 0)  -->
<svg version="1.1" id="Camada_1" xmlns="http://www.w3.org/2000/svg" xmlns:xlink="http://www.w3.org/1999/xlink" x="0px" y="0px"
	 viewBox="0 0 600 600" style="enable-background:new 0 0 600 600;" xml:space="preserve">
<style type="text/css">
	.st0{fill:#027935;}
	.st1{fill:#FFFFFF;}
</style>
<g id="XMLID_487_">
	<circle id="XMLID_488_" class="st0" cx="300" cy="300" r="297.5"/>
</g>
<g id="XMLID_389_">
	<g id="XMLID_428_">
		<path id="XMLID_365_" class="st1" d="M334.6,103.1h0.4c6.1,0,11.2-4.8,11.2-11.1V53.5v-0.3c0-6.2-5.1-11.3-11.2-11.3h-69.6h-0.3
			c-6.2,0-11.4,5.1-11.4,11.3v38.4v0.3c0,6.3,5.2,11.1,11.4,11.1H334.6z"/>
		<path id="XMLID_429_" class="st1" d="M335,104.1h-69.9c-6.9,0-12.5-5.5-12.5-12.2V53.3c0-6.7,5.7-12.3,12.5-12.3H335
			c6.6,0,12.2,5.6,12.2,12.3v38.7C347.2,98.6,341.7,104.1,335,104.1z M265.1,43c-5.6,0-10.4,4.7-10.4,10.3v38.7
			c0,5.6,4.7,10.1,10.4,10.1H335c5.6,0,10.1-4.5,10.1-10.1V53.3c0-5.6-4.6-10.3-10.1-10.3H265.1z"/>
	</g>
	<g id="XMLID_419_">
		<path id="XMLID_425_" class="st1" d="M184.3,222.1c-3.6,2.5-5.9,6.3-6.5,10.8L141,437.4l-0.7,1.8c-7.8,45.2,15.8,90.1,57.5,109.3
			c13.9,6.3,28.6,9.5,43.8,9.5h117.2c30.3,0,58.9-13.3,78.4-36.6c19.7-23.4,27.8-53.6,22.4-82.9l-37.1-205.6
			c-0.8-4.3-3.5-8.6-6.9-11.1l-58-48.3v-9.2c13.3-1.7,23.2-12.6,23.2-26.3c0-14.5-12-26.2-26.8-26.2H246
			c-14.8,0-26.8,11.8-26.8,26.2c0,13.4,10.1,24.5,23.2,26.3v9.2L184.3,222.1z M271.3,192.1c4.4-3.4,7-8.8,7-14.6v-17.1h43.4v17.1
			c0,5.3,2.3,10.4,6.4,13.8L388,242l36.1,201.7c3.5,19.2-1.8,39-14.6,54.3c-12.7,15.2-31.2,23.9-50.9,23.9H241.6
			c-10.3,0-19.6-2-28.5-6.1c-27-12.5-42.3-42-37.1-72.1L212,242L271.3,192.1z"/>
		<path id="XMLID_420_" class="st1" d="M358.7,559.1H241.6c-15.3,0-30.2-3.2-44.2-9.6c-42.1-19.4-66-64.8-58.1-110.4
			c0-0.1,0-0.1,0.1-0.2l0.6-1.7l36.8-204.3c0.7-4.8,3.1-8.8,7-11.5l57.6-48.3v-7.9c-13.3-2.2-23.2-13.7-23.2-27.2
			c0-15,12.5-27.2,27.8-27.2h108c15.3,0,27.8,12.2,27.8,27.2c0,13.7-9.7,25-23.2,27.2v7.8l57.6,48c3.6,2.7,6.5,7.2,7.3,11.8
			l37.1,205.6c5.5,29.7-2.8,60.2-22.6,83.8C418.2,545.6,389.3,559.1,358.7,559.1z M141.3,439.5c-7.7,44.7,15.7,89.1,56.9,108.1
			c13.7,6.3,28.3,9.4,43.3,9.4h117.2c30,0,58.3-13.2,77.6-36.2c19.5-23.1,27.6-53,22.2-82.1l-37.1-205.6c-0.7-4-3.2-8.1-6.5-10.5
			l-58-48.3c-0.2-0.2-0.4-0.5-0.4-0.8v-9.2c0-0.5,0.4-1,0.9-1c12.9-1.7,22.3-12.3,22.3-25.3c0-13.9-11.6-25.2-25.8-25.2H246
			c-14.2,0-25.7,11.3-25.7,25.2c0,12.7,9.6,23.6,22.3,25.2c0.5,0.1,0.9,0.5,0.9,1v9.2c0,0.3-0.1,0.6-0.4,0.8L185,222.9
			c-3.4,2.4-5.5,5.9-6.2,10.2L142,437.6c0,0.1,0,0.1,0,0.2L141.3,439.5z M358.7,522.9H241.6c-10.4,0-19.9-2-28.9-6.2
			c-27.4-12.7-42.9-42.8-37.7-73.2l36-201.7c0-0.2,0.2-0.5,0.4-0.6l59.3-49.9c4.2-3.2,6.7-8.4,6.7-13.8v-17.1c0-0.6,0.5-1,1-1h43.4
			c0.6,0,1,0.5,1,1v17.1c0,5,2.2,9.8,6,13l59.9,50.7c0.2,0.2,0.3,0.4,0.3,0.6l36.1,201.7c3.5,19.6-1.9,39.7-14.8,55.1
			C397.5,514,378.7,522.9,358.7,522.9z M212.9,242.6L177,443.9c-5.1,29.5,9.9,58.6,36.5,71c8.7,4,17.9,6,28,6h117.2
			c19.4,0,37.6-8.6,50.1-23.5c12.5-15,17.8-34.5,14.3-53.4l-36.1-201.3l-59.6-50.4c-4.3-3.7-6.8-9-6.8-14.6v-16.1h-41.4v16.1
			c0,6.1-2.8,11.8-7.4,15.4L212.9,242.6z"/>
	</g>
	<g id="XMLID_321_">
		<path id="XMLID_409_" class="st1" d="M320.2,319.6c-4.1-7-9.9-12.9-16.8-17.1c-1.5-0.9-3.4-0.9-5,0c-6.9,4.2-12.8,10.1-16.8,17.1
			c-4.2,7.2-6.4,15.5-6.4,23.9c0,2,0.1,4,0.4,6h0c0.1,0.3,0.1,0.6,0.1,0.9c0,0,0.1,0.8,0.1,0.8v0c0,0,0,0,0,0.1
			c0.7,4.1,2.4,7.9,4.8,11c0.1,0.2,0.2,0.3,0.4,0.5c0,0,0,0,0,0c0,0,0.1,0.1,0.1,0.1c0,0,0,0,0,0c1,1.2,2.2,2.1,3.6,2.8
			c1.4,0.7,3,1,4.6,1c1.3,0,2.6-0.2,3.7-0.7c4.1-1.5,7-5.3,7.1-9.8c0-0.2,0-0.3,0-0.5c0-0.8-0.1-1.6-0.3-2.4
			c-0.6-3.6-2-7.1-4.3-10.3c0,0,0,0,0,0l-0.1-0.1c-0.1-0.1-0.4-0.6-0.4-0.6c-1.4-1.9-2.9-3.6-4.5-5.2c-0.5-0.5-1-1-1.5-1.4
			c-0.6,2.6-0.9,5.2-0.9,7.8c0,1.6,0.1,3.3,0.3,5c0,0,0,0,0,0v0c0,0.1,0,0.2,0.1,0.3c0,0,0,0.1,0,0.2c0,0,0,0,0,0c0,0,0,0.1,0,0.1
			c0.1,0.6,0.3,1.2,0.5,1.9c0,0,0,0,0,0c0.2,0.4,0.4,0.9,0.6,1.4c0.3,0.9,0.5,1.8,0.7,2.7c0,0.2,0.1,0.5,0.1,0.7v0.1
			c0,0.6-0.5,1.2-1.1,1.2c0,0-0.1,0-0.1,0h-0.1c-0.3,0-0.6-0.2-0.8-0.4c-0.5-0.7-1-1.4-1.4-2.1v0c-0.4-0.8-0.8-1.6-1.1-2.4h0
			c-0.3-0.8-0.5-1.6-0.6-2.5l0-0.1v-0.1l0-0.1h0l-0.1-0.4l0,0c-0.2-1.8-0.4-3.7-0.4-5.6c0-6.7,1.8-13.3,5.1-19.1
			c1.1-1.8,2.2-3.5,3.6-5.1c0.1-0.1,0.2-0.2,0.2-0.3c0.1-0.2,0.3-0.4,0.4-0.5c0.2-0.2,0.3-0.4,0.5-0.5c0,0,0.1-0.1,0.1-0.1
			c0.1,0,0.1-0.1,0.1-0.1c0.4-0.4,0.8-0.8,1.2-1.3c0.5-0.5,1-1,1.6-1.4c0.1-0.1,0.2-0.2,0.4-0.3c0.2-0.2,0.5-0.4,0.7-0.6
			c0.3-0.2,0.5-0.4,0.8-0.6c0.1-0.1,0.2-0.2,0.3-0.2c0.4-0.3,0.7-0.6,1.1-0.8c0.7,0.5,1.4,1,2.1,1.6v0c3.6,2.9,6.6,6.5,8.9,10.5
			c0.6,1,1.2,2.1,1.6,3.2c0.1,0.1,0.1,0.2,0.1,0.3c0.1,0.3,0.2,0.5,0.4,0.8c0.1,0.2,0.2,0.4,0.2,0.5c0.1,0.1,0.1,0.3,0.2,0.4
			c0.1,0.1,0.1,0.2,0.1,0.3c0,0,0,0.1,0,0.1c0,0,0,0.1,0.1,0.1c0.1,0.2,0.2,0.4,0.2,0.6c0,0.1,0.1,0.2,0.1,0.2c0,0,0,0.1,0,0.1
			c0.1,0.1,0.1,0.3,0.2,0.4c0.1,0.2,0.1,0.5,0.2,0.7c0,0.2,0.1,0.3,0.2,0.5c0,0.1,0.1,0.3,0.1,0.4v0c0.9,3.3,1.4,6.8,1.4,10.3
			c0,0.7,0,1.3-0.1,2c0,0.1,0,0.3,0,0.4c0,0,0,0.1,0,0.1c0,0.2,0,0.4,0,0.5c0,0.3-0.1,0.6-0.1,0.8c0,0.2,0,0.4-0.1,0.6
			c0,0.2-0.1,0.4-0.1,0.6c0,0.2-0.1,0.3-0.1,0.5v0l-0.1,0.4l0,0.1v0l0,0.1c-0.5,2.7-1.6,5.1-3.2,7.1c0,0-0.1,0.1-0.1,0.1
			c-0.1,0.1-0.1,0.1-0.2,0.2c-0.5,0.3-1.1,0.2-1.5-0.2c0,0-0.1-0.1-0.1-0.1c-0.2-0.3-0.3-0.6-0.2-0.9c0.1-0.6,0.2-1.2,0.3-1.8
			c0,0,0,0,0,0c0.1-0.2,0.1-0.4,0.2-0.6l0,0c0.2-0.6,0.4-1.2,0.6-1.7v0c0.1-0.2,0.2-0.4,0.3-0.6c0.2-0.6,0.4-1.3,0.5-1.9
			c0,0,0,0,0,0c0-0.1,0-0.2,0.1-0.2l0.1-0.5c0-0.1,0-0.1,0-0.2c0-0.1,0-0.3,0.1-0.5c0-0.2,0.1-0.3,0.1-0.5l0.1-0.8
			c0-0.1,0-0.3,0-0.4c0,0,0-0.1,0-0.2v-0.3c0-0.1,0-0.1,0-0.2c0-0.6,0.1-1.2,0.1-1.8c0-2.6-0.3-5.3-0.9-7.8c-0.5,0.4-1,0.9-1.5,1.4
			c-1.6,1.6-3.2,3.4-4.5,5.2c0,0-0.3,0.4-0.4,0.6l-0.1,0.1c0,0,0,0,0,0c-2.6,3.6-4,7.7-4.5,11.8v0c0,0.1,0,0.1,0,0.2v0
			c0,0.3,0,0.6,0,0.9c0,2.8,1,5.6,3.2,7.7c0.9,0.9,2,1.7,3.1,2.2c3.9,1.8,8.7,1.2,12-2c0.1-0.1,0.2-0.2,0.3-0.3
			c0.5-0.5,0.9-1,1.3-1.5c0.1-0.1,0.2-0.2,0.2-0.4c2.1-3,3.6-6.5,4.3-10.3c0,0,0,0,0,0l0-0.1c0-0.2,0.1-0.7,0.1-0.7
			c0-0.3,0.1-0.6,0.1-0.9c0.2-2,0.4-4,0.4-6C326.5,335.1,324.3,326.8,320.2,319.6z M382,381.2c-4.2-6.9-10.1-12.7-17.1-16.8
			c-7.2-4.2-15.5-6.4-23.9-6.4c-2,0-4,0.1-6,0.4v0c-0.3,0-0.6,0.1-0.9,0.1h0c0,0-0.6,0.1-0.7,0.1l-0.1,0c0,0,0,0-0.1,0
			c-3.9,0.7-7.5,2.2-10.6,4.5c-0.3,0.2-0.6,0.5-1,0.7l0,0c-0.1,0-0.1,0.1-0.1,0.1c-1.2,1-2.1,2.2-2.8,3.6c-0.6,1.4-1,3-1,4.6
			c0,1.3,0.2,2.6,0.7,3.7c1.5,4.1,5.3,7,9.9,7.1h0.4c0.8,0,1.6-0.1,2.4-0.3c3.6-0.6,7.1-2,10.3-4.3c0,0,0,0,0,0l0.1,0
			c0,0,0.6-0.4,0.6-0.5c1.8-1.4,3.6-2.9,5.2-4.5c0.5-0.5,0.9-1,1.4-1.5c-4.1-1-8.4-1.1-12.7-0.6c-0.1,0-0.1,0-0.2,0l-0.1,0
			c-0.1,0-0.1,0-0.1,0c-0.1,0-0.1,0-0.2,0c-0.4,0.1-0.8,0.2-1.1,0.3c-0.1,0-0.3,0.1-0.4,0.1c-1.7,0.8-3.4,1.3-5.2,1.6h-0.1
			c-0.7,0-1.2-0.5-1.2-1.2V372c0.1-0.3,0.2-0.6,0.4-0.8c0.6-0.5,1.3-0.9,2-1.3c0-0.1,0.1-0.1,0.1-0.1h0c0.8-0.4,1.6-0.8,2.4-1.1v0
			c0.8-0.3,1.7-0.5,2.6-0.7h0l0,0l0.1,0l0.4-0.1l0,0c1.8-0.3,3.7-0.4,5.6-0.4c6.7,0,13.3,1.8,19.1,5.1c0.7,0.4,1.4,0.9,2.1,1.3
			c0,0,0,0,0.1,0c0.3,0.2,0.6,0.4,0.9,0.7c0,0,0.1,0,0.1,0.1c0.3,0.2,0.6,0.4,0.9,0.7c0,0,0,0,0.1,0.1c0.3,0.2,0.6,0.5,0.9,0.7
			c0.1,0.1,0.3,0.2,0.4,0.4c0.1,0.1,0.3,0.2,0.4,0.3c0.2,0.2,0.4,0.4,0.6,0.5c0.1,0,0.1,0.1,0.2,0.2c0.4,0.4,0.9,0.8,1.3,1.2
			c0.5,0.5,1,1,1.4,1.5c0.1,0.1,0.2,0.3,0.4,0.5c0.1,0.2,0.3,0.3,0.5,0.5c0.3,0.3,0.5,0.7,0.8,1c0,0.1,0.1,0.2,0.2,0.2
			c0.3,0.4,0.6,0.8,0.9,1.2c-0.5,0.7-1,1.4-1.6,2.1c0,0,0,0.1-0.1,0.1c-0.1,0.2-0.3,0.4-0.4,0.5c-0.1,0-0.1,0.1-0.1,0.1
			c-0.7,0.8-1.5,1.7-2.3,2.4c0,0,0,0,0,0c-0.2,0.2-0.3,0.3-0.5,0.5c0,0-0.1,0.1-0.1,0.1c-0.2,0.2-0.3,0.3-0.5,0.5
			c0,0-0.1,0.1-0.1,0.1c-0.2,0.2-0.4,0.3-0.6,0.5c0,0-0.1,0-0.1,0.1c-0.6,0.5-1.2,1-1.9,1.5c0,0,0,0-0.1,0c-0.2,0.1-0.4,0.3-0.6,0.4
			c-0.1,0-0.1,0.1-0.2,0.1c-0.2,0.1-0.4,0.3-0.6,0.4c-0.1,0.1-0.1,0.1-0.2,0.1c-0.2,0.1-0.4,0.3-0.6,0.4c-0.1,0-0.1,0-0.1,0.1
			c-0.5,0.3-0.9,0.5-1.4,0.8c-5.8,3.3-12.4,5.1-19.1,5.1c-1.8,0-3.7-0.1-5.6-0.4l0,0l-0.4,0v0l-0.1,0h0c0,0,0,0,0,0
			c-2.7-0.5-5.1-1.6-7.1-3.2c0,0-0.1-0.1-0.1-0.1c-0.2-0.2-0.3-0.4-0.4-0.7c-0.1-0.4,0.1-0.8,0.4-1.1c0,0,0.1,0,0.1-0.1
			c0.2-0.2,0.6-0.3,0.9-0.2c0.3,0,0.7,0.1,1,0.2c0,0,0,0,0,0c0.5,0.1,1,0.2,1.5,0.3v0c0.4,0.1,0.8,0.2,1.2,0.4
			c0.4,0.2,0.8,0.3,1.2,0.5c0,0,0.1,0,0.1,0c0.6,0.2,1.2,0.4,1.8,0.5c0.1,0,0.2,0,0.3,0c0,0,0,0,0,0h0.1c0.1,0,0.2,0,0.2,0
			c1.7,0.2,3.3,0.4,5,0.4c2.7,0,5.3-0.3,7.8-0.9c-0.4-0.5-0.9-1-1.4-1.5c-1.6-1.6-3.4-3.2-5.2-4.5c0,0-0.5-0.3-0.6-0.4l-0.1,0
			c0,0,0,0-0.1,0c-3.6-2.6-7.7-4-11.8-4.5c0,0,0,0,0,0c-0.1,0-0.1,0-0.2,0h0c-0.3,0-0.6,0-0.9,0c-2.8,0-5.5,1.1-7.7,3.2
			c-0.9,0.9-1.7,2-2.2,3.1c-1.8,3.9-1.2,8.7,1.9,12c0.1,0.1,0.2,0.2,0.4,0.3c0.2,0.2,0.4,0.4,0.6,0.6c0.4,0.4,0.8,0.7,1.2,1
			c3,2.1,6.5,3.6,10.3,4.3c0,0,0,0,0.1,0l0.1,0c0.2,0,0.7,0.1,0.7,0.1c0.3,0,0.6,0.1,0.9,0.1c2,0.2,4,0.4,6,0.4
			c1.5,0,3.1-0.1,4.6-0.2c0.1,0,0.2,0,0.4,0c6.6-0.7,13.1-2.8,18.9-6.1c7-4,12.9-9.9,17.1-16.8C383,384.6,383,382.7,382,381.2z
			 M326.2,417.8L326.2,417.8c0-0.3-0.1-0.6-0.1-0.9c0,0,0,0,0,0c0,0-0.1-0.5-0.1-0.7l0-0.1c0,0,0,0,0,0c-0.7-4.3-2.5-8.1-5-11.3
			c0-0.1-0.1-0.1-0.1-0.2c0,0,0,0,0,0c0,0-0.1-0.1-0.1-0.1h0c0,0,0,0,0,0c-2-2.3-4.9-3.8-8.3-3.8c-1.3,0-2.6,0.2-3.7,0.7
			c-4.1,1.5-7,5.3-7.1,9.9c0,0.2,0,0.3,0,0.5c0,0.8,0.1,1.6,0.3,2.4c0.6,3.6,2,7.2,4.3,10.3c0,0,0,0,0,0l0,0c0,0,0,0,0,0
			c0,0,0,0,0,0c0.1,0.1,0.4,0.5,0.4,0.6c1.4,1.9,2.9,3.6,4.5,5.2c0.5,0.5,1,1,1.5,1.4c0.6-2.6,0.9-5.2,0.9-7.8c0-1.6-0.1-3.3-0.4-5
			l0,0c0,0,0,0,0,0c-0.1-0.2-0.1-0.3-0.1-0.5c0,0,0,0,0-0.1c-0.1-0.6-0.3-1.3-0.5-1.9c0,0,0,0,0-0.1c-0.7-1.5-1.2-3.1-1.4-4.8v-0.1
			c0-0.7,0.6-1.2,1.2-1.2c0.1,0,0.1,0,0.1,0c0.3,0,0.6,0.2,0.8,0.4c0.1,0.2,0.3,0.3,0.4,0.5c0.4,0.5,0.7,1,1,1.6l0,0
			c0.4,0.8,0.8,1.6,1.1,2.4h0c0.3,0.8,0.5,1.7,0.7,2.6v0l0,0.1l0,0.1h0l0.1,0.4v0c0.3,1.8,0.4,3.7,0.4,5.6c0,6.7-1.8,13.3-5.1,19.1
			c-2.7,4.8-6.5,8.9-11,12.1c-0.7-0.5-1.4-1-2.1-1.6c0,0,0,0,0,0c-0.2-0.2-0.4-0.4-0.6-0.5c0,0,0,0,0,0c-0.9-0.7-1.7-1.5-2.5-2.3
			c0,0-0.1,0-0.1-0.1c-0.2-0.2-0.3-0.3-0.5-0.5c-0.1-0.1-0.1-0.1-0.2-0.2c-0.1-0.2-0.3-0.3-0.4-0.5c-0.1-0.1-0.1-0.2-0.2-0.3
			c-0.1-0.1-0.3-0.3-0.4-0.4c-0.1-0.1-0.2-0.2-0.3-0.3c-0.1-0.1-0.2-0.3-0.3-0.4c-0.2-0.2-0.4-0.5-0.6-0.7c0-0.1-0.1-0.2-0.2-0.3
			c-0.1-0.2-0.3-0.3-0.4-0.5c-0.1-0.1-0.1-0.2-0.2-0.3c-0.1-0.2-0.3-0.3-0.4-0.5c-0.1-0.1-0.1-0.2-0.2-0.3c-0.1-0.2-0.2-0.4-0.4-0.6
			c0-0.1-0.1-0.1-0.2-0.2c-0.1-0.2-0.3-0.4-0.4-0.6c0-0.1-0.1-0.1-0.1-0.2c-0.2-0.3-0.3-0.6-0.5-0.8c0,0-0.1-0.1-0.1-0.2
			c-0.2-0.3-0.4-0.7-0.6-1c-0.1-0.1-0.1-0.2-0.2-0.3c-0.1-0.3-0.3-0.6-0.5-0.9c0-0.1-0.1-0.2-0.1-0.3c-0.1-0.3-0.3-0.7-0.5-1
			c0-0.1-0.1-0.1-0.1-0.2c-0.7-1.5-1.2-3.1-1.7-4.7v0c-0.9-3.4-1.4-6.8-1.4-10.3c0-0.6,0-1.2,0-1.8c0-0.3,0-0.5,0.1-0.8
			c0-0.2,0-0.4,0.1-0.6c0-0.2,0-0.5,0-0.7c0-0.2,0-0.3,0-0.5c0-0.3,0.1-0.6,0.1-0.9c0-0.1,0-0.2,0-0.3l0,0l0.1-0.4v-0.1l0,0v0
			c0.4-2.1,1.2-4.1,2.3-5.8c0.3-0.4,0.6-0.9,0.9-1.3c0,0,0.1-0.1,0.1-0.1c0.5-0.5,1.3-0.5,1.8,0c0,0,0.1,0.1,0.1,0.1
			c0.2,0.2,0.3,0.6,0.3,0.9c-0.1,0.8-0.3,1.6-0.5,2.5l0,0c-0.2,0.7-0.5,1.5-0.8,2.2c0,0.1,0,0.1,0,0.2c-0.3,0.7-0.4,1.3-0.5,1.9
			c0,0,0,0.1,0,0.1c0,0,0,0,0,0l0,0.3c0,0,0,0.1,0,0.1c0,0,0,0.2,0,0.3c0,0.2-0.1,0.5-0.1,0.8l-0.1,0.4c0,0.2,0,0.4,0,0.5
			c0,0.1,0,0.2,0,0.3l0,0.4c0,0.1,0,0.3,0,0.5c0,0.7,0,1.2,0,1.7c0,2.7,0.3,5.3,0.9,7.8c0.5-0.5,1-1,1.5-1.4
			c1.6-1.6,3.1-3.4,4.5-5.2c0,0,0.3-0.4,0.4-0.5l0.1-0.1c0,0,0,0,0-0.1c2.5-3.6,4-7.7,4.5-11.8v0c0-0.1,0-0.1,0-0.2v0
			c0-0.3,0-0.6,0-0.9c0-2.8-1.1-5.6-3.2-7.7c-0.9-0.9-2-1.7-3.1-2.2c-3.9-1.8-8.7-1.2-12,1.9c-0.1,0.1-0.2,0.2-0.3,0.3
			c-0.5,0.5-0.9,1-1.3,1.5c-0.1,0.1-0.2,0.2-0.2,0.4c-2.1,3-3.6,6.5-4.3,10.3c0,0,0,0,0,0v0.1c0,0-0.1,0.7-0.1,0.8
			c-0.1,0.3-0.1,0.6-0.1,0.9h0c-0.2,2-0.4,4-0.4,6c0,8.4,2.2,16.7,6.4,23.9c4,7,9.9,12.9,16.8,17.1c0.1,0,0.2,0.1,0.3,0.1
			c0,0,0.1,0,0.1,0.1c0.1,0,0.1,0.1,0.2,0.1c0,0,0,0,0,0c0.1,0,0.2,0.1,0.3,0.1c0,0,0,0,0,0c0.1,0,0.2,0.1,0.3,0.1
			c0.2,0,0.4,0.1,0.6,0.1c0,0,0,0,0,0c0.1,0,0.2,0,0.2,0h0.1c0.1,0,0.1,0,0.2,0c0.1,0,0.1,0,0.2,0c0,0,0,0,0,0
			c0.9,0,1.7-0.2,2.5-0.7c6.9-4.2,12.7-10.1,16.8-17.1c4.2-7.2,6.4-15.5,6.4-23.9C326.5,421.8,326.4,419.8,326.2,417.8z
			 M273.5,384.3c-0.2,0-0.3,0-0.5,0c-0.8,0-1.6,0.1-2.4,0.3c-3.6,0.6-7.2,2-10.3,4.3c0,0,0,0,0,0l0,0l-0.1,0
			c-0.2,0.1-0.5,0.4-0.6,0.4c-1.9,1.4-3.6,2.9-5.2,4.5c-0.5,0.5-1,1-1.4,1.5c2.5,0.6,5.2,0.9,7.8,0.9c1.6,0,3.3-0.1,5-0.4
			c0,0,0.1,0,0.1,0c0.1,0,0.1,0,0.2,0c0.1,0,0.2-0.1,0.4-0.1c0.6-0.1,1.2-0.3,1.9-0.5c0,0,0,0,0.1,0c0.2-0.1,0.5-0.2,0.7-0.3
			c0.1,0,0.1-0.1,0.2-0.1c0.1,0,0.2-0.1,0.4-0.1c1.2-0.4,2.3-0.7,3.5-0.9c0,0,0.1,0,0.1,0c0.7,0,1.3,0.6,1.3,1.2c0,0.1,0,0.1,0,0.1
			c0,0.3-0.2,0.6-0.4,0.8c-0.1,0.1-0.3,0.2-0.4,0.3c-0.5,0.4-1.1,0.8-1.7,1.1h0c-0.8,0.4-1.6,0.8-2.4,1.1v0
			c-0.8,0.3-1.7,0.5-2.6,0.7h0l-0.1,0l-0.1,0v0l-0.4,0l0,0c-1.8,0.3-3.7,0.4-5.6,0.4c-6.7,0-13.3-1.8-19.1-5.1
			c-4.8-2.8-8.9-6.5-12.1-11c0.5-0.7,1.1-1.4,1.6-2.1h0c2.9-3.6,6.5-6.6,10.5-8.9c1.7-1,3.5-1.8,5.3-2.5c0.1,0,0.2-0.1,0.3-0.1
			c0.3-0.1,0.6-0.2,0.9-0.3c0,0,0.1,0,0.2-0.1c0.7-0.2,1.5-0.5,2.2-0.7c3.3-0.9,6.8-1.4,10.3-1.4c0.5,0,1,0,1.4,0h0.1
			c1.3,0.1,2.7,0.2,4,0.4h0l0.5,0.1h0l0.1,0h0c1.8,0.3,3.5,0.9,5.1,1.8c0.7,0.4,1.4,0.9,2,1.4c0,0,0.1,0,0.1,0.1
			c0.5,0.5,0.5,1.3,0,1.8c0,0-0.1,0.1-0.1,0.1c-0.3,0.2-0.6,0.3-0.9,0.3c-0.8-0.1-1.7-0.3-2.5-0.5l0,0c-0.8-0.2-1.6-0.5-2.5-0.9
			c-0.1,0-0.1-0.1-0.1-0.1c0,0,0,0,0,0c-0.2,0-0.3,0-0.5-0.1c-0.3-0.1-0.7-0.2-1-0.3c-0.1,0-0.2,0-0.3,0c0,0,0,0,0,0l-0.2,0
			c-0.1,0-0.1,0-0.2,0c-1.2-0.2-2.4-0.3-3.7-0.3c-0.5,0-0.9,0-1.3,0c-2.7,0-5.3,0.3-7.8,0.9c0.5,0.5,0.9,1,1.4,1.5
			c1.6,1.6,3.4,3.1,5.2,4.5h0c0,0,0.4,0.3,0.6,0.4l0,0c0,0,0,0,0,0l0.1,0c0,0,0,0,0,0c3.6,2.5,7.7,4,11.8,4.5c0,0,0,0,0,0
			c0.1,0,0.1,0,0.2,0c0.3,0,0.6,0,0.9,0c2.8,0,5.6-1.1,7.7-3.2c0.9-0.9,1.7-2,2.2-3.1c1.8-3.9,1.2-8.7-1.9-12
			c-0.1-0.1-0.2-0.2-0.3-0.3c-0.5-0.5-1-0.9-1.6-1.3c-0.1-0.1-0.2-0.1-0.3-0.2c-3-2.1-6.5-3.6-10.3-4.3c0,0,0,0,0,0l-0.1,0
			c0,0-0.7-0.1-0.8-0.1c-0.3,0-0.6-0.1-0.9-0.1v0c-2-0.2-4-0.4-6-0.4c-8.4,0-16.7,2.2-23.9,6.4c-7,4.1-12.9,9.9-17.1,16.8
			c-0.9,1.5-0.9,3.4,0,4.9c4.2,7,10.1,12.8,17.1,16.8c7.2,4.2,15.5,6.4,23.9,6.4c2,0,4-0.1,6-0.4v0c0.3,0,0.6-0.1,0.9-0.1
			c0.1,0,0.5-0.1,0.7-0.1l0.1,0c0,0,0,0,0.1,0c3.9-0.7,7.5-2.2,10.6-4.5c0.3-0.2,0.7-0.5,1-0.7v0h0c0-0.1,0.1-0.1,0.1-0.1
			c0,0,0,0,0,0v0c2.3-2,3.8-4.9,3.8-8.3c0-1.3-0.2-2.6-0.7-3.7C281.9,387.3,278,384.4,273.5,384.3z M360,328c0-0.2-0.1-0.3-0.1-0.5
			c0-0.1,0-0.1-0.1-0.2c0,0,0,0,0,0c0-0.1-0.1-0.2-0.1-0.2c0,0,0,0,0,0c-0.1-0.1-0.1-0.2-0.1-0.3l0,0c-0.2-0.3-0.4-0.6-0.7-0.9
			c0,0,0-0.1-0.1-0.1c0,0-0.1-0.1-0.1-0.1c-0.1-0.1-0.1-0.1-0.2-0.1c0,0,0,0,0,0c-0.6-0.5-1.2-0.9-2-1c-7.9-2-16.2-1.9-24,0.2
			c-1.8,0.5-3.7,1.1-5.4,1.8c1.1,3.1,1.9,6.3,2.3,9.5c0.1-0.1,0.2-0.1,0.3-0.1v0c1.7-0.7,3.5-1.4,5.3-1.8c3.2-0.9,6.6-1.3,9.9-1.3
			c2.1,0,4.2,0.2,6.4,0.5c0.2,0.9,0.3,1.7,0.3,2.6l0,0c0.5,4.6,0.1,9.2-1.1,13.7c-0.5,1.9-1.2,3.7-1.9,5.5c0,0,0,0.1,0,0.1
			c3.2,0.4,6.4,1.2,9.4,2.3c0.7-1.8,1.3-3.5,1.8-5.4C361.9,344.1,362,335.8,360,328z M272.2,431.3c-0.1,0-0.2,0.1-0.3,0.1
			c-1.7,0.7-3.5,1.4-5.3,1.9c-3.3,0.9-6.6,1.3-9.9,1.3c-2.1,0-4.3-0.2-6.3-0.5c-0.1-0.9-0.3-1.7-0.3-2.6l0,0
			c-0.5-4.6-0.1-9.2,1.1-13.7c0.5-1.9,1.2-3.7,2-5.5c0,0,0,0,0,0c-3.2-0.5-6.4-1.3-9.5-2.3c-0.7,1.7-1.3,3.5-1.8,5.4
			c-2.1,7.8-2.2,16.1-0.2,24c0,0.2,0.1,0.3,0.1,0.5c0,0,0,0.1,0.1,0.1c0,0,0,0.1,0,0.1c0,0.1,0.1,0.1,0.1,0.2c0,0,0,0,0,0
			c0,0.1,0.1,0.2,0.1,0.3l0,0c0.2,0.3,0.4,0.6,0.7,0.9c0,0,0,0.1,0.1,0.1c0,0,0,0.1,0.1,0.1c0,0.1,0.1,0.1,0.2,0.2c0,0,0,0,0,0
			c0.6,0.5,1.2,0.9,2,1.1c7.9,2,16.1,1.9,24-0.2c1.8-0.5,3.6-1.1,5.4-1.8C273.5,437.7,272.7,434.6,272.2,431.3z M359.8,415.3
			c-0.5-1.8-1.1-3.6-1.8-5.4c-3.1,1.1-6.2,1.8-9.5,2.3c0.1,0.1,0.1,0.2,0.1,0.3h0c0.7,1.7,1.3,3.5,1.8,5.3c0.9,3.3,1.3,6.6,1.3,10
			c0,2.1-0.2,4.2-0.5,6.3c-0.9,0.1-1.7,0.3-2.6,0.3v0c-4.6,0.5-9.2,0.1-13.7-1.1c-1.9-0.5-3.7-1.1-5.5-1.9c0,0,0,0-0.1,0
			c-0.5,3.2-1.2,6.4-2.3,9.4c1.8,0.7,3.6,1.3,5.4,1.8c7.8,2.1,16.1,2.2,24,0.2c0.2,0,0.3-0.1,0.4-0.1c0.1,0,0.1,0,0.2,0
			c0,0,0,0,0.1,0c0.1,0,0.2-0.1,0.2-0.1c0,0,0,0,0,0c0.1,0,0.2-0.1,0.3-0.1c0.3-0.2,0.7-0.4,0.9-0.7c0,0,0.1,0,0.1-0.1
			c0,0,0.1-0.1,0.1-0.1c0.1-0.1,0.1-0.1,0.2-0.2c0.5-0.6,0.9-1.3,1.1-2C362,431.4,361.9,423.1,359.8,415.3z M269.2,324.7
			c-7.8-2.1-16.1-2.2-24-0.2c-0.2,0.1-0.3,0.1-0.5,0.1c-0.1,0-0.1,0.1-0.2,0.1c0,0,0,0-0.1,0c-0.1,0-0.2,0.1-0.2,0.1c0,0,0,0-0.1,0
			c-0.1,0-0.2,0.1-0.2,0.1h0c-0.3,0.2-0.7,0.4-0.9,0.7c0,0-0.1,0-0.1,0.1c0,0,0,0.1-0.1,0.1c-0.1,0.1-0.1,0.1-0.2,0.2
			c-0.5,0.6-0.9,1.2-1.1,2c-1.9,7.9-1.9,16.2,0.2,24c0.5,1.8,1.1,3.6,1.8,5.4c3.1-1.1,6.2-1.9,9.5-2.3c-0.1-0.1-0.1-0.2-0.1-0.3h0
			c-0.7-1.7-1.4-3.5-1.9-5.3c-0.9-3.2-1.3-6.6-1.3-9.9c0-2.1,0.2-4.3,0.5-6.4c0.8-0.1,1.7-0.2,2.6-0.3c4.6-0.5,9.2-0.1,13.7,1.1
			c1.9,0.5,3.7,1.2,5.5,1.9c0,0,0,0,0,0c0.5-3.2,1.3-6.4,2.4-9.4C272.8,325.8,271,325.2,269.2,324.7z M306.6,342.3L306.6,342.3
			L306.6,342.3L306.6,342.3z"/>
		<path id="XMLID_391_" class="st1" d="M300.9,466l-0.2,0c-0.1,0-0.2,0-0.3,0c-0.1,0-0.2,0-0.3,0l0,0c-0.1,0-0.2,0-0.4-0.1l-0.2,0
			c-0.1,0-0.2-0.1-0.3-0.1l-0.1,0c-0.1,0-0.1-0.1-0.2-0.1l-0.1,0c0,0-0.1,0-0.1-0.1c-0.1,0-0.2-0.1-0.2-0.1c0,0,0,0-0.1,0l-0.1-0.1
			c-7.1-4.3-13-10.3-17-17.3c-4.2-7.3-6.5-15.7-6.5-24.2c0-1.7,0.1-3.5,0.3-5.5h0l0.1-0.8c0-0.2,0.1-0.5,0.1-0.7l0,0l0.1-0.7l0-0.2
			c0.7-3.8,2.2-7.3,4.4-10.4c0.1-0.2,0.2-0.3,0.2-0.4c0.3-0.5,0.8-1.1,1.3-1.6c0,0,0.1-0.1,0.2-0.2c0,0,0.1-0.1,0.1-0.1
			c2.1-2,4.9-3.1,7.8-3.1c1.6,0,3.3,0.4,4.8,1.1c1.2,0.5,2.3,1.3,3.2,2.3c2.1,2.2,3.3,5,3.3,8.1c0,0.2,0,0.5,0,0.7l0,0.2
			c0,0.1,0,0.2,0,0.2c-0.5,4.4-2,8.4-4.5,12v0l-0.2,0.2c-0.1,0.1-0.3,0.4-0.4,0.5l-0.1,0.1c-1.4,1.8-2.9,3.6-4.6,5.3
			c-0.5,0.5-1,1-1.5,1.4l-0.7,0.6l-0.2-0.9c-0.6-2.6-0.9-5.2-0.9-8c0-0.5,0-1.1,0-1.8c0-0.1,0-0.2,0-0.3c0-0.1,0-0.1,0-0.2l0-0.4
			c0-0.1,0-0.2,0-0.3l0-0.2c0-0.1,0-0.3,0-0.4l0.1-0.5c0-0.2,0-0.4,0.1-0.6l0-0.2l0,0c0,0,0-0.1,0-0.1c0-0.1,0-0.2,0-0.3l0.1-0.4
			c0.1-0.6,0.3-1.3,0.6-2V416l0.1-0.1c0.4-0.8,0.6-1.5,0.8-2.1l0.1-0.3c0.2-0.7,0.3-1.4,0.4-2.2c0-0.2,0-0.4-0.1-0.5
			c-0.4-0.4-0.8-0.3-1.1-0.1c-0.3,0.4-0.6,0.8-0.9,1.3c-1.1,1.7-1.9,3.6-2.2,5.6l0,0.2l-0.1,0.4c0,0,0,0.1,0,0.1l0,0.2
			c-0.1,0.3-0.1,0.6-0.1,0.9c0,0.2,0,0.3,0,0.5l0,0.3c0,0.1,0,0.3,0,0.4l0,0.1c0,0.1,0,0.2,0,0.3l0,0.2c0,0.3,0,0.5,0,0.8
			c0,0.6-0.1,1.2-0.1,1.8c0,3.4,0.5,6.9,1.4,10.2l0,0.1c0.5,1.6,1,3.1,1.6,4.6l0.1,0.1c0.1,0.3,0.2,0.4,0.3,0.6
			c0.1,0.2,0.1,0.3,0.2,0.5c0.1,0.1,0.1,0.2,0.2,0.4c0.1,0.1,0.1,0.2,0.2,0.4c0.1,0.2,0.2,0.3,0.3,0.5c0.1,0.1,0.1,0.2,0.2,0.3
			c0.2,0.4,0.4,0.7,0.6,1.1l0.1,0.2c0.1,0.2,0.3,0.5,0.4,0.7c0.1,0.1,0.1,0.2,0.2,0.3c0.1,0.2,0.2,0.4,0.4,0.6l0.2,0.2
			c0.1,0.2,0.2,0.4,0.4,0.6c0.1,0.1,0.1,0.2,0.2,0.3c0.1,0.2,0.2,0.3,0.2,0.4l0.1,0.2c0.1,0.1,0.1,0.2,0.2,0.2
			c0.2,0.2,0.3,0.4,0.4,0.5c0.1,0.1,0.1,0.1,0.1,0.2c0,0,0.1,0.1,0.1,0.1c0.1,0.1,0.2,0.2,0.3,0.3c0.1,0.1,0.2,0.2,0.3,0.3
			c0.1,0.1,0.2,0.3,0.3,0.4l0.1,0.1c0.1,0.1,0.1,0.1,0.2,0.2c0.1,0.2,0.2,0.3,0.4,0.4l0.1,0.2c0,0,0.1,0.1,0.1,0.1
			c0.2,0.2,0.3,0.3,0.4,0.5c0.1,0,0.1,0.1,0.1,0.1l0.1,0.1c0.1,0.1,0.2,0.3,0.4,0.4l0.1,0.1c0.9,0.9,1.7,1.6,2.5,2.3
			c0.2,0.1,0.3,0.3,0.4,0.4l0.2,0.2c0.7,0.6,1.2,1,1.8,1.4c4.3-3.1,7.9-7.1,10.5-11.7c3.3-5.7,5.1-12.3,5.1-18.9
			c0-1.7-0.1-3.6-0.4-5.5h0l-0.1-0.7c-0.1-0.7-0.3-1.5-0.6-2.4l-0.1-0.4c-0.2-0.6-0.6-1.3-0.9-1.9l-0.1-0.2l0,0
			c-0.3-0.4-0.6-0.9-0.9-1.3c-0.1-0.2-0.2-0.4-0.4-0.5c-0.1-0.1-0.3-0.2-0.4-0.2l-0.1,0c-0.4,0-0.7,0.3-0.7,0.7v0.1
			c0.2,1.6,0.6,3.1,1.3,4.5l0.1,0.2c0.2,0.6,0.4,1.2,0.5,1.9l0.1,0.1l0,0c0,0,0,0.1,0,0.1h0l0.1,0.4c0.2,1.6,0.4,3.3,0.4,5.1
			c0,2.6-0.3,5.3-0.9,7.9l-0.2,0.9l-0.7-0.6c-0.5-0.5-1-0.9-1.5-1.4c-1.6-1.6-3.2-3.4-4.6-5.3c-0.1-0.1-0.3-0.4-0.4-0.5l-0.1-0.1
			c0,0-0.1-0.1-0.1-0.2c-2.2-3.2-3.6-6.7-4.3-10.5c-0.2-0.8-0.3-1.6-0.3-2.5c0-0.2,0-0.4,0-0.5c0.1-4.6,3-8.7,7.4-10.3
			c1.3-0.5,2.6-0.7,3.9-0.7c3.2,0,6.3,1.4,8.5,3.8h0l0.2,0.2v0l0.1,0.1c0.1,0.1,0.1,0.2,0.2,0.2c2.6,3.4,4.4,7.4,5.1,11.5l0,0.2
			c0,0.1,0.1,0.3,0.1,0.5l0,0.3c0,0.1,0.1,0.3,0.1,0.5l0.1,0.9h-0.1c0.2,1.8,0.3,3.7,0.3,5.5c0,8.5-2.2,16.8-6.5,24.2
			c-4.1,7.1-10,13.1-17,17.3C302.8,465.7,301.9,466,300.9,466L300.9,466z M299.6,464.8C299.6,464.8,299.7,464.8,299.6,464.8l0.3,0.1
			c0.1,0,0.2,0.1,0.3,0.1l0.4,0c0.1,0,0.1,0,0.2,0h0.1c0.8,0,1.6-0.2,2.2-0.6c6.9-4.1,12.6-10,16.6-16.9c4.1-7.2,6.3-15.3,6.3-23.6
			c0-2-0.1-3.9-0.4-5.9l-0.1-0.6h0c0-0.1,0-0.2-0.1-0.3c0,0,0-0.1,0-0.2c0-0.2-0.1-0.4-0.1-0.5l0-0.2c-0.7-4-2.4-7.9-4.9-11.1l0,0
			h-0.3v-0.2h-0.1l0-0.3c-2-2.2-4.8-3.5-7.7-3.5c-1.2,0-2.4,0.2-3.6,0.6c-4,1.5-6.6,5.2-6.8,9.4c0,0.2,0,0.3,0,0.5
			c0,0.8,0.1,1.6,0.3,2.3c0.6,3.7,2,7.1,4.1,10.1l0.2,0.1v0.1c0.2,0.2,0.4,0.5,0.4,0.5c1.3,1.8,2.9,3.6,4.4,5.1
			c0.3,0.3,0.5,0.5,0.8,0.8c0.5-2.3,0.7-4.6,0.7-6.8c0-1.5-0.1-3-0.3-4.5h-0.1l0-0.5c0-0.1-0.1-0.3-0.1-0.4l0,0l0-0.2
			c-0.1-0.5-0.3-1.1-0.4-1.6l-0.1-0.1l0-0.2c-0.7-1.5-1.2-3.1-1.4-4.8v-0.2c0-1,0.8-1.8,1.7-1.8c0.1,0,0.1,0,0.2,0
			c0.4,0,0.8,0.3,1.1,0.6c0.1,0.2,0.3,0.4,0.4,0.6c0.4,0.5,0.7,1,1,1.6l0.1,0.2l0,0c0.4,0.7,0.7,1.5,1,2.3l0.2,0.7h0
			c0.2,0.6,0.3,1.2,0.4,1.7l0.2,0.9c0.3,1.9,0.4,3.8,0.4,5.6c0,6.8-1.8,13.5-5.2,19.4c-2.8,4.8-6.6,9-11.1,12.2l-0.3,0.2l-0.3-0.2
			c-0.8-0.6-1.6-1.2-2.1-1.6l-0.2-0.2c-0.1-0.1-0.3-0.2-0.4-0.4c-0.9-0.7-1.7-1.5-2.5-2.3l-0.2-0.2c-0.1-0.1-0.3-0.3-0.4-0.4
			c0,0,0,0-0.1-0.1l-0.1-0.1c-0.1-0.1-0.3-0.3-0.4-0.4c-0.1-0.1-0.1-0.1-0.2-0.2c-0.2-0.2-0.3-0.3-0.4-0.5c-0.1-0.1-0.1-0.2-0.2-0.2
			c-0.2-0.2-0.3-0.3-0.4-0.5c-0.1-0.1-0.2-0.2-0.3-0.3c-0.1-0.1-0.2-0.2-0.3-0.3l-0.1-0.1c-0.1-0.1-0.1-0.2-0.2-0.3
			c-0.1-0.1-0.2-0.3-0.4-0.4c-0.1-0.1-0.1-0.2-0.2-0.2l-0.2-0.2c-0.1-0.1-0.2-0.2-0.3-0.4c0,0-0.1-0.1-0.2-0.2
			c-0.2-0.2-0.3-0.4-0.4-0.6l-0.1-0.2c-0.2-0.2-0.3-0.4-0.4-0.6l-0.1-0.2c-0.2-0.3-0.3-0.6-0.5-0.8l-0.1-0.2c-0.2-0.3-0.4-0.7-0.6-1
			c0-0.1-0.1-0.2-0.2-0.3c-0.1-0.2-0.2-0.4-0.3-0.5c-0.1-0.1-0.2-0.3-0.2-0.4l-0.1-0.2c-0.1-0.1-0.1-0.2-0.1-0.2
			c-0.1-0.1-0.1-0.3-0.2-0.4c-0.1-0.2-0.2-0.4-0.2-0.6l-0.1-0.2c-0.7-1.5-1.2-3.1-1.7-4.8l0-0.1c-1-3.4-1.4-6.9-1.4-10.4
			c0-0.6,0-1.2,0-1.8c0-0.3,0-0.6,0.1-0.8l0-0.1c0-0.1,0-0.3,0-0.4c0-0.2,0-0.3,0-0.4l0-0.2c0-0.2,0-0.4,0.1-0.6
			c0-0.3,0.1-0.6,0.1-1c0,0,0,0,0-0.1l0-0.2l0.1-0.6c0.4-2.1,1.2-4.2,2.3-6c0.3-0.5,0.6-0.9,0.9-1.3l0.1-0.1c0.7-0.8,1.9-0.7,2.5,0
			c0,0,0.1,0.1,0.1,0.1c0.3,0.3,0.4,0.8,0.4,1.3c-0.1,0.9-0.3,1.7-0.5,2.6l-0.1,0.3c-0.2,0.6-0.4,1.3-0.7,2c0,0.1,0,0.2-0.1,0.3
			c-0.2,0.6-0.4,1.2-0.5,1.8l-0.1,0.5c0,0,0,0.1,0,0.1l0,0.3c0,0.2-0.1,0.4-0.1,0.5l-0.1,0.5c0,0.1,0,0.3,0,0.4l0,0.1
			c0,0.1,0,0.2,0,0.4l0,0.3c0,0,0,0.1,0,0.2c0,0.1,0,0.2,0,0.3c0,0.7,0,1.2,0,1.7c0,2.3,0.2,4.6,0.7,6.8c0.3-0.3,0.6-0.5,0.8-0.8
			c1.6-1.6,3.1-3.4,4.5-5.2c0.1-0.2,0.3-0.4,0.4-0.5l0.1-0.2c2.4-3.5,3.9-7.4,4.4-11.6l0-0.4c0-0.2,0-0.4,0-0.6c0-2.8-1.1-5.4-3-7.3
			c-0.9-0.9-1.9-1.6-2.9-2.1c-1.4-0.6-2.9-1-4.4-1c-2.6,0-5.2,1-7.1,2.8c0,0-0.1,0.1-0.1,0.1c-0.1,0-0.1,0.1-0.1,0.1
			c-0.5,0.5-0.9,1-1.2,1.5c-0.1,0.1-0.1,0.2-0.2,0.3l-0.1,0.1c-2.1,3-3.6,6.4-4.2,10.1l0,0.1c0,0-0.1,0.6-0.1,0.7
			c0,0.3-0.1,0.5-0.1,0.7l0,0.3c-0.2,2.1-0.4,4.1-0.4,5.9c0,8.3,2.2,16.5,6.3,23.6c4,6.9,9.7,12.8,16.6,16.9c0,0,0.1,0,0.1,0.1
			l0.5,0.3c0,0,0,0,0,0L299.6,464.8z M256.8,444.7L256.8,444.7c-4,0-7.9-0.5-11.7-1.4c-0.8-0.2-1.5-0.5-2.1-1h0l-0.1-0.1
			c0,0-0.1-0.1-0.1-0.1l0,0c0,0,0,0,0,0l-0.2-0.1l-0.1-0.1c-0.2-0.2-0.5-0.6-0.7-0.9l-0.1-0.1l0,0l-0.1-0.2c0,0,0-0.1,0-0.1
			c0-0.1,0-0.1-0.1-0.1l-0.1-0.2c0,0,0,0,0,0l-0.1-0.1c-0.1-0.2-0.1-0.4-0.2-0.6c-2-7.9-1.9-16.3,0.2-24.2c0.5-1.8,1.1-3.6,1.8-5.4
			l0.2-0.5l0.5,0.2c3,1.1,6.2,1.9,9.4,2.3l0.4,0.1v0.6l-0.1,0.1c-0.7,1.6-1.4,3.4-1.9,5.4c-1.1,4.2-1.5,8.5-1.1,12.8l0.1,0.7
			c0.1,0.8,0.2,1.5,0.3,2.2c5.2,0.8,10.6,0.5,15.7-0.8c1.8-0.5,3.5-1.1,5.2-1.8c0.1,0,0.1-0.1,0.2-0.1l0.7-0.3l0.1,0.7
			c0.5,3.2,1.3,6.3,2.3,9.4l0.2,0.5l-0.5,0.2c-1.8,0.7-3.6,1.3-5.5,1.8C265.3,444.2,261.1,444.7,256.8,444.7z M243.7,441.5
			c0.5,0.4,1,0.7,1.6,0.8c3.7,0.9,7.6,1.4,11.5,1.4h0c4.1,0,8.3-0.5,12.2-1.6c1.7-0.5,3.3-1,4.9-1.6c-0.9-2.7-1.6-5.5-2.1-8.4
			c-1.6,0.7-3.2,1.2-5,1.7c-5.3,1.4-11.1,1.7-16.5,0.8l-0.4-0.1l-0.1-0.4c-0.1-0.5-0.2-1-0.2-1.5l0,0l-0.1-1.1
			c-0.5-4.7-0.1-9.4,1.1-13.9c0.5-1.8,1.1-3.5,1.7-5c-2.8-0.4-5.7-1.2-8.4-2.1c-0.6,1.7-1.2,3.2-1.6,4.9c-2.1,7.8-2.2,16-0.2,23.7
			c0,0.2,0.1,0.3,0.1,0.4l0.2,0.2l0,0.1c0,0.1,0.1,0.1,0.1,0.2l0,0c0,0,0.1,0.1,0.1,0.2l0,0c0.2,0.3,0.4,0.5,0.6,0.8l0.2,0.2h0.3
			L243.7,441.5z M344.9,444.7L344.9,444.7c-4.2,0-8.5-0.5-12.5-1.6c-1.9-0.5-3.7-1.1-5.5-1.8l-0.4-0.2l0.2-0.5
			c1.1-3.1,1.8-6.2,2.3-9.3l0.1-0.8l0.7,0.4c1.8,0.8,3.6,1.4,5.4,1.9c4.2,1.1,8.7,1.5,13,1.1l0.5-0.1c0.7-0.1,1.5-0.2,2.2-0.3
			c0.3-2,0.5-4,0.5-5.9c0-3.3-0.4-6.6-1.3-9.8c-0.4-1.6-1-3.3-1.7-5l-0.1-0.2c-0.1-0.1-0.1-0.2-0.1-0.2l-0.3-0.6l0.7-0.1
			c3.1-0.4,6.3-1.2,9.4-2.3l0.5-0.2l0.2,0.5c0.7,1.8,1.3,3.6,1.8,5.4c2.1,7.9,2.2,16.3,0.2,24.2c-0.2,0.8-0.6,1.6-1.2,2.2
			c0,0-0.1,0.1-0.1,0.1L359,442c-0.3,0.3-0.6,0.5-1,0.8l-0.1,0.1c0,0-0.1,0-0.1,0l-0.1,0.1l-0.6,0.2v0l-0.1,0
			c-0.1,0-0.3,0.1-0.4,0.1C352.8,444.2,348.9,444.7,344.9,444.7z M327.8,440.5c1.6,0.6,3.2,1.2,4.9,1.6c4,1.1,8.1,1.6,12.3,1.6l0,0
			c3.9,0,7.7-0.5,11.5-1.4c0.1,0,0.2-0.1,0.3-0.1l0.6-0.2c0,0,0.1,0,0.1,0l0.1-0.1c0.3-0.2,0.6-0.4,0.8-0.6c0,0,0.1-0.1,0.1-0.1
			c0,0,0,0,0.1-0.1c0,0,0.1-0.1,0.1-0.1c0.5-0.6,0.8-1.2,1-1.9c1.9-7.8,1.9-16-0.2-23.7c-0.4-1.6-1-3.3-1.6-4.9
			c-2.8,0.9-5.6,1.6-8.4,2.1c0.7,1.7,1.3,3.4,1.7,5c0.9,3.3,1.3,6.7,1.3,10.1c0,2.1-0.2,4.2-0.6,6.4l-0.1,0.4l-0.4,0.1
			c-0.7,0.1-1.4,0.2-2.2,0.3l-0.5,0.1c-4.6,0.5-9.4,0.1-13.9-1.1c-1.7-0.4-3.4-1-5-1.7C329.4,434.9,328.7,437.7,327.8,440.5z
			 M341,409.8c-2,0-4-0.1-6-0.4l-1.1-0.2c0,0-0.4-0.1-0.6-0.1l-0.3,0c-3.8-0.7-7.3-2.1-10.5-4.3c-0.5-0.3-0.9-0.6-1.3-1
			c-0.2-0.1-0.4-0.3-0.6-0.6c-0.1-0.1-0.3-0.2-0.4-0.4c-3.2-3.4-4-8.3-2-12.5c0.5-1.2,1.3-2.3,2.3-3.3c2.2-2.1,5-3.3,8-3.3
			c0.3,0,0.6,0,0.9,0c0.1,0,0.2,0,0.3,0c4.4,0.5,8.5,2.1,12,4.5l0,0l0.3,0.2c0.1,0.1,0.2,0.2,0.3,0.2h0l0.1,0.1
			c1.9,1.4,3.7,3,5.3,4.6c0.5,0.5,1,1,1.4,1.5l0.5,0.6l-0.8,0.2c-4.2,1-8.6,1.2-13,0.5c-0.1,0-0.2,0-0.2,0l-0.2,0c0,0-0.1,0-0.1,0
			c-0.8-0.2-1.4-0.3-2-0.5l-0.1-0.1c-0.3-0.2-0.7-0.3-1.1-0.5l-0.1,0c-0.3-0.1-0.6-0.2-0.9-0.3l-0.6-0.2c-0.2-0.1-0.5-0.1-0.7-0.2
			l0,0l-0.4-0.1c0,0,0,0,0,0l-0.3-0.1c-0.2,0-0.4-0.1-0.6-0.1c-0.3,0-0.4,0-0.5,0.1c0,0-0.1,0.1-0.1,0.1c-0.2,0.2-0.2,0.4-0.2,0.6
			c0,0.1,0.1,0.3,0.2,0.4c2,1.6,4.4,2.6,6.9,3.1l0.6,0.1c1.8,0.3,3.7,0.4,5.4,0.4c6.6,0,13.2-1.7,18.8-5c0.5-0.3,0.9-0.5,1.3-0.8
			c0.1-0.1,0.1-0.1,0.2-0.1c0.2-0.1,0.4-0.2,0.5-0.4l0.5,0.3l-0.3-0.4l0.1-0.1c0.1-0.1,0.2-0.1,0.3-0.2c0.1-0.1,0.2-0.1,0.2-0.2
			l0.4-0.3c0.1-0.1,0.2-0.2,0.3-0.2c0.6-0.5,1.3-1,1.9-1.5l0.1-0.1c0,0,0,0,0,0c0.1-0.1,0.2-0.2,0.4-0.3l0.3-0.3
			c0.1-0.1,0.3-0.2,0.4-0.4l0.4-0.4c0.1-0.1,0.2-0.2,0.3-0.3l0.1-0.1c0.7-0.7,1.5-1.5,2.2-2.3c0,0,0.1-0.1,0.2-0.2
			c0.1-0.2,0.2-0.3,0.4-0.4l0.1-0.2c0.4-0.5,0.9-1.1,1.3-1.7c-0.1-0.1-0.2-0.2-0.3-0.4c-0.1-0.2-0.3-0.4-0.4-0.5
			c0,0-0.1-0.1-0.2-0.2l-0.1-0.1c-0.2-0.3-0.5-0.6-0.7-0.9l-0.1-0.1c-0.1-0.1-0.2-0.3-0.3-0.4c-0.2-0.2-0.3-0.3-0.4-0.5
			c-0.5-0.5-0.9-1-1.4-1.5c-0.4-0.4-0.8-0.8-1.2-1.2l-0.2-0.2c-0.2-0.2-0.4-0.4-0.6-0.5c-0.1,0-0.2-0.1-0.3-0.2l-0.8-0.7
			c-0.2-0.2-0.4-0.3-0.6-0.5c-0.1,0-0.1-0.1-0.1-0.1c-0.2-0.2-0.4-0.3-0.7-0.5l-0.2-0.2c0,0-0.1,0-0.1,0c-0.3-0.2-0.6-0.4-0.9-0.6
			l-0.1,0c0,0,0,0,0,0c-0.8-0.5-1.4-0.9-2.1-1.3c-5.7-3.3-12.2-5-18.9-5c-1.9,0-3.7,0.1-5.5,0.4l-0.6,0.1c-0.9,0.2-1.7,0.4-2.4,0.6
			l-0.5,0.2c-0.6,0.2-1.2,0.5-1.8,0.9l-0.2,0.1c-0.6,0.3-1.3,0.8-1.9,1.3c-0.1,0.1-0.2,0.3-0.3,0.5l0,0.1c0,0.4,0.3,0.7,0.7,0.7h0.1
			c1.7-0.2,3.4-0.7,5-1.5l0.2-0.1c0.1,0,0.2,0,0.3-0.1c0.5-0.1,0.9-0.2,1.2-0.3l0.3,0c0,0,0.1,0,0.1,0v0.2l0.1,0.3l-0.1-0.5
			c0.1,0,0.2,0,0.3,0c4.1-0.6,8.6-0.4,12.8,0.6l0.8,0.2l-0.6,0.6c-0.5,0.5-0.9,1-1.4,1.5c-1.6,1.6-3.4,3.1-5.3,4.6l-0.1,0.1
			c-0.1,0.1-0.3,0.2-0.4,0.3v0l-0.2,0.1c-3.2,2.2-6.7,3.7-10.6,4.4c-0.8,0.2-1.7,0.3-2.5,0.3h-0.4c-4.7-0.1-8.8-3.1-10.4-7.5
			c-0.4-1.2-0.7-2.5-0.7-3.9c0-1.7,0.4-3.3,1.1-4.8c0.7-1.5,1.7-2.8,2.9-3.8c0.1-0.1,0.2-0.1,0.2-0.2c0.3-0.3,0.6-0.5,1-0.7
			c3.2-2.3,6.8-3.8,10.6-4.5l0.1-0.1l0.4,0c0.2,0,0.6-0.1,0.6-0.1c0.3,0,0.5-0.1,0.8-0.1l0.6-0.1v0.1c1.8-0.2,3.6-0.3,5.5-0.3
			c8.5,0,16.9,2.2,24.2,6.5c7.1,4.1,13.1,10,17.3,17c1,1.7,1,3.8,0,5.5c-4.2,7-10.2,12.9-17.3,17c-5.8,3.3-12.4,5.5-19.1,6.2
			c-0.1,0-0.1,0-0.2,0c-0.1,0-0.2,0-0.2,0C344.1,409.7,342.5,409.8,341,409.8z M334.2,408.3l0.9,0.1c2,0.3,4,0.4,5.9,0.4
			c1.4,0,3-0.1,4.6-0.2l0.1,0c0.1,0,0.2,0,0.3,0c6.5-0.7,13-2.8,18.6-6.1c6.9-4,12.8-9.8,16.9-16.6c0.8-1.4,0.8-3.1,0-4.4
			c-4.1-6.9-10-12.6-16.9-16.6c-7.1-4.1-15.3-6.3-23.6-6.3c-2,0-4,0.1-5.9,0.4l-0.6,0.1v0c-0.1,0-0.2,0-0.3,0c-0.1,0-0.4,0-0.5,0.1
			l-0.3,0.1c-3.8,0.6-7.2,2.1-10.4,4.4c-0.3,0.2-0.6,0.5-0.9,0.7l-0.2,0.2c-1.1,0.9-2,2.1-2.6,3.4c-0.7,1.4-1,2.9-1,4.4
			c0,1.3,0.2,2.5,0.6,3.5c1.5,4,5.2,6.7,9.5,6.8h0.4c0.7,0,1.5-0.1,2.3-0.2c3.7-0.6,7-2,10.1-4.1l0.2-0.1c0.4-0.3,0.5-0.4,0.6-0.5
			c1.9-1.4,3.6-2.9,5.1-4.5c0.2-0.3,0.5-0.5,0.8-0.8c-3.8-0.8-7.8-0.9-11.6-0.4l-0.4,0.1l0,0c0,0,0,0,0,0c-0.1,0-0.1,0-0.2,0
			c-0.4,0.1-0.7,0.2-1.1,0.2c-0.2,0-0.3,0.1-0.4,0.1c-1.7,0.8-3.4,1.3-5.3,1.6l-0.2,0c-1,0-1.7-0.8-1.7-1.7V372
			c0.1-0.6,0.3-1,0.7-1.2c0.6-0.5,1.3-0.9,2-1.3c0.1-0.1,0.1-0.1,0.2-0.1l0.1-0.1c0.8-0.4,1.6-0.8,2.4-1.1l0.7-0.2v0
			c0.6-0.2,1.2-0.3,2-0.5l0.6-0.1c8.6-1.3,17.5,0.4,25.1,4.8c0.7,0.4,1.4,0.8,2.2,1.3l0.1,0.1c0.3,0.2,0.6,0.4,0.9,0.6l0.1,0
			c0,0,0.1,0,0.1,0.1l0.1,0.1c0.2,0.2,0.5,0.4,0.7,0.5l0.1,0.1c0.2,0.2,0.4,0.3,0.7,0.5l0.8,0.7c0.1,0.1,0.2,0.1,0.2,0.2
			c0.2,0.2,0.4,0.4,0.6,0.6c0,0,0.1,0.1,0.2,0.2c0.4,0.4,0.9,0.8,1.3,1.2c0.5,0.5,1,1,1.4,1.5c0.1,0.2,0.3,0.3,0.4,0.5
			c0.1,0.1,0.2,0.2,0.3,0.4l0.1,0.1c0.2,0.3,0.5,0.6,0.7,0.9l0.3,0.3c0.1,0.2,0.3,0.4,0.4,0.5c0.2,0.2,0.3,0.5,0.5,0.7l0.2,0.3
			l-0.2,0.3c-0.5,0.7-1.1,1.4-1.6,2.1c0,0.1-0.1,0.1-0.1,0.2c-0.1,0.2-0.3,0.3-0.4,0.5l-0.1,0.1c-0.7,0.9-1.5,1.7-2.3,2.5l-0.1,0.1
			c-0.1,0.1-0.2,0.2-0.3,0.3l-0.2,0.2c0,0-0.1,0.1-0.1,0.1l-0.1,0.1c-0.1,0.1-0.3,0.3-0.4,0.4c0,0-0.1,0.1-0.1,0.1l-0.2,0.2
			c-0.1,0.1-0.3,0.3-0.4,0.4l-0.1,0.1l0,0l0,0c-0.6,0.5-1.3,1-1.9,1.5l-0.1,0.1c-0.1,0.1-0.2,0.1-0.3,0.2l-0.3,0.2c0,0,0,0-0.1,0.1
			l-0.3,0.2c-0.1,0.1-0.2,0.2-0.3,0.2c-0.1,0.1-0.1,0.1-0.2,0.1c-0.2,0.2-0.5,0.3-0.7,0.4l-0.1,0.1c-0.5,0.3-0.9,0.6-1.4,0.8
			c-5.9,3.4-12.5,5.2-19.4,5.2c-1.8,0-3.7-0.1-5.6-0.4l-0.9-0.1v-0.1c-2.6-0.5-5-1.6-7.1-3.2l-0.1-0.1c-0.3-0.3-0.5-0.6-0.5-1
			c-0.1-0.6,0.1-1.2,0.5-1.6l0.2-0.1c0.3-0.3,0.8-0.4,1.2-0.4c0.3,0,0.7,0.1,0.9,0.1h0.5v0.1c0.3,0.1,0.7,0.2,1.1,0.3l0.4,0.1
			c0.3,0.1,0.6,0.2,0.8,0.3l0.1,0c0.3,0.1,0.7,0.3,1,0.4h0l0.1,0.1c0.5,0.2,1.1,0.3,1.7,0.5c0.1,0,0.2,0,0.2,0l0.2,0
			c0.1,0,0.1,0,0.2,0c3.9,0.6,7.9,0.4,11.7-0.3c-0.3-0.3-0.5-0.6-0.8-0.8c-1.6-1.6-3.3-3.1-5.2-4.5c-0.1-0.1-0.2-0.2-0.5-0.3
			l-0.3-0.2c-3.4-2.4-7.4-3.9-11.5-4.4l-0.2,0c-0.3,0-0.6,0-0.9,0c-2.8,0-5.3,1.1-7.3,3c-0.9,0.9-1.6,1.9-2.1,3
			c-1.8,3.8-1.1,8.3,1.9,11.4c0.1,0.1,0.2,0.2,0.3,0.3c0.2,0.2,0.4,0.4,0.6,0.5c0.4,0.3,0.7,0.6,1.2,0.9c3.1,2.2,6.5,3.6,10.1,4.2
			l0.1,0l0,0C333.5,408.2,333.9,408.3,334.2,408.3z M260.7,409.8c-8.5,0-16.9-2.2-24.1-6.5c-7.1-4.1-13.1-10-17.3-17
			c-1-1.7-1-3.8,0-5.5c4.2-7,10.2-12.9,17.3-17c7.3-4.2,15.6-6.5,24.1-6.5c1.8,0,3.7,0.1,5.5,0.3v0l0.6,0.1c0.2,0,0.4,0.1,0.6,0.1
			l0.3,0l0,0c0,0,0.8,0.1,0.8,0.1l0.2,0.1c3.9,0.7,7.4,2.1,10.5,4.3c0.1,0,0.2,0.1,0.3,0.2c0.6,0.4,1.2,0.9,1.6,1.4
			c0.1,0.1,0.2,0.2,0.3,0.3c3.3,3.5,4,8.4,2.1,12.6c-0.5,1.2-1.3,2.3-2.3,3.2c-2.1,2.1-5,3.3-8,3.3c-0.3,0-0.6,0-0.9,0
			c0,0-0.2,0-0.3,0c-4.3-0.5-8.4-2.1-12-4.5h-0.1l-0.4-0.3c-0.1,0-0.1-0.1-0.2-0.1h0l-0.1-0.1c-2-1.5-3.7-3-5.3-4.6
			c-0.5-0.5-1-1-1.4-1.5l-0.6-0.6l0.9-0.2c2.6-0.6,5.3-0.9,7.9-0.9c0.4,0,0.9,0,1.4,0c1.3,0,2.5,0.2,3.7,0.3l0.4,0
			c0.1,0,0.2,0,0.3,0.1c0.3,0,0.6,0.1,0.9,0.2l0.2,0.1c0.1,0,0.1,0,0.2,0l0.1-0.1l0.5,0.3c0.8,0.4,1.6,0.7,2.4,0.9l0.2,0.1
			c0.7,0.2,1.4,0.3,2.2,0.4c0.2,0,0.4-0.1,0.5-0.2c0.2-0.2,0.3-0.4,0.3-0.6c0-0.2-0.1-0.4-0.2-0.5l0,0c-0.7-0.5-1.3-1-2-1.3
			c-1.5-0.9-3.1-1.5-4.9-1.8l-0.6-0.1c-1.3-0.2-2.7-0.3-4-0.4c-0.5,0-1,0-1.5,0c-3.5,0-6.9,0.5-10.2,1.4c-0.5,0.1-1,0.3-1.5,0.5
			l-0.8,0.3c-0.2,0.1-0.4,0.1-0.6,0.2l-0.4,0.1c-0.1,0-0.1,0.1-0.2,0.1c-1.7,0.7-3.5,1.5-5.1,2.5c-3.7,2.2-7,4.9-9.8,8.2l-0.5,0.6
			c-0.5,0.7-1,1.2-1.4,1.8c3.1,4.3,7.1,7.9,11.7,10.5c5.7,3.3,12.2,5,18.9,5c1.8,0,3.6-0.1,5.5-0.4l0.6-0.1c0.8-0.1,1.6-0.4,2.4-0.6
			l0.7-0.2c0.6-0.2,1.1-0.5,1.6-0.8l0.2-0.1c0.5-0.3,1.1-0.6,1.5-1c0.1-0.1,0.3-0.2,0.4-0.3c0-0.1,0.2-0.2,0.2-0.4l0-0.2
			c-0.1-0.4-0.4-0.6-0.7-0.6c0,0-0.1,0-0.1,0c-1.2,0.2-2.3,0.4-3.3,0.8l-0.6,0.2c-0.2,0.1-0.4,0.2-0.6,0.2l0,0l0,0l-0.2,0.1
			c-0.7,0.2-1.3,0.4-1.9,0.5c-0.2,0-0.3,0.1-0.4,0.1l-0.3,0.1c0.1,0,0,0-0.1,0c-4.2,0.6-8.7,0.4-12.9-0.5l-0.9-0.2l0.6-0.6
			c0.5-0.5,1-1,1.5-1.5c1.7-1.7,3.5-3.2,5.3-4.6c0.1-0.1,0.4-0.3,0.6-0.4l0.2-0.2c3.2-2.2,6.7-3.7,10.5-4.3c1-0.2,2.1-0.4,3-0.3
			c4.6,0.1,8.7,3.1,10.3,7.4c0.5,1.3,0.7,2.6,0.7,3.9c0,3.3-1.4,6.3-3.8,8.5v0l-0.5,0.4l-0.1,0c-0.3,0.2-0.6,0.4-0.8,0.6
			c-3.2,2.3-6.8,3.9-10.8,4.5l-0.2,0c-0.1,0-0.7,0.1-0.8,0.1c-0.2,0-0.5,0.1-0.9,0.1l-0.6,0.1v0
			C264.3,409.7,262.5,409.8,260.7,409.8z M260.7,358.5c-8.3,0-16.5,2.2-23.6,6.3c-6.9,4-12.8,9.8-16.9,16.6c-0.8,1.4-0.8,3.1,0,4.4
			c4.1,6.9,10,12.6,16.9,16.6c7.1,4.1,15.3,6.3,23.6,6.3c1.9,0,3.9-0.1,5.9-0.4l0.6-0.1v0c0.1,0,0.2,0,0.3-0.1
			c0.1,0,0.5-0.1,0.7-0.1l0.3,0c3.7-0.7,7.2-2.1,10.3-4.4c0.3-0.2,0.5-0.4,0.8-0.6V403l0.3,0c2.3-2,3.6-4.8,3.6-7.9
			c0-1.2-0.2-2.4-0.6-3.6c-1.4-3.9-5.2-6.6-9.4-6.8c-0.2,0-0.3,0-0.5,0c-0.8,0-1.5,0.1-2.3,0.3c-3.7,0.6-7.1,2-10.2,4.2l-0.1,0.1
			l-0.1,0.1c-0.1,0.1-0.5,0.4-0.6,0.4c-1.7,1.3-3.5,2.8-5.1,4.4c-0.3,0.3-0.5,0.5-0.8,0.8c3.8,0.8,7.8,0.9,11.7,0.3c0,0,0,0,0.1,0
			c0.1,0,0.1,0,0.2,0c0.1,0,0.2-0.1,0.4-0.1c0.5-0.1,1-0.2,1.6-0.4l0.1-0.1l0.2,0c0.2-0.1,0.4-0.2,0.6-0.2c0.1-0.1,0.2-0.1,0.3-0.1
			l0.1,0c0.1,0,0.2-0.1,0.2-0.1c1.1-0.4,2.3-0.7,3.6-0.9c0.1,0,0.1,0,0.2,0c1,0,1.8,0.8,1.8,1.8c0,0.1,0,0.2,0,0.3
			c-0.1,0.4-0.3,0.7-0.6,1c-0.2,0.1-0.3,0.2-0.4,0.3c-0.5,0.4-1.2,0.8-1.8,1.1L272,398c-0.7,0.4-1.5,0.8-2.4,1.1l-0.7,0.2v0
			c-0.6,0.2-1.1,0.3-1.7,0.4v0l-0.9,0.1c-1.9,0.3-3.8,0.4-5.6,0.4c-6.8,0-13.5-1.8-19.4-5.2c-4.8-2.8-9-6.6-12.2-11.1l-0.2-0.3
			l0.2-0.3c0.3-0.4,0.6-0.8,1-1.3h0l0.7-0.8c3-3.6,6.5-6.7,10.6-9c1.7-1,3.5-1.8,5.4-2.6l0.3,0.4l-0.2-0.5c0.1,0,0.1-0.1,0.2-0.1
			l0.2-0.1c0.2-0.1,0.4-0.1,0.6-0.2l0.2-0.1l0.7-0.2c0.5-0.2,1-0.3,1.6-0.5c3.4-1,6.9-1.4,10.5-1.4c0.5,0,1,0,1.4,0l0.1,0
			c1.3,0.1,2.7,0.2,4.1,0.4l0.7,0.1l0,0c1.9,0.3,3.6,1,5.2,1.9c0.7,0.4,1.4,0.8,2.1,1.4l0.1,0.1c0.4,0.4,0.6,0.8,0.6,1.3
			c0,0.5-0.2,0.9-0.5,1.2c0,0-0.1,0.1-0.2,0.2c-0.2,0.2-0.6,0.3-1.1,0.3l-0.1,0c-0.9-0.1-1.8-0.3-2.6-0.5l-0.2-0.1
			c-0.8-0.2-1.5-0.5-2.3-0.9l-0.1-0.1c-0.2,0-0.3-0.1-0.5-0.1l-0.2-0.1c-0.3-0.1-0.5-0.1-0.8-0.2c-0.1,0-0.2,0-0.3-0.1l-0.2,0
			l-0.1-0.5l0,0.5c-1.2-0.2-2.5-0.3-3.7-0.3c-0.5,0-0.9,0-1.3,0c-2.3,0-4.6,0.2-6.8,0.7c0.3,0.3,0.5,0.5,0.8,0.8
			c1.5,1.5,3.1,2.9,5,4.4h0l0.2,0.1c0,0,0.2,0.1,0.3,0.2l0.5,0.3c3.4,2.4,7.4,3.9,11.5,4.4l0.2,0c0.3,0,0.6,0,0.9,0
			c2.8,0,5.4-1.1,7.3-3c0.9-0.9,1.6-1.9,2.1-2.9c1.8-3.9,1.1-8.4-1.8-11.5c-0.1-0.1-0.2-0.2-0.3-0.3c-0.5-0.5-1-0.9-1.5-1.3
			c-0.1-0.1-0.2-0.1-0.3-0.2c-3.1-2.2-6.5-3.6-10.2-4.2l-0.1,0c-0.1,0-0.6-0.1-0.7-0.1l-0.3,0c-0.1,0-0.1,0-0.2,0l-0.4,0
			C264.7,358.6,262.7,358.5,260.7,358.5z M289.4,367.3c-1.7,0-3.3-0.4-4.8-1.1c-1.4-0.7-2.7-1.6-3.7-2.7h-0.3l0-0.3l0,0l0-0.1
			c-0.1-0.1-0.2-0.3-0.3-0.4c-2.5-3.3-4.2-7.2-5-11.3l-0.1-0.1l0,0c0,0-0.1-0.8-0.1-0.8c0-0.1,0-0.2-0.1-0.4c0-0.1,0-0.3-0.1-0.4
			l-0.1-0.6h0.1c-0.2-1.9-0.3-3.8-0.3-5.5c0-8.5,2.2-16.8,6.5-24.2c4.1-7.1,9.9-13,17-17.3c1.7-1,3.8-1,5.5,0
			c7,4.2,12.9,10.2,17,17.3c4.2,7.3,6.5,15.6,6.5,24.2c0,2-0.1,4-0.4,6c0,0.3-0.1,0.6-0.1,0.9l0,0.1c0,0.1-0.1,0.5-0.1,0.6l-0.1,0.3
			c-0.7,3.9-2.2,7.4-4.3,10.4c-0.1,0.1-0.1,0.2-0.2,0.3c-0.4,0.6-0.9,1.2-1.4,1.7c-0.1,0.1-0.2,0.2-0.3,0.3c-2.1,2-4.9,3.1-7.8,3.1
			l0,0c-1.6,0-3.3-0.4-4.8-1.1c-1.2-0.6-2.3-1.4-3.3-2.3c-2.1-2.1-3.3-5-3.3-8c0-0.2,0-0.3,0-0.5l0-0.4c0-0.1,0-0.2,0-0.3
			c0.4-4,1.8-7.9,4.1-11.3l-0.1,0l0.5-0.7v-0.2l0.2-0.1l0.5-0.7c1.3-1.8,2.9-3.5,4.5-5.2c0.6-0.5,1-1,1.5-1.4l0.7-0.6l0.2,0.8
			c0.6,2.6,0.9,5.3,0.9,7.9c0,0.6,0,1.2-0.1,1.8c0,0,0,0.1,0,0.2l0,0.9l-0.1,0.9c0,0.1,0,0.2-0.1,0.5c0,0.1,0,0.3-0.1,0.4l-0.1,1
			c-0.1,0.7-0.3,1.4-0.5,2c-0.1,0.2-0.2,0.4-0.2,0.5l-0.1,0.2c-0.2,0.5-0.4,1.1-0.6,1.7l-0.1,0.2c0,0.1-0.1,0.2-0.1,0.4l-0.1,0.3
			c-0.1,0.6-0.2,1.1-0.3,1.6c0,0.2,0,0.4,0.1,0.5v0c0,0,0,0,0.1,0.1c0.2,0.2,0.6,0.2,0.9,0.1c0,0,0,0,0.1-0.1
			c0.1-0.1,0.1-0.1,0.1-0.2c1.5-1.9,2.6-4.3,3-6.8l0-0.1l0.2-0.9c0-0.1,0-0.2,0-0.3c0-0.1,0-0.2,0-0.2c0-0.2,0-0.4,0.1-0.6l0-0.4
			c0-0.2,0-0.3,0.1-0.5c0-0.2,0-0.4,0-0.5l0-0.1c0-0.1,0-0.1,0-0.2c0-0.1,0-0.1,0-0.2c0-0.6,0.1-1.2,0.1-2c0-3.4-0.5-6.8-1.4-10.2
			l0-0.1c0-0.1-0.1-0.3-0.1-0.4c-0.1-0.1-0.1-0.3-0.2-0.5l-0.4-1.3c0-0.1,0-0.1-0.1-0.2c0-0.1-0.1-0.3-0.2-0.5l-0.2-0.5
			c0-0.1-0.1-0.2-0.1-0.2l-0.1-0.2c0-0.1-0.1-0.2-0.1-0.4l-0.1-0.2c0-0.1-0.1-0.2-0.1-0.3c-0.1-0.2-0.1-0.3-0.2-0.5l-0.1-0.2
			c-0.5-1.1-1-2.1-1.6-3.2c-2.2-3.8-5-7.1-8.4-10l-0.3-0.3c-0.6-0.5-1.1-0.9-1.7-1.4c-0.3,0.2-0.5,0.4-0.8,0.6c0,0-0.1,0.1-0.2,0.1
			c0,0-0.1,0.1-0.1,0.1c-0.3,0.2-0.6,0.4-0.8,0.6c-0.2,0.2-0.4,0.3-0.6,0.5l-0.2,0.1c-0.2,0.1-0.3,0.2-0.3,0.2l-0.5,0.5
			c-0.4,0.3-0.7,0.6-1.1,1c-0.2,0.2-0.5,0.5-0.7,0.8l-0.4,0.5c-0.1,0.1-0.1,0.1-0.2,0.2c0,0,0,0.1-0.1,0.1c-0.1,0.1-0.2,0.2-0.2,0.3
			c-0.1,0.1-0.1,0.2-0.2,0.2c0,0-0.1,0.1-0.2,0.2c-0.1,0.1-0.2,0.2-0.2,0.3c0,0.1-0.1,0.1-0.1,0.2l-0.1,0.1
			c-1.2,1.5-2.4,3.1-3.5,5.1c-3.3,5.7-5,12.2-5,18.9c0,1.7,0.1,3.5,0.4,5.5h0l0.1,0.6c0.2,0.9,0.4,1.7,0.6,2.5l0.2,0.6
			c0.2,0.6,0.5,1.2,0.8,1.8l0.1,0.1c0.4,0.7,0.8,1.3,1.3,1.9c0.1,0.1,0.3,0.2,0.5,0.2l0.1,0c0.4,0,0.7-0.3,0.7-0.7l0-0.2
			c0-0.2-0.1-0.3-0.1-0.5c-0.1-0.9-0.4-1.8-0.7-2.6c-0.2-0.5-0.3-0.9-0.5-1.3l-0.1-0.2c-0.2-0.6-0.4-1.2-0.5-1.8l0-0.1l-0.1-0.4
			l-0.1-0.1l0-0.1l0-0.1c-0.2-1.6-0.3-3.3-0.3-5c0-2.7,0.3-5.4,0.9-8l0.2-0.9l0.7,0.6c0.5,0.5,1,0.9,1.5,1.5
			c1.7,1.7,3.2,3.4,4.6,5.3l0.1,0.1c0.1,0.1,0.3,0.4,0.3,0.4l0.2,0.3c2.2,3.1,3.6,6.6,4.3,10.4c0.2,0.9,0.3,1.7,0.3,2.5
			c0,0.2,0,0.4,0,0.6c-0.1,4.6-3,8.7-7.4,10.3C292.1,367,290.7,367.3,289.4,367.3z M281.6,362.7c0.9,1,2.1,1.9,3.4,2.5
			c2.5,1.2,5.5,1.3,8,0.4c4-1.5,6.7-5.1,6.8-9.4c0-0.2,0-0.3,0-0.5c0-0.7-0.1-1.5-0.3-2.3c-0.6-3.7-2.1-7.1-4.2-10.1l-0.1-0.1
			c-0.1-0.1-0.3-0.4-0.4-0.6c-1.4-1.8-2.9-3.5-4.5-5.2c-0.3-0.3-0.5-0.5-0.8-0.8c-0.4,2.2-0.7,4.5-0.7,6.9c0,1.6,0.1,3.2,0.3,4.9
			l0,0.1c0,0.1,0,0.2,0.1,0.3c0,0,0,0.1,0,0.2l0,0.3c0.1,0.5,0.3,1.1,0.5,1.7l0,0.1c0.2,0.4,0.4,0.8,0.5,1.3
			c0.3,0.9,0.6,1.8,0.7,2.8c0,0.2,0.1,0.3,0.1,0.5l0,0.4c0,0.9-0.6,1.6-1.5,1.7c-0.1,0-0.2,0-0.2,0h-0.1c-0.5,0-0.9-0.3-1.2-0.6
			c-0.6-0.7-1-1.4-1.5-2.2l-0.1-0.1c-0.4-0.8-0.8-1.6-1-2.4l-0.2-0.7h0c-0.2-0.6-0.3-1.2-0.4-1.9l-0.1-0.6c-0.3-2.1-0.4-4-0.4-5.7
			c0-6.8,1.8-13.5,5.2-19.4c1.1-2,2.3-3.7,3.6-5.2c0,0,0.1-0.1,0.1-0.2c0,0,0.1-0.1,0.1-0.1c0.1-0.1,0.2-0.2,0.3-0.3
			c0.1-0.1,0.1-0.1,0.2-0.2c0.1-0.1,0.2-0.2,0.2-0.3c0.1-0.1,0.2-0.2,0.3-0.3c0,0,0.1-0.1,0.1-0.1l0.5-0.5c0.2-0.3,0.5-0.5,0.7-0.8
			c0.4-0.4,0.7-0.7,1.1-1l0.5-0.4c0.1-0.1,0.3-0.2,0.4-0.3l0.1-0.1c0.2-0.2,0.4-0.3,0.6-0.5c0.2-0.2,0.5-0.4,0.8-0.6
			c0.1-0.1,0.1-0.1,0.2-0.2c0,0,0.1-0.1,0.1-0.1c0.4-0.3,0.8-0.6,1.2-0.9l0.3-0.2l0.3,0.2c0.4,0.3,0.8,0.6,1.2,0.9v0l0.8,0.7
			c3.7,3,6.7,6.6,9,10.6c0.6,1.1,1.2,2.2,1.7,3.2c0,0,0,0.1,0.1,0.2l0.1,0.1c0.1,0.2,0.1,0.3,0.2,0.5c0.1,0.1,0.1,0.2,0.2,0.4
			l0.1,0.2c0.1,0.1,0.1,0.3,0.2,0.4l0.1,0.2c0,0.1,0.1,0.2,0.1,0.3l0.2,0.2l0,0.2c0.1,0.2,0.2,0.5,0.2,0.7l-0.4,0.3l0.5-0.2l0,0.1
			c0,0,0,0.1,0,0.1l0.4,1.1c0,0.2,0.1,0.3,0.1,0.5c0.1,0.2,0.1,0.3,0.1,0.5l0,0.1c1,3.4,1.4,6.9,1.4,10.4c0,0.8,0,1.4-0.1,2
			c0,0,0,0.1,0,0.2l0,0.3c0,0.2,0,0.4,0,0.6c0,0.2,0,0.4-0.1,0.6l0,0.3c0,0.3,0,0.5-0.1,0.7c0,0.1,0,0.2,0,0.3c0,0.1,0,0.2,0,0.2
			l-0.2,1.1c-0.5,2.7-1.6,5.3-3.3,7.3c0,0,0,0,0,0l0,0.1l-0.1,0.1c-0.1,0.1-0.2,0.2-0.3,0.3c-0.7,0.4-1.6,0.3-2.2-0.3L311,357
			c0,0,0,0-0.1-0.1c-0.3-0.4-0.4-0.8-0.3-1.2c0.1-0.6,0.2-1.1,0.3-1.9l0.1-0.3c0-0.1,0-0.2,0.1-0.2l0.1-0.2c0.2-0.6,0.4-1.2,0.6-1.7
			l0.1-0.2c0.1-0.2,0.2-0.4,0.2-0.5c0.2-0.6,0.4-1.2,0.5-1.8l0.1-1c0-0.1,0-0.2,0.1-0.4c0-0.2,0-0.3,0-0.4l0.1-1.3c0,0,0,0,0,0
			s0-0.1,0-0.2l0-0.3c0-0.7,0-1.3,0-1.8c0-2.3-0.2-4.6-0.7-6.9c-0.3,0.2-0.5,0.5-0.8,0.7c-1.7,1.7-3.2,3.5-4.5,5.2l0,0
			c0,0.1-0.1,0.2-0.2,0.3l-0.3,0.5c-2.4,3.4-3.9,7.4-4.4,11.5c0,0.1,0,0.1,0,0.2l0,0.4c0,0.2,0,0.3,0,0.5c0,2.8,1.1,5.4,3,7.3
			c0.8,0.8,1.8,1.5,3,2.1c1.3,0.6,2.8,1,4.3,1c2.7,0,5.2-1,7.1-2.8c0.1-0.1,0.2-0.2,0.3-0.3c0.4-0.4,0.8-0.9,1.2-1.5
			c0.1-0.1,0.1-0.2,0.2-0.3c2.1-3,3.5-6.5,4.2-10.2l0-0.1c0.1-0.5,0.1-0.7,0.1-0.8c0.1-0.3,0.1-0.5,0.1-0.8c0.2-2,0.4-4,0.4-6
			c0-8.3-2.2-16.5-6.3-23.6c-4-6.9-9.8-12.8-16.6-16.9c-1.3-0.8-3.1-0.8-4.4,0c-6.9,4.2-12.6,10-16.6,16.9
			c-4.1,7.2-6.3,15.3-6.3,23.6c0,1.8,0.1,3.8,0.4,5.9l0.1,0.6h0c0,0.1,0,0.2,0,0.3c0,0.1,0.1,0.6,0.1,0.7l0,0l0,0.2
			c0.7,3.9,2.3,7.6,4.7,10.7l0.1,0.1c0,0.1,0.1,0.1,0.1,0.2h0.1l0.1,0.3L281.6,362.7z M358.3,358l-0.5-0.2c-3-1.1-6.2-1.8-9.3-2.3
			l-0.4-0.1v-0.6l0.1-0.2c0.8-1.8,1.4-3.6,1.9-5.4c1.1-4.2,1.5-8.5,1.1-12.9l-0.1-0.5c-0.1-0.7-0.2-1.5-0.3-2.2
			c-5.4-0.8-10.7-0.5-15.7,0.8c-1.7,0.4-3.3,1-4.9,1.7v0l-0.4,0.1c-0.1,0-0.1,0-0.2,0.1l-0.7,0.4l-0.1-0.8c-0.5-3.2-1.2-6.3-2.3-9.4
			l-0.2-0.5l0.5-0.2c1.8-0.7,3.7-1.3,5.5-1.8c7.8-2.1,16.3-2.2,24.3-0.2c0.8,0.2,1.6,0.6,2.2,1.2l0.4,0.4c0.3,0.3,0.5,0.6,0.7,1
			c0,0.1,0.1,0.2,0.1,0.2l0,0c0,0,0.1,0.1,0.1,0.1c0,0.1,0.1,0.2,0.1,0.2l0,0.1c0,0,0,0.1,0.1,0.1c0.1,0.2,0.1,0.4,0.2,0.5
			c2,7.9,1.9,16.3-0.2,24.2c-0.5,1.8-1.1,3.6-1.8,5.4L358.3,358z M349.3,354.6c2.8,0.4,5.7,1.1,8.4,2.1c0.6-1.7,1.2-3.3,1.6-4.9
			c2.1-7.8,2.1-16,0.2-23.7c0-0.2-0.1-0.3-0.1-0.4l-0.3-0.6c-0.2-0.3-0.3-0.5-0.5-0.8h-0.1l-0.1-0.3l-0.3-0.3
			c-0.5-0.4-1-0.7-1.6-0.8c-7.8-1.9-16.1-1.9-23.7,0.2c-1.6,0.4-3.2,0.9-4.9,1.6c0.9,2.7,1.6,5.6,2.1,8.4c1.6-0.7,3.3-1.3,5-1.7
			c5.2-1.4,10.8-1.7,16.5-0.8l0.4,0.1l0.1,0.4c0.1,0.4,0.1,0.7,0.2,1.1l0,0l0.2,1.6c0.5,4.8,0.1,9.4-1.1,13.9
			C350.6,351.3,350,353,349.3,354.6z M243.4,358l-0.2-0.5c-0.7-1.9-1.4-3.7-1.8-5.4c-2.1-7.9-2.2-16.3-0.2-24.3
			c0.2-0.8,0.6-1.6,1.2-2.2c0,0,0.1-0.1,0.1-0.1l0.3-0.2c0.3-0.3,0.6-0.5,1-0.7l0.1-0.1c0.1,0,0.1-0.1,0.1-0.1l0.1-0.1
			c0,0,0,0,0.1,0l0.3-0.1l0.5-0.2c8-2,16.4-1.9,24.3,0.2c1.9,0.5,3.7,1.1,5.5,1.8l0.5,0.2l-0.2,0.5c-1.1,3-1.9,6.2-2.3,9.3l-0.1,0.4
			h-0.6l-0.1-0.1c-1.8-0.8-3.6-1.4-5.4-1.9c-4.4-1.2-9-1.5-13.5-1.1c-0.7,0.1-1.5,0.2-2.2,0.3c-0.3,1.9-0.5,3.9-0.5,5.9
			c0,3.3,0.4,6.6,1.3,9.8c0.4,1.6,1,3.3,1.7,4.9h0l0.1,0.4c0,0.1,0.1,0.1,0.1,0.2l0.3,0.6l-0.7,0.1c-3.2,0.5-6.3,1.2-9.4,2.3
			L243.4,358z M243.2,326.2l-0.1,0.1c-0.5,0.5-0.8,1.1-1,1.8c-1.9,7.8-1.9,16,0.2,23.7c0.4,1.6,0.9,3.2,1.6,4.9
			c2.8-0.9,5.6-1.6,8.4-2.1c-0.7-1.7-1.3-3.4-1.7-5c-0.9-3.3-1.3-6.7-1.3-10.1c0-2.2,0.2-4.3,0.6-6.4l0.1-0.4l0.4-0.1
			c0.9-0.1,1.7-0.2,2.6-0.3c4.7-0.5,9.4-0.1,13.9,1.1c1.7,0.4,3.3,1,5,1.7c0.5-2.8,1.2-5.6,2.1-8.4c-1.6-0.6-3.2-1.2-4.9-1.6
			c-7.7-2.1-16-2.1-23.7-0.2l-0.4,0.1c0,0-0.1,0.1-0.2,0.1l0,0c0,0-0.1,0-0.1,0l0,0c0,0-0.1,0-0.1,0.1l-0.3,0.2
			c-0.3,0.2-0.5,0.4-0.7,0.5l-0.1,0.1C243.3,326.1,243.3,326.2,243.2,326.2z"/>
	</g>
</g>
</svg>
